{"glyphs":{"0":{"ha":622,"x_min":74,"x_max":549,"o":"m 74 264 l 74 718 q 138 912 74 840 q 313 983 203 983 q 485 912 422 983 q 549 718 549 840 l 549 264 q 485 61 549 135 q 313 -12 422 -12 q 138 62 201 -12 q 74 264 74 136 m 218 814 l 218 157 q 313 -4 218 -4 q 383 35 361 -4 q 406 157 406 74 l 406 814 q 313 975 406 975 q 218 814 218 975 z "},"1":{"ha":368,"x_min":46,"x_max":275,"o":"m 142 0 l 142 922 l 49 876 l 46 885 l 217 971 l 275 971 l 275 0 l 142 0 z "},"2":{"ha":554,"x_min":42,"x_max":482,"o":"m 63 901 q 150 962 99 940 q 260 983 201 983 q 349 967 308 983 q 419 920 390 950 q 465 849 449 890 q 481 756 481 807 q 449 622 481 686 q 346 486 417 558 l 226 378 q 161 308 189 340 q 115 247 133 276 q 84 191 96 218 q 65 135 72 164 l 482 135 l 482 0 l 42 0 q 80 248 42 132 q 201 486 118 364 l 232 531 q 285 613 263 576 q 321 680 307 649 q 341 740 335 711 q 347 800 347 769 q 313 922 347 878 q 219 967 278 967 q 138 947 179 967 q 68 896 97 928 l 63 901 z "},"3":{"ha":497,"x_min":-19,"x_max":425,"o":"m 175 -11 q 71 5 121 -11 q -19 50 21 21 l -15 57 q 131 6 58 6 q 245 67 206 6 q 285 249 285 128 l 285 288 q 249 452 285 404 q 128 500 214 500 l 128 508 q 196 519 168 508 q 240 553 224 529 q 265 615 257 576 q 272 708 272 653 l 272 753 q 240 912 272 857 q 146 967 208 967 q 73 948 110 967 q 7 896 36 929 l 0 901 q 82 962 32 940 q 190 983 132 983 q 281 967 240 983 q 351 920 322 950 q 397 847 381 890 q 413 751 413 804 l 413 715 q 372 569 413 621 q 254 510 332 517 l 229 507 l 229 501 l 254 499 q 381 433 338 489 q 425 275 425 376 l 425 256 q 359 60 425 131 q 175 -11 293 -11 z "},"4":{"ha":613,"x_min":39,"x_max":539,"o":"m 39 175 l 39 231 l 404 971 l 463 971 l 463 286 l 539 286 l 539 175 l 463 175 l 463 0 l 329 0 l 329 175 l 39 175 m 329 797 l 325 797 l 82 286 l 329 286 l 329 797 z "},"5":{"ha":558,"x_min":32,"x_max":486,"o":"m 40 131 q 66 80 49 104 q 107 38 83 56 q 158 10 131 21 q 214 0 186 0 q 310 44 275 0 q 346 164 346 89 l 346 328 q 334 403 346 368 q 301 465 322 439 q 253 505 281 490 q 193 519 225 519 q 135 505 161 519 q 90 464 108 490 l 75 464 l 75 971 l 464 971 l 442 849 l 83 849 l 83 472 l 88 472 q 150 532 110 511 q 244 553 190 553 q 340 534 296 553 q 416 483 383 515 q 467 407 449 451 q 486 310 486 363 l 486 219 q 467 127 486 169 q 416 53 449 85 q 340 4 383 22 q 244 -14 296 -14 q 110 26 168 -14 q 32 128 51 65 l 40 131 z "},"6":{"ha":629,"x_min":74,"x_max":557,"o":"m 74 243 l 74 726 q 91 833 74 785 q 141 914 108 881 q 219 966 174 947 q 318 985 264 985 q 433 963 381 985 q 514 900 485 940 l 507 896 q 438 950 482 929 q 347 971 393 971 q 249 931 285 971 q 214 819 214 890 l 214 550 q 278 598 238 581 q 365 615 318 615 q 504 558 451 615 q 557 408 557 501 l 557 243 q 539 140 557 188 q 489 59 521 93 q 413 6 457 25 q 315 -12 368 -12 q 218 6 263 -12 q 142 59 174 25 q 92 140 110 93 q 74 243 74 188 m 214 538 l 214 133 q 242 34 214 72 q 315 -4 271 -4 q 388 35 360 -4 q 417 135 417 74 l 417 467 q 390 560 417 525 q 318 594 363 594 q 261 579 289 594 q 214 538 233 564 z "},"7":{"ha":503,"x_min":18,"x_max":482,"o":"m 136 33 q 149 205 136 135 q 182 330 161 275 q 231 433 203 385 q 292 538 260 482 q 358 668 324 594 q 424 847 392 742 l 18 847 l 18 971 l 482 971 l 449 885 q 373 640 403 750 q 324 432 343 531 q 298 238 306 333 q 290 33 290 142 l 290 0 l 136 0 l 136 33 z "},"8":{"ha":689,"x_min":74,"x_max":617,"o":"m 267 492 l 290 494 l 290 500 l 267 501 q 197 524 229 506 q 139 569 164 542 q 100 632 114 597 q 86 706 86 667 l 86 772 q 108 853 86 815 q 165 921 129 892 q 249 967 201 950 q 350 983 297 983 q 449 967 403 983 q 530 921 496 950 q 584 853 564 892 q 604 772 604 815 l 604 706 q 590 633 604 668 q 550 571 575 599 q 491 525 525 543 q 419 501 457 507 l 396 499 l 396 494 l 419 492 q 496 469 460 488 q 559 421 532 450 q 601 355 586 392 q 617 278 617 318 l 617 210 q 595 124 617 164 q 538 53 574 83 q 452 5 501 22 q 349 -12 403 -12 q 243 6 293 -12 q 156 54 193 24 q 96 125 118 85 q 74 210 74 165 l 74 278 q 89 354 74 318 q 130 419 104 390 q 191 467 156 449 q 267 492 226 486 m 351 501 q 433 537 407 501 q 458 651 458 572 l 458 832 q 432 941 458 907 q 351 975 406 975 q 232 832 232 975 l 232 651 q 351 501 232 501 m 350 -4 q 434 29 408 -4 q 460 139 460 63 l 460 344 q 350 493 460 493 q 262 454 293 493 q 231 344 231 415 l 231 139 q 350 -4 231 -4 z "},"9":{"ha":629,"x_min":74,"x_max":557,"o":"m 557 729 l 557 242 q 539 139 557 186 q 489 58 521 92 q 412 6 457 25 q 313 -12 367 -12 q 172 26 233 -12 q 85 128 110 64 l 93 132 q 170 37 115 74 q 290 0 225 0 q 383 35 350 0 q 417 132 417 69 l 417 422 q 352 374 393 392 q 265 357 311 357 q 126 414 179 357 q 74 565 74 471 l 74 729 q 92 832 74 785 q 142 913 110 879 q 218 966 174 947 q 315 985 263 985 q 413 966 368 985 q 489 913 457 947 q 539 832 521 879 q 557 729 557 785 m 417 433 l 417 839 q 388 938 417 900 q 315 976 360 976 q 242 938 271 976 q 214 839 214 899 l 214 515 q 240 414 214 450 q 310 378 265 378 q 368 393 339 378 q 417 433 397 408 z "},"\u0000":{"ha":0,"x_min":0,"x_max":0,"o":""},"\r":{"ha":347,"x_min":0,"x_max":0,"o":""}," ":{"ha":257,"x_min":0,"x_max":0,"o":""},"H":{"ha":624,"x_min":69,"x_max":557,"o":"m 213 971 l 213 489 l 414 489 l 414 971 l 557 971 l 557 0 l 414 0 l 414 481 l 213 481 l 213 0 l 69 0 l 69 971 l 213 971 z "},"I":{"ha":279,"x_min":68,"x_max":213,"o":"m 213 971 l 213 0 l 68 0 l 68 971 l 213 971 z "},"J":{"ha":406,"x_min":-7,"x_max":339,"o":"m -7 46 l -1 53 q 56 16 25 29 q 114 3 86 3 q 174 33 151 3 q 196 117 196 64 l 196 971 l 339 971 l 339 224 q 324 129 339 172 q 283 55 310 86 q 221 6 257 24 q 142 -12 185 -12 q -7 46 64 -12 z "},"K":{"ha":581,"x_min":69,"x_max":589,"o":"m 213 0 l 69 0 l 69 971 l 213 971 l 213 0 m 257 497 l 257 504 l 499 971 l 511 971 l 342 639 l 589 0 l 439 0 l 257 497 z "},"L":{"ha":403,"x_min":68,"x_max":411,"o":"m 213 971 l 213 8 l 411 8 l 411 0 l 68 0 l 68 971 l 213 971 z "},"M":{"ha":724,"x_min":60,"x_max":656,"o":"m 656 0 l 511 0 l 511 915 l 508 915 l 497 860 l 343 0 l 306 0 l 71 915 l 68 915 l 68 0 l 60 0 l 60 971 l 204 971 l 379 279 l 382 279 l 507 971 l 656 971 l 656 0 z "},"N":{"ha":546,"x_min":60,"x_max":486,"o":"m 475 289 l 478 289 l 478 971 l 486 971 l 486 0 l 449 0 l 72 915 l 69 915 l 69 0 l 60 0 l 60 971 l 201 971 l 475 289 z "},"Q":{"ha":615,"x_min":60,"x_max":557,"o":"m 285 -11 l 285 -8 l 260 -8 q 177 22 214 -1 q 115 80 140 44 q 74 163 89 115 q 60 264 60 210 l 60 718 q 78 826 60 776 q 129 910 96 875 q 208 964 163 944 q 310 983 254 983 q 411 964 365 983 q 489 910 457 944 q 539 826 521 875 q 557 718 557 778 l 557 264 q 539 151 557 201 q 489 64 521 100 q 411 8 457 28 q 308 -12 365 -12 q 254 -26 285 -12 q 200 -62 224 -40 q 250 -51 219 -51 q 309 -60 276 -51 q 374 -85 342 -69 l 385 -90 q 437 -112 417 -106 q 474 -119 457 -119 q 549 -61 522 -119 l 556 -65 q 492 -141 532 -114 q 406 -168 453 -168 q 313 -149 364 -168 l 306 -146 q 251 -128 274 -133 q 208 -122 228 -122 q 126 -156 160 -122 l 121 -151 q 183 -65 153 -94 q 260 -15 214 -35 l 285 -11 m 204 157 q 308 -4 204 -4 q 413 157 413 -4 l 413 814 q 388 936 413 897 q 310 975 363 975 q 204 814 204 975 l 204 157 z "},"S":{"ha":506,"x_min":60,"x_max":474,"o":"m 336 115 q 323 197 336 154 q 283 293 310 240 l 110 640 q 72 783 72 715 q 87 864 72 828 q 128 927 101 900 q 190 969 154 954 q 268 983 225 983 q 369 962 321 983 q 453 900 417 940 l 447 894 q 380 947 419 926 q 307 968 340 968 q 237 935 263 968 q 211 843 211 901 q 261 668 211 768 l 444 289 q 474 172 474 229 q 457 98 474 132 q 411 40 440 64 q 342 1 382 15 q 253 -12 301 -12 q 153 3 203 -12 q 60 46 104 18 l 65 53 q 147 14 104 28 q 226 0 190 0 q 308 30 279 0 q 336 115 336 60 z "},"T":{"ha":476,"x_min":-7,"x_max":485,"o":"m 485 963 l 311 963 l 311 0 l 167 0 l 167 963 l -7 963 l -7 971 l 485 971 l 485 963 z "},"U":{"ha":567,"x_min":68,"x_max":508,"o":"m 213 971 l 213 167 q 247 49 213 93 q 340 6 281 6 q 455 66 410 6 q 500 229 500 126 l 500 971 l 508 971 l 508 233 q 454 52 508 117 q 303 -12 400 -12 q 206 7 250 -12 q 132 63 163 26 q 85 150 101 99 q 68 264 68 201 l 68 971 l 213 971 z "},"X":{"ha":483,"x_min":-8,"x_max":490,"o":"m 293 571 l 296 571 l 453 972 l 465 972 l 300 551 l 490 0 l 339 0 l 183 451 l 182 451 l 4 0 l -8 0 l 176 471 l 4 972 l 156 972 l 293 571 z "},"Y":{"ha":469,"x_min":-6,"x_max":478,"o":"m 314 472 l 317 472 l 465 971 l 478 971 l 321 447 l 321 0 l 176 0 l 176 435 l -6 971 l 144 971 l 314 472 z "},"Z":{"ha":560,"x_min":33,"x_max":526,"o":"m 82 963 l 82 971 l 506 971 l 506 963 l 185 8 l 526 8 l 526 0 l 33 0 l 33 8 l 356 963 l 82 963 z "},"i":{"ha":268,"x_min":58,"x_max":215,"o":"m 58 854 q 81 908 58 886 q 136 929 103 929 q 193 908 171 929 q 215 854 215 886 q 193 799 215 821 q 136 776 171 776 q 81 799 103 776 q 58 854 58 821 m 203 688 l 203 0 l 67 0 l 67 688 l 203 688 z "},"j":{"ha":315,"x_min":56,"x_max":263,"o":"m 110 854 q 131 908 110 886 q 185 929 153 929 q 240 908 218 929 q 263 854 263 886 q 240 799 263 821 q 185 776 218 776 q 131 799 153 776 q 110 854 110 821 m 253 31 q 242 -49 253 -12 q 209 -117 232 -85 q 149 -181 186 -150 q 60 -243 113 -211 l 56 -237 q 82 -213 71 -225 q 101 -185 93 -201 q 114 -144 110 -168 q 118 -87 118 -121 l 118 688 l 253 688 l 253 31 z "},"k":{"ha":528,"x_min":58,"x_max":535,"o":"m 194 0 l 58 0 l 58 971 l 194 971 l 194 0 m 306 506 l 535 0 l 394 0 l 224 410 l 224 417 l 429 688 l 443 688 l 306 506 z "},"l":{"ha":240,"x_min":58,"x_max":194,"o":"m 58 971 l 194 971 l 194 0 l 58 0 l 58 971 z "},"m":{"ha":778,"x_min":54,"x_max":732,"o":"m 454 578 q 501 665 467 631 q 590 700 535 700 q 692 659 651 700 q 732 556 732 618 l 732 0 l 596 0 l 596 597 q 554 682 596 682 q 520 671 538 682 q 489 642 503 660 q 466 600 475 624 q 457 550 457 576 l 457 0 l 321 0 l 321 613 q 309 660 321 642 q 278 679 297 679 q 248 666 264 679 q 219 632 232 653 q 199 585 207 611 q 190 535 190 560 l 190 0 l 54 0 l 54 688 l 190 688 l 190 586 l 193 586 q 237 667 208 635 q 314 700 265 700 q 405 665 365 700 q 450 578 444 631 l 454 578 z "},"p":{"ha":521,"x_min":58,"x_max":474,"o":"m 58 688 l 193 688 l 193 615 l 196 615 q 304 700 226 700 q 369 685 339 700 q 423 644 400 669 q 460 584 446 618 q 474 511 474 550 l 474 188 q 460 111 474 147 q 422 47 446 75 q 366 3 397 19 q 300 -12 335 -12 q 196 69 224 -12 l 193 69 l 193 -233 l 58 -233 l 58 688 m 193 121 q 200 77 193 99 q 219 39 207 56 q 245 12 231 22 q 276 1 260 1 q 318 24 301 1 q 335 83 335 47 l 335 600 q 317 660 335 636 q 275 685 300 685 q 245 674 260 685 q 219 647 231 664 q 200 610 207 631 q 193 568 193 589 l 193 121 z "},"q":{"ha":517,"x_min":47,"x_max":464,"o":"m 328 69 l 325 69 q 282 7 310 26 q 218 -12 254 -12 q 154 3 185 -12 q 99 47 124 19 q 61 111 75 75 q 47 188 47 147 l 47 511 q 61 584 47 550 q 98 644 75 618 q 152 685 121 669 q 217 700 183 700 q 325 615 294 700 l 328 615 l 328 688 l 464 688 l 464 -233 l 328 -233 l 328 69 m 328 568 q 321 610 328 589 q 302 647 314 631 q 276 674 290 664 q 246 685 261 685 q 203 660 221 685 q 186 600 186 636 l 186 83 q 203 24 186 47 q 244 1 219 1 q 276 12 261 1 q 302 39 290 22 q 321 77 314 56 q 328 121 328 99 l 328 568 z "},"r":{"ha":361,"x_min":54,"x_max":350,"o":"m 188 688 l 188 547 l 192 547 q 249 658 207 617 q 350 700 292 700 l 350 586 q 314 590 332 590 q 238 572 274 590 q 188 522 203 554 l 188 0 l 54 0 l 54 688 l 188 688 z "},"s":{"ha":401,"x_min":29,"x_max":388,"o":"m 358 639 q 306 674 335 663 q 250 686 278 686 q 185 663 210 686 q 160 601 160 639 q 190 514 160 564 l 358 236 q 388 144 388 189 q 372 83 388 111 q 331 33 357 54 q 271 0 306 13 q 196 -12 236 -12 q 29 57 99 -12 l 35 63 q 100 17 64 33 q 169 0 136 0 q 230 22 207 0 q 253 82 253 44 q 208 207 253 133 l 65 438 q 31 543 31 496 q 45 605 31 576 q 85 654 60 633 q 144 688 110 675 q 217 700 178 700 q 365 644 303 700 l 358 639 z "},"t":{"ha":317,"x_min":1,"x_max":342,"o":"m 189 -12 q 103 29 135 -12 q 72 142 72 71 l 72 679 l 1 679 l 1 688 l 72 688 l 72 844 l 207 890 l 207 688 l 342 688 l 342 679 l 207 679 l 207 89 q 219 36 207 56 q 254 17 232 17 q 292 28 271 17 q 332 64 313 40 l 338 58 q 267 7 308 26 q 189 -12 226 -12 z "},"v":{"ha":447,"x_min":18,"x_max":429,"o":"m 244 0 l 214 0 l 18 688 l 160 688 l 290 214 l 293 214 l 418 688 l 429 688 l 244 0 z "},"x":{"ha":496,"x_min":18,"x_max":478,"o":"m 165 688 l 268 458 l 286 421 l 289 421 l 408 688 l 419 688 l 293 404 l 478 0 l 336 0 l 183 335 l 181 335 l 31 0 l 18 0 l 176 353 l 24 688 l 165 688 z "},"z":{"ha":483,"x_min":43,"x_max":454,"o":"m 43 0 l 43 8 l 297 679 l 89 679 l 89 688 l 453 688 l 453 679 l 199 8 l 454 8 l 454 0 l 43 0 z "},"$":{"ha":506,"x_min":60,"x_max":474,"o":"m 190 -7 q 123 13 156 0 q 60 46 90 26 l 65 53 q 192 3 126 14 l 244 371 l 110 640 q 72 783 72 715 q 87 864 72 828 q 128 927 101 900 q 190 969 154 954 q 268 983 225 983 q 332 975 301 983 l 346 1076 l 357 1076 l 342 971 q 453 900 407 951 l 447 894 q 398 937 426 918 q 342 963 369 956 l 290 607 l 444 289 q 474 172 474 229 q 457 98 474 132 q 411 40 440 64 q 342 1 382 15 q 253 -12 301 -12 q 200 -8 228 -12 l 185 -119 l 174 -119 l 190 -7 m 331 965 q 318 967 324 967 q 307 968 313 968 q 237 935 263 968 q 211 843 211 901 q 261 668 211 768 l 281 625 l 331 965 m 336 115 q 323 197 336 154 q 283 293 310 240 l 253 354 l 201 1 q 215 0 208 0 q 226 0 221 0 q 308 30 279 0 q 336 115 336 60 z "},"D":{"ha":583,"x_min":75,"x_max":529,"o":"m 75 971 l 307 971 q 398 952 357 971 q 468 899 439 933 q 513 818 497 865 q 529 714 529 771 l 529 256 q 513 153 529 200 q 468 73 497 107 q 399 19 439 39 q 313 0 360 0 l 75 0 l 75 971 m 211 8 l 292 8 q 393 168 393 8 l 393 804 q 365 922 393 881 q 282 963 336 963 l 211 963 l 211 8 z "},"…":{"ha":740,"x_min":40,"x_max":701,"o":"m 40 71 q 62 126 40 104 q 117 147 83 147 q 172 126 150 147 q 194 71 194 104 q 172 15 194 38 q 117 -7 150 -7 q 62 15 83 -7 q 40 71 40 38 m 294 71 q 316 126 294 104 q 369 147 338 147 q 425 126 403 147 q 447 71 447 104 q 425 15 447 38 q 369 -7 403 -7 q 316 15 338 -7 q 294 71 294 38 m 547 71 q 569 126 547 104 q 624 147 590 147 q 679 126 657 147 q 701 71 701 104 q 679 15 701 38 q 624 -7 657 -7 q 569 15 590 -7 q 547 71 547 38 z "},"!":{"ha":443,"x_min":142,"x_max":310,"o":"m 231 175 l 222 175 l 142 971 l 310 971 l 231 175 m 151 65 q 173 119 151 97 q 226 142 194 142 q 282 119 260 142 q 304 65 304 97 q 282 10 304 32 q 226 -12 260 -12 q 173 10 194 -12 q 151 65 151 32 z "},".":{"ha":233,"x_min":40,"x_max":194,"o":"m 40 65 q 62 119 40 97 q 117 142 83 142 q 172 119 150 142 q 194 65 194 97 q 172 10 194 32 q 117 -12 150 -12 q 62 10 83 -12 q 40 65 40 32 z "},",":{"ha":240,"x_min":40,"x_max":200,"o":"m 164 3 q 113 -11 138 -11 q 60 10 81 -11 q 40 64 40 32 q 62 120 40 99 q 117 142 83 142 q 178 112 156 142 q 200 29 200 82 q 165 -81 200 -36 q 72 -137 131 -126 l 69 -129 q 118 -110 97 -124 q 152 -79 139 -97 q 169 -40 165 -61 q 164 3 172 -18 z "},":":{"ha":233,"x_min":40,"x_max":194,"o":"m 40 508 q 63 563 40 540 q 117 585 85 585 q 172 563 150 585 q 194 508 194 540 q 172 453 194 475 q 117 431 150 431 q 63 453 85 431 q 40 508 40 475 m 40 71 q 63 126 40 104 q 117 147 85 147 q 172 126 150 147 q 194 71 194 104 q 172 17 194 39 q 117 -6 150 -6 q 63 17 85 -6 q 40 71 40 39 z "},";":{"ha":240,"x_min":40,"x_max":200,"o":"m 42 508 q 64 563 42 542 q 118 585 86 585 q 174 563 151 585 q 196 508 196 542 q 174 454 196 476 q 118 432 151 432 q 64 454 86 432 q 42 508 42 476 m 164 3 q 113 -11 138 -11 q 60 10 81 -11 q 40 64 40 32 q 63 120 40 99 q 117 142 85 142 q 178 112 156 142 q 200 29 200 82 q 165 -81 200 -36 q 72 -137 131 -126 l 69 -129 q 118 -110 97 -124 q 152 -79 139 -97 q 169 -40 165 -61 q 164 3 172 -18 z "},"”":{"ha":457,"x_min":40,"x_max":417,"o":"m 164 846 q 113 832 138 832 q 60 853 81 832 q 40 907 40 875 q 62 963 40 942 q 117 985 83 985 q 178 955 156 985 q 200 872 200 925 q 165 762 200 807 q 72 706 131 717 l 69 714 q 118 733 97 719 q 152 764 139 746 q 169 803 165 782 q 164 846 172 825 m 381 846 q 329 832 354 832 q 277 853 297 832 q 257 907 257 875 q 278 963 257 942 q 333 985 300 985 q 394 955 372 985 q 417 872 417 925 q 382 762 417 807 q 289 706 347 717 l 286 714 q 335 733 314 719 q 369 764 356 746 q 385 803 382 782 q 381 846 389 825 z "},"“":{"ha":457,"x_min":40,"x_max":417,"o":"m 76 831 q 128 846 101 846 q 180 824 160 846 q 200 771 200 803 q 178 714 200 736 q 124 692 157 692 q 63 722 85 692 q 40 804 40 751 q 75 915 40 871 q 168 971 110 960 l 171 964 q 123 945 144 958 q 88 914 101 932 q 72 874 75 896 q 76 831 68 853 m 293 831 q 344 846 318 846 q 397 824 376 846 q 417 771 417 803 q 395 714 417 736 q 340 692 374 692 q 279 722 301 692 q 257 804 257 751 q 292 915 257 871 q 385 971 326 960 l 388 964 q 340 945 361 958 q 305 914 318 932 q 288 874 292 896 q 293 831 285 853 z "},"’":{"ha":240,"x_min":40,"x_max":200,"o":"m 164 846 q 113 831 139 831 q 60 852 81 831 q 40 906 40 874 q 62 963 40 940 q 117 985 83 985 q 178 955 156 985 q 200 872 200 925 q 165 761 200 806 q 72 706 131 717 l 69 713 q 118 731 97 718 q 152 763 139 744 q 169 802 165 781 q 164 846 172 824 z "},"‘":{"ha":240,"x_min":40,"x_max":200,"o":"m 76 831 q 128 846 101 846 q 180 824 160 846 q 200 771 200 803 q 178 714 200 736 q 124 692 157 692 q 63 722 85 692 q 40 804 40 751 q 75 915 40 871 q 168 971 110 960 l 171 964 q 123 945 144 958 q 88 914 101 932 q 72 874 75 896 q 76 831 68 853 z "},"?":{"ha":549,"x_min":75,"x_max":481,"o":"m 75 904 q 156 962 106 940 q 265 983 207 983 q 422 924 364 983 q 481 764 481 864 q 465 672 481 717 q 416 578 450 626 q 328 476 382 529 q 194 357 274 422 l 194 175 l 188 175 l 188 468 q 260 547 231 510 q 308 622 290 585 q 334 697 326 658 q 342 781 342 735 q 224 965 342 965 q 146 947 185 965 q 82 899 107 929 l 75 904 m 115 65 q 137 119 115 97 q 192 142 158 142 q 246 119 224 142 q 268 65 268 97 q 246 10 268 32 q 190 -12 224 -12 q 137 10 158 -12 q 115 65 115 32 z "},"|":{"ha":89,"x_min":40,"x_max":49,"o":"m 40 1042 l 49 1042 l 49 -124 l 40 -124 l 40 1042 z "},"/":{"ha":376,"x_min":40,"x_max":335,"o":"m 324 1042 l 335 1042 l 51 -124 l 40 -124 l 324 1042 z "},"\\":{"ha":376,"x_min":40,"x_max":335,"o":"m 324 -124 l 40 1042 l 51 1042 l 335 -124 l 324 -124 z "},"⁄":{"ha":376,"x_min":40,"x_max":335,"o":"m 324 1042 l 335 1042 l 51 -124 l 40 -124 l 324 1042 z "},"<":{"ha":454,"x_min":40,"x_max":414,"o":"m 414 272 l 40 431 l 40 438 l 414 596 l 414 583 l 64 436 l 64 432 l 414 285 l 414 272 z "},">":{"ha":454,"x_min":39,"x_max":413,"o":"m 39 596 l 413 438 l 413 431 l 39 272 l 39 285 l 389 432 l 389 436 l 39 583 l 39 596 z "},"%":{"ha":964,"x_min":40,"x_max":925,"o":"m 40 688 l 40 776 q 58 855 40 818 q 104 919 75 892 q 173 963 133 947 q 256 979 213 979 q 337 963 299 979 q 404 919 375 947 q 450 855 433 892 q 467 776 467 818 l 467 688 q 450 609 467 646 q 405 544 433 572 q 338 501 376 517 q 257 485 300 485 q 174 501 214 485 q 105 546 135 518 q 58 610 75 574 q 40 688 40 647 m 181 879 l 181 585 q 201 518 181 543 q 256 493 222 493 q 308 517 289 493 q 326 585 326 542 l 326 879 q 306 946 326 921 q 254 971 286 971 q 201 946 221 971 q 181 879 181 921 m 304 0 l 651 971 l 664 971 l 315 0 l 304 0 m 497 196 l 497 283 q 514 362 497 325 q 560 426 531 399 q 627 471 589 454 q 708 488 665 488 q 791 471 751 488 q 860 426 831 454 q 908 361 890 399 q 925 283 925 324 l 925 196 q 908 117 925 154 q 863 53 892 81 q 797 9 835 25 q 715 -7 758 -7 q 633 10 672 -7 q 563 54 593 26 q 515 119 532 82 q 497 196 497 156 m 638 388 l 638 93 q 658 26 638 51 q 714 1 679 1 q 765 26 746 1 q 785 93 785 50 l 785 388 q 765 454 785 429 q 711 479 744 479 q 658 454 679 479 q 638 388 638 429 z "},"‰":{"ha":1456,"x_min":40,"x_max":1417,"o":"m 40 688 l 40 776 q 57 855 40 818 q 103 919 74 892 q 170 963 132 947 q 251 979 208 979 q 333 963 294 979 q 402 918 372 946 q 449 853 432 890 q 467 776 467 817 l 467 688 q 450 609 467 646 q 405 544 433 572 q 338 501 376 517 q 257 485 300 485 q 174 501 214 485 q 105 546 135 518 q 58 610 75 574 q 40 688 40 647 m 181 879 l 181 585 q 201 518 181 543 q 256 493 222 493 q 308 517 289 493 q 326 585 326 542 l 326 879 q 306 946 326 921 q 254 971 286 971 q 201 946 221 971 q 181 879 181 921 m 306 0 l 654 971 l 661 971 l 314 0 l 306 0 m 508 196 l 508 283 q 525 362 508 325 q 571 426 542 399 q 638 471 600 454 q 719 488 676 488 q 801 471 763 488 q 870 426 840 454 q 917 361 900 399 q 935 283 935 324 l 935 196 q 918 117 935 154 q 873 53 901 81 q 806 9 844 25 q 725 -7 768 -7 q 642 10 682 -7 q 573 54 603 26 q 526 119 543 82 q 508 196 508 156 m 990 196 l 990 283 q 1007 362 990 325 q 1053 426 1024 399 q 1120 471 1082 454 q 1201 488 1158 488 q 1283 471 1244 488 q 1352 426 1322 454 q 1399 361 1382 399 q 1417 283 1417 324 l 1417 196 q 1400 117 1417 154 q 1355 53 1383 81 q 1288 9 1326 25 q 1207 -7 1250 -7 q 1124 10 1164 -7 q 1055 54 1085 26 q 1008 119 1025 82 q 990 196 990 156 m 649 388 l 649 93 q 669 26 649 51 q 724 1 690 1 q 776 26 757 1 q 794 93 794 50 l 794 388 q 773 452 794 425 q 722 479 751 479 q 670 452 692 479 q 649 388 649 425 m 1131 388 l 1131 93 q 1151 26 1131 51 q 1206 1 1172 1 q 1258 26 1239 1 q 1276 93 1276 50 l 1276 388 q 1255 452 1276 425 q 1204 479 1233 479 q 1152 452 1174 479 q 1131 388 1131 425 z "},"^":{"ha":419,"x_min":40,"x_max":379,"o":"m 368 515 l 213 943 l 210 943 l 53 515 l 40 515 l 208 971 l 214 971 l 379 515 l 368 515 z "},"*":{"ha":346,"x_min":40,"x_max":306,"o":"m 40 883 l 78 938 l 168 843 l 142 971 l 206 971 l 178 843 l 269 938 l 306 885 l 183 836 l 306 785 l 271 732 l 178 826 l 206 697 l 142 697 l 168 826 l 78 732 l 42 786 l 164 836 l 40 883 z "},"#":{"ha":465,"x_min":40,"x_max":425,"o":"m 42 360 l 121 360 l 147 644 l 64 644 l 65 653 l 149 653 l 178 971 l 189 971 l 160 653 l 325 653 l 354 971 l 365 971 l 336 653 l 425 653 l 424 644 l 335 644 l 308 360 l 403 360 l 401 351 l 308 351 l 275 0 l 264 0 l 297 351 l 132 351 l 99 0 l 88 0 l 121 351 l 40 351 l 42 360 m 297 360 l 324 644 l 158 644 l 132 360 l 297 360 z "},"[":{"ha":292,"x_min":40,"x_max":253,"o":"m 40 -71 l 40 1063 l 253 1063 l 253 1054 l 185 1054 l 185 -62 l 253 -62 l 253 -71 l 40 -71 z "},"]":{"ha":292,"x_min":39,"x_max":251,"o":"m 251 1062 l 251 -71 l 39 -71 l 39 -62 l 107 -62 l 107 1054 l 39 1054 l 39 1062 l 251 1062 z "},"(":{"ha":364,"x_min":42,"x_max":325,"o":"m 317 1063 l 325 1063 q 186 496 186 818 q 325 -71 186 174 l 317 -71 q 202 40 253 -24 q 116 176 151 103 q 61 328 81 249 q 42 492 42 408 q 60 655 42 574 q 115 810 79 736 q 201 948 150 883 q 317 1063 253 1013 z "},")":{"ha":364,"x_min":39,"x_max":322,"o":"m 47 -71 l 39 -71 q 178 496 178 174 q 39 1062 178 818 l 47 1062 q 162 952 111 1015 q 248 816 213 889 q 303 663 283 743 q 322 500 322 583 q 303 337 322 418 q 249 182 285 256 q 163 44 214 108 q 47 -71 111 -21 z "},"{":{"ha":449,"x_min":40,"x_max":410,"o":"m 64 500 q 153 586 153 500 l 153 882 q 189 1021 153 979 q 308 1063 225 1063 l 410 1063 l 410 1054 l 401 1054 q 297 950 297 1054 l 297 669 q 96 497 297 497 l 96 494 q 297 322 297 494 l 297 40 q 401 -62 297 -62 l 410 -62 l 410 -71 l 308 -71 q 189 -29 225 -71 q 153 110 153 13 l 153 406 q 64 492 153 492 l 40 492 l 40 500 l 64 500 z "},"}":{"ha":450,"x_min":39,"x_max":408,"o":"m 385 492 q 296 406 296 492 l 296 110 q 260 -29 296 13 q 140 -71 224 -71 l 39 -71 l 39 -62 l 47 -62 q 151 42 151 -62 l 151 322 q 353 494 151 494 l 353 497 q 151 669 151 497 l 151 951 q 47 1054 151 1054 l 39 1054 l 39 1062 l 140 1062 q 260 1021 224 1062 q 296 882 296 979 l 296 586 q 385 500 296 500 l 408 500 l 408 492 l 385 492 z "},"&":{"ha":588,"x_min":40,"x_max":617,"o":"m 40 229 l 40 250 q 85 414 40 350 q 210 489 131 478 l 244 493 l 244 496 l 210 500 q 101 561 139 507 q 64 704 64 615 l 64 738 q 82 831 64 788 q 132 908 100 875 q 207 960 164 942 q 301 979 250 979 q 414 940 368 979 q 494 813 460 900 l 367 793 q 288 971 367 971 q 230 936 251 971 q 208 842 208 901 l 208 661 q 226 540 208 581 q 306 499 243 499 l 403 499 l 403 646 l 536 646 l 536 499 l 617 499 l 617 490 l 536 490 l 536 72 q 430 14 496 36 q 294 -8 364 -8 q 108 55 176 -8 q 40 229 40 118 m 194 142 q 222 36 194 72 q 300 0 249 0 q 371 19 339 0 q 403 64 403 38 l 403 490 l 306 490 q 253 481 275 490 q 219 450 232 472 q 200 392 206 428 q 194 303 194 356 l 194 142 z "},"˜":{"ha":349,"x_min":40,"x_max":308,"o":"m 49 832 l 40 835 q 138 915 78 915 q 176 907 156 915 l 218 888 q 239 880 229 882 q 256 878 249 878 q 301 911 288 878 l 308 907 q 215 824 271 824 q 168 835 193 824 l 143 847 q 113 859 124 856 q 90 863 101 863 q 49 832 64 863 z "},"+":{"ha":504,"x_min":40,"x_max":465,"o":"m 40 429 l 40 438 l 247 438 l 247 658 l 257 658 l 257 438 l 465 438 l 465 429 l 257 429 l 257 208 l 247 208 l 247 429 l 40 429 z "},"-":{"ha":382,"x_min":40,"x_max":343,"o":"m 343 438 l 343 429 l 40 429 l 40 438 l 343 438 z "},"–":{"ha":625,"x_min":40,"x_max":594,"o":"m 594 438 l 594 429 l 40 429 l 40 438 l 594 438 z "},"—":{"ha":883,"x_min":40,"x_max":858,"o":"m 858 438 l 858 429 l 40 429 l 40 438 l 858 438 z "},"_":{"ha":475,"x_min":42,"x_max":435,"o":"m 435 8 l 435 0 l 42 0 l 42 8 l 435 8 z "},"=":{"ha":503,"x_min":40,"x_max":463,"o":"m 463 517 l 463 508 l 40 508 l 40 517 l 463 517 m 463 351 l 463 343 l 40 343 l 40 351 l 463 351 z "},"•":{"ha":369,"x_min":40,"x_max":329,"o":"m 186 288 q 129 299 156 288 q 83 331 103 311 q 52 378 64 351 q 40 435 40 406 q 51 490 40 464 q 82 535 63 517 q 128 565 101 554 q 183 576 154 576 q 240 565 214 576 q 287 534 267 554 q 318 488 307 514 q 329 432 329 461 q 318 375 329 401 q 287 329 307 349 q 241 299 267 310 q 186 288 215 288 z "},"¡":{"ha":353,"x_min":72,"x_max":240,"o":"m 81 622 q 103 678 81 656 q 157 700 125 700 q 213 678 190 700 q 235 622 235 656 q 213 569 235 590 q 157 547 190 547 q 102 569 124 547 q 81 622 81 590 m 160 513 l 240 -237 l 72 -237 l 151 513 l 160 513 z "},"†":{"ha":536,"x_min":40,"x_max":496,"o":"m 285 733 l 496 733 l 496 725 l 285 725 l 274 -229 l 263 -229 l 251 725 l 40 725 l 40 733 l 251 733 l 249 971 l 288 971 l 285 733 z "},"‡":{"ha":536,"x_min":40,"x_max":496,"o":"m 282 733 l 496 733 l 496 725 l 282 725 l 274 369 l 282 18 l 496 18 l 496 10 l 282 10 l 288 -229 l 249 -229 l 254 10 l 40 10 l 40 18 l 254 18 l 263 369 l 254 725 l 40 725 l 40 733 l 254 733 l 249 971 l 288 971 l 282 733 z "},"ˆ":{"ha":351,"x_min":40,"x_max":311,"o":"m 172 947 l 181 947 l 311 793 l 303 793 l 175 864 l 49 793 l 40 793 l 172 947 z "},"°":{"ha":331,"x_min":40,"x_max":290,"o":"m 165 597 q 76 634 113 597 q 40 724 40 671 q 77 813 40 776 q 165 849 114 849 q 254 813 218 849 q 290 724 290 776 q 254 634 290 671 q 165 597 218 597 m 165 840 q 83 806 117 840 q 49 724 49 772 q 58 677 49 699 q 83 640 67 656 q 120 615 99 624 q 165 606 142 606 q 248 640 214 606 q 282 724 282 675 q 273 769 282 747 q 248 806 264 790 q 211 831 232 822 q 165 840 190 840 z "},"'":{"ha":188,"x_min":42,"x_max":147,"o":"m 42 971 l 147 971 l 99 701 l 90 701 l 42 971 z "},"\"":{"ha":347,"x_min":42,"x_max":307,"o":"m 42 971 l 147 971 l 99 701 l 90 701 l 42 971 m 201 971 l 307 971 l 258 701 l 250 701 l 201 971 z "},"‚":{"ha":240,"x_min":40,"x_max":200,"o":"m 164 3 q 113 -11 138 -11 q 60 10 81 -11 q 40 64 40 32 q 62 120 40 99 q 117 142 83 142 q 178 112 156 142 q 200 29 200 82 q 165 -81 200 -36 q 72 -137 131 -126 l 69 -129 q 118 -110 97 -124 q 152 -79 139 -97 q 169 -40 165 -61 q 164 3 172 -18 z "},"„":{"ha":457,"x_min":40,"x_max":417,"o":"m 164 3 q 113 -11 138 -11 q 60 10 81 -11 q 40 64 40 32 q 62 120 40 99 q 117 142 83 142 q 178 112 156 142 q 200 29 200 82 q 165 -81 200 -36 q 72 -137 131 -126 l 69 -129 q 118 -110 97 -124 q 152 -79 139 -97 q 169 -40 165 -61 q 164 3 172 -18 m 381 3 q 329 -11 354 -11 q 277 10 297 -11 q 257 64 257 32 q 278 120 257 99 q 333 142 300 142 q 394 112 372 142 q 417 29 417 82 q 382 -81 417 -36 q 289 -137 347 -126 l 286 -129 q 335 -110 314 -124 q 369 -79 356 -97 q 385 -40 382 -61 q 381 3 389 -18 z "},"~":{"ha":518,"x_min":40,"x_max":478,"o":"m 40 314 q 178 444 86 444 q 274 421 213 444 l 288 415 q 351 394 328 400 q 394 389 375 389 q 471 446 454 389 l 478 443 q 354 307 444 307 q 313 313 335 307 q 253 332 290 318 q 178 356 204 349 q 131 363 151 363 q 47 311 64 363 l 40 314 z "},"´":{"ha":226,"x_min":42,"x_max":186,"o":"m 42 793 l 83 949 l 186 949 l 50 793 l 42 793 z "},"`":{"ha":226,"x_min":40,"x_max":185,"o":"m 176 793 l 40 949 l 143 949 l 185 793 l 176 793 z "},"ˇ":{"ha":351,"x_min":40,"x_max":311,"o":"m 49 947 l 175 875 l 303 947 l 311 947 l 181 793 l 172 793 l 40 947 l 49 947 z "},"˘":{"ha":313,"x_min":42,"x_max":269,"o":"m 263 928 l 269 928 q 238 835 269 871 q 156 800 206 800 q 74 835 106 800 q 42 928 42 871 l 49 928 q 80 878 49 899 q 156 858 111 858 q 231 878 200 858 q 263 928 263 899 z "},"˝":{"ha":364,"x_min":44,"x_max":324,"o":"m 188 793 l 229 949 l 324 949 l 196 793 l 188 793 m 44 793 l 86 949 l 179 949 l 53 793 l 44 793 z "},"˙":{"ha":182,"x_min":40,"x_max":142,"o":"m 40 865 q 54 900 40 886 q 90 914 68 914 q 127 900 113 914 q 142 865 142 886 q 127 829 142 843 q 90 815 113 815 q 54 829 68 815 q 40 865 40 843 z "},"˛":{"ha":261,"x_min":39,"x_max":224,"o":"m 224 -111 q 179 -172 207 -150 q 119 -193 151 -193 q 63 -172 86 -193 q 39 -119 39 -150 q 66 -56 39 -87 q 143 3 93 -25 l 157 3 q 110 -40 125 -17 q 96 -87 96 -64 q 113 -139 96 -117 q 154 -161 131 -161 q 188 -148 171 -161 q 217 -107 204 -135 l 224 -111 z "},"¸":{"ha":285,"x_min":40,"x_max":244,"o":"m 46 -133 q 82 -158 61 -149 q 124 -168 103 -168 q 160 -156 147 -168 q 174 -124 174 -144 q 99 -67 174 -75 l 122 -6 l 132 -6 l 117 -46 q 209 -67 174 -46 q 244 -122 244 -89 q 219 -168 244 -150 q 154 -186 194 -186 q 90 -174 121 -186 q 40 -139 60 -161 l 46 -133 z "},"B":{"ha":565,"x_min":68,"x_max":533,"o":"m 514 718 q 501 633 514 671 q 468 569 489 596 q 419 525 447 542 q 361 504 392 508 l 340 501 l 340 499 l 361 496 q 428 470 397 490 q 483 419 460 450 q 519 350 506 389 q 533 269 533 311 l 533 228 q 519 145 533 186 q 477 72 504 104 q 410 20 450 40 q 322 0 371 0 l 68 0 l 68 971 l 303 971 q 385 955 347 971 q 452 910 424 939 q 497 841 481 881 q 514 754 514 801 l 514 718 m 288 504 q 352 544 335 504 q 369 679 369 585 l 369 793 q 352 925 369 888 q 283 963 335 963 l 213 963 l 213 504 l 288 504 m 389 318 q 362 453 389 410 q 288 496 335 496 l 213 496 l 213 8 l 297 8 q 369 49 349 8 q 389 182 389 90 l 389 318 z "},"C":{"ha":535,"x_min":60,"x_max":532,"o":"m 60 715 q 77 826 60 776 q 127 910 94 875 q 206 965 160 946 q 307 983 251 983 q 500 901 425 983 l 493 896 q 419 951 461 932 q 332 971 376 971 q 204 811 204 971 l 204 167 q 233 39 204 78 q 325 0 261 0 q 390 10 358 0 q 449 36 422 19 q 494 77 475 53 q 524 131 514 101 l 532 128 q 446 24 504 61 q 308 -12 388 -12 q 126 63 193 -12 q 60 265 60 138 l 60 715 z "},"A":{"ha":464,"x_min":-8,"x_max":471,"o":"m 186 971 l 224 971 l 471 0 l 322 0 l 244 303 l 64 303 l 4 0 l -8 0 l 186 971 m 65 311 l 242 311 l 146 708 l 143 708 l 65 311 z "},"±":{"ha":506,"x_min":40,"x_max":465,"o":"m 40 499 l 247 499 l 247 719 l 257 719 l 257 499 l 465 499 l 465 490 l 257 490 l 257 269 l 247 269 l 247 490 l 40 490 l 40 499 m 464 189 l 464 181 l 40 181 l 40 189 l 464 189 z "},"·":{"ha":197,"x_min":39,"x_max":164,"o":"m 39 453 q 56 498 39 481 q 101 515 74 515 q 146 498 128 515 q 164 453 164 481 q 146 408 164 426 q 101 390 128 390 q 56 408 74 390 q 39 453 39 426 z "},"¯":{"ha":325,"x_min":39,"x_max":285,"o":"m 285 863 l 39 863 l 39 871 l 285 871 l 285 863 z "},"F":{"ha":454,"x_min":68,"x_max":422,"o":"m 213 963 l 213 486 l 393 486 l 393 478 l 213 478 l 213 0 l 68 0 l 68 971 l 422 971 l 422 963 l 213 963 z "},"G":{"ha":596,"x_min":61,"x_max":543,"o":"m 61 715 q 128 911 61 839 q 315 983 196 983 q 514 903 442 983 l 508 897 q 350 967 447 967 q 238 926 278 967 q 197 811 197 886 l 197 153 q 332 -3 197 -3 q 376 1 354 -3 q 417 14 399 6 l 417 468 l 307 468 l 307 476 l 543 476 l 543 49 q 497 24 524 35 q 440 4 469 13 q 378 -8 410 -4 q 318 -12 347 -12 q 129 62 197 -12 q 61 265 61 136 l 61 715 z "},"¿":{"ha":549,"x_min":71,"x_max":478,"o":"m 438 622 q 416 568 438 590 q 363 546 394 546 q 307 568 329 546 q 285 622 285 590 q 307 678 285 656 q 363 700 329 700 q 416 678 394 700 q 438 622 438 656 m 478 -154 q 397 -213 447 -192 q 288 -235 346 -235 q 129 -175 188 -235 q 71 -15 71 -115 q 86 78 71 32 q 135 172 101 124 q 224 274 169 219 q 358 392 279 328 l 358 513 l 365 513 l 365 281 q 292 201 322 239 q 244 127 263 164 q 217 52 225 90 q 210 -32 210 14 q 331 -217 210 -217 q 407 -199 368 -217 q 471 -150 446 -181 l 478 -154 z "},"¶":{"ha":511,"x_min":40,"x_max":471,"o":"m 247 971 l 256 971 l 256 -42 l 247 -42 l 247 558 q 97 615 153 558 q 40 765 40 671 q 97 915 40 858 q 247 971 153 971 m 463 971 l 471 971 l 471 -42 l 463 -42 l 463 971 z "},"¬":{"ha":675,"x_min":40,"x_max":636,"o":"m 636 308 l 575 308 l 575 467 l 40 467 l 40 526 l 636 526 l 636 308 z "},"©":{"ha":954,"x_min":40,"x_max":915,"o":"m 40 478 q 74 672 40 582 q 167 829 108 763 q 306 934 226 896 q 478 972 386 972 q 649 934 569 972 q 788 829 729 896 q 881 672 847 763 q 915 478 915 582 q 881 285 915 375 q 788 128 847 194 q 649 23 729 61 q 478 -15 569 -15 q 306 23 386 -15 q 167 128 226 61 q 74 285 108 194 q 40 478 40 375 m 53 478 q 85 288 53 376 q 176 135 118 200 q 311 33 233 71 q 478 -4 389 -4 q 645 33 568 -4 q 780 135 722 71 q 870 288 838 200 q 903 478 903 376 q 870 669 903 581 q 780 822 838 757 q 645 924 722 886 q 478 961 568 961 q 311 924 389 961 q 176 821 233 886 q 85 667 118 756 q 53 478 53 579 m 272 561 q 288 646 272 607 q 333 713 304 685 q 400 758 361 742 q 485 774 439 774 q 578 755 533 774 q 656 704 624 736 l 650 699 q 584 744 625 726 q 506 763 543 763 q 438 735 463 763 q 413 661 413 708 l 413 300 q 441 222 413 251 q 518 192 469 192 q 567 200 542 192 q 614 222 592 208 q 654 256 636 236 q 682 299 672 276 l 689 294 q 610 211 661 242 q 492 181 558 181 q 404 197 444 181 q 335 241 364 213 q 289 309 306 269 q 272 394 272 349 l 272 561 z "},"®":{"ha":465,"x_min":40,"x_max":425,"o":"m 233 607 q 158 623 193 607 q 97 666 122 639 q 56 730 71 693 q 40 808 40 767 q 56 888 40 850 q 97 952 71 925 q 158 995 122 979 q 233 1011 193 1011 q 308 995 274 1011 q 369 952 343 979 q 410 888 394 925 q 425 808 425 850 q 410 730 425 767 q 369 666 394 693 q 308 623 343 639 q 233 607 274 607 m 233 615 q 304 631 271 615 q 363 672 338 646 q 402 734 388 699 q 417 808 417 769 q 402 884 417 849 q 363 946 388 919 q 304 988 338 972 q 233 1003 271 1003 q 162 988 196 1003 q 103 946 128 972 q 63 884 78 919 q 49 808 49 849 q 63 734 49 769 q 103 672 78 699 q 162 631 128 646 q 233 615 196 615 m 244 921 q 286 906 268 921 q 304 869 304 890 l 304 857 q 288 823 304 838 q 247 808 271 808 l 247 806 q 267 801 250 806 q 289 776 283 797 l 313 697 l 268 697 l 243 785 q 224 806 239 806 l 214 806 l 214 697 l 171 697 l 171 921 l 244 921 m 214 814 l 240 814 q 261 847 261 814 l 261 878 q 239 913 261 913 l 214 913 l 214 814 z "},"¢":{"ha":449,"x_min":47,"x_max":464,"o":"m 335 746 l 346 746 l 338 688 q 431 629 393 668 l 425 624 q 336 678 390 661 l 250 7 q 293 -1 269 -1 q 388 29 342 -1 q 457 104 435 60 l 464 101 q 385 18 438 49 q 268 -12 333 -12 q 247 -11 254 -12 l 240 -67 l 229 -67 l 236 -11 q 100 58 153 0 q 47 201 47 115 l 47 488 q 63 572 47 533 q 108 640 79 611 q 175 684 136 668 q 260 700 214 700 q 294 697 276 700 q 328 690 311 694 l 335 746 m 326 682 q 282 689 301 689 q 213 661 238 689 q 188 586 188 633 l 188 107 q 201 49 188 74 q 239 11 215 25 l 326 682 z "},"÷":{"ha":576,"x_min":40,"x_max":538,"o":"m 214 599 q 235 653 214 632 q 290 675 257 675 q 346 653 324 675 q 368 599 368 632 q 346 544 368 567 q 290 522 324 522 q 236 544 258 522 q 214 599 214 565 m 538 429 l 40 429 l 40 438 l 538 438 l 538 429 m 214 269 q 235 324 214 301 q 290 346 257 346 q 346 324 324 346 q 368 269 368 301 q 346 214 368 236 q 290 192 324 192 q 236 214 258 192 q 214 269 214 236 z "},"¤":{"ha":508,"x_min":40,"x_max":468,"o":"m 468 300 l 449 279 l 389 339 q 254 289 331 289 q 119 339 178 289 l 60 279 l 40 300 l 100 358 q 49 494 49 417 q 99 629 49 571 l 40 688 l 60 707 l 119 649 q 254 699 178 699 q 389 647 331 699 l 449 707 l 468 688 l 408 628 q 458 494 458 569 q 408 360 458 418 l 468 300 m 76 494 q 90 425 76 457 q 128 369 104 393 q 185 331 153 344 q 254 317 217 317 q 323 331 290 317 q 379 369 356 344 q 417 425 403 393 q 431 494 431 457 q 417 563 431 531 q 379 619 403 596 q 323 657 356 643 q 254 671 290 671 q 185 657 217 671 q 128 619 153 643 q 90 563 104 596 q 76 494 76 531 z "},"£":{"ha":589,"x_min":40,"x_max":549,"o":"m 151 531 l 151 758 q 207 924 151 864 q 361 983 263 983 q 465 966 414 983 q 549 919 517 949 l 543 914 q 478 953 517 938 q 404 968 440 968 q 324 936 353 968 q 296 849 296 904 l 296 531 l 460 531 l 460 522 l 296 522 l 296 428 q 249 211 296 310 q 99 11 201 113 l 97 8 l 522 8 l 522 0 l 88 0 l 88 10 q 121 74 108 42 q 140 148 133 106 q 149 248 147 190 q 151 386 151 306 l 151 522 l 40 522 l 40 531 l 151 531 z "},"×":{"ha":425,"x_min":40,"x_max":385,"o":"m 378 604 l 385 597 l 218 432 l 383 267 l 378 260 l 213 425 l 47 260 l 40 267 l 206 432 l 40 597 l 47 604 l 213 439 l 378 604 z "},"¦":{"ha":89,"x_min":40,"x_max":49,"o":"m 49 1013 l 49 567 l 40 567 l 40 1013 l 49 1013 m 40 -42 l 40 407 l 49 407 l 49 -42 l 40 -42 z "},"ª":{"ha":333,"x_min":47,"x_max":300,"o":"m 47 636 l 47 676 q 88 753 47 725 q 219 797 129 782 l 219 911 q 163 969 219 969 q 113 958 139 969 q 74 929 88 946 l 67 935 q 113 967 82 954 q 176 979 144 979 q 265 946 229 979 q 300 864 300 913 l 300 553 l 219 553 l 219 594 l 218 594 q 178 558 203 571 q 129 544 154 544 q 70 570 93 544 q 47 636 47 596 m 219 610 l 219 789 q 149 764 171 781 q 128 711 128 747 l 128 621 q 138 584 128 597 q 164 571 147 571 q 194 581 179 571 q 219 610 208 592 z "},"º":{"ha":336,"x_min":40,"x_max":296,"o":"m 167 979 q 217 969 193 979 q 258 943 240 960 q 285 904 275 926 q 296 857 296 882 l 296 674 q 286 627 296 649 q 259 589 276 606 q 219 563 242 572 q 171 553 196 553 q 121 563 144 553 q 79 589 97 572 q 51 627 61 606 q 40 674 40 649 l 40 857 q 51 904 40 882 q 78 943 61 926 q 119 969 96 960 q 167 979 142 979 m 169 971 q 136 956 149 971 q 124 915 124 940 l 124 615 q 136 576 124 590 q 169 561 149 561 q 201 576 189 561 q 213 615 213 590 l 213 915 q 169 971 213 971 z "},"ß":{"ha":564,"x_min":68,"x_max":531,"o":"m 213 0 l 68 0 l 68 783 q 85 865 68 828 q 131 928 101 901 q 201 969 160 954 q 290 983 242 983 q 379 969 339 983 q 449 928 419 954 q 494 865 478 901 q 510 783 510 828 l 510 771 q 498 699 510 733 q 466 638 486 665 q 418 594 446 611 q 358 572 390 576 l 338 569 l 338 567 l 358 564 q 427 537 396 558 q 481 482 458 515 q 517 406 504 449 q 531 313 531 363 l 531 292 q 473 76 531 153 q 313 0 415 0 l 261 0 l 261 8 l 299 8 q 365 52 344 8 q 386 190 386 96 l 386 400 q 360 519 386 475 q 289 564 333 564 l 261 564 l 261 572 l 285 572 q 345 613 324 572 q 367 731 367 653 l 367 806 q 349 935 367 894 q 290 975 331 975 q 231 935 250 975 q 213 806 213 894 l 213 0 z "},"−":{"ha":504,"x_min":40,"x_max":464,"o":"m 464 438 l 464 429 l 40 429 l 40 438 l 464 438 z "},"V":{"ha":453,"x_min":-8,"x_max":458,"o":"m 301 268 l 304 268 l 447 971 l 458 971 l 257 0 l 219 0 l -8 971 l 140 971 l 301 268 z "},"P":{"ha":557,"x_min":68,"x_max":528,"o":"m 304 971 q 394 953 353 971 q 465 903 435 935 q 511 831 494 872 q 528 743 528 790 l 528 696 q 511 607 528 649 q 465 534 494 565 q 396 485 436 503 q 307 467 356 467 l 213 467 l 213 0 l 68 0 l 68 971 l 304 971 m 383 785 q 361 921 383 879 q 289 963 339 963 l 213 963 l 213 475 l 296 475 q 363 517 343 475 q 383 653 383 560 l 383 785 z "},"b":{"ha":517,"x_min":56,"x_max":472,"o":"m 56 971 l 192 971 l 192 618 l 193 618 q 235 681 208 663 q 297 700 261 700 q 363 684 332 700 q 419 640 394 668 q 458 576 443 613 q 472 500 472 540 l 472 176 q 458 103 472 138 q 421 44 444 69 q 367 3 397 18 q 301 -12 336 -12 q 193 72 225 -12 l 192 72 l 192 0 l 56 0 l 56 971 m 192 119 q 199 78 192 99 q 217 40 206 57 q 242 13 228 24 q 272 3 257 3 q 315 27 297 3 q 332 88 332 51 l 332 604 q 315 663 332 640 q 274 686 297 686 q 242 676 257 686 q 217 650 228 667 q 199 612 206 633 q 192 567 192 590 l 192 119 z "},"g":{"ha":510,"x_min":29,"x_max":513,"o":"m 247 -243 q 156 -229 197 -243 q 85 -191 114 -215 q 43 -133 57 -167 q 32 -57 29 -99 l 108 -57 q 143 -185 103 -136 q 251 -235 183 -235 q 316 -223 285 -235 q 372 -192 347 -211 q 413 -149 397 -174 q 428 -99 428 -124 q 406 -44 428 -65 q 347 -24 383 -24 l 172 -24 q 80 6 114 -24 q 46 86 46 35 q 144 235 46 169 q 76 308 100 263 q 51 406 51 353 l 51 511 q 67 585 51 550 q 108 645 82 619 q 171 686 135 671 q 247 701 207 701 q 330 685 289 701 q 401 640 371 668 q 437 694 411 675 q 500 713 463 713 l 500 629 q 440 640 471 640 q 407 633 421 640 q 454 518 454 583 l 454 400 q 400 258 454 313 q 258 203 346 203 q 154 229 200 203 q 94 157 94 197 q 181 115 94 115 l 382 115 q 476 74 440 115 q 513 -29 513 33 q 492 -114 513 -75 q 437 -181 472 -153 q 353 -226 401 -210 q 247 -243 304 -243 m 190 288 q 208 233 190 254 q 254 211 226 211 q 298 232 282 211 q 314 288 314 253 l 314 615 q 297 670 314 649 q 253 692 279 692 q 208 670 225 692 q 190 615 190 649 l 190 288 z "},"˚":{"ha":232,"x_min":39,"x_max":192,"o":"m 39 875 q 61 929 39 907 q 115 951 83 951 q 169 929 147 951 q 192 875 192 907 q 169 821 192 843 q 115 799 147 799 q 61 821 83 799 q 39 875 39 843 m 47 875 q 67 827 47 847 q 115 807 88 807 q 163 827 143 807 q 183 875 183 847 q 164 923 183 903 q 115 943 144 943 q 67 923 88 943 q 47 875 47 903 z "},"¨":{"ha":335,"x_min":40,"x_max":294,"o":"m 40 865 q 54 901 40 888 q 90 915 68 915 q 127 901 113 915 q 142 865 142 888 q 127 830 142 844 q 90 815 113 815 q 54 830 68 815 q 40 865 40 844 m 193 865 q 208 901 193 886 q 244 915 222 915 q 281 901 267 915 q 294 865 294 888 q 281 829 294 843 q 244 815 267 815 q 208 830 222 815 q 193 865 193 844 z "},"ð":{"ha":519,"x_min":47,"x_max":483,"o":"m 211 971 q 308 927 264 957 q 385 857 351 897 l 481 892 l 483 885 l 389 850 q 444 748 425 804 q 463 629 463 692 l 463 190 q 447 111 463 149 q 403 47 431 74 q 338 3 375 19 q 258 -12 301 -12 q 177 3 215 -12 q 110 47 139 19 q 64 112 81 75 q 47 190 47 149 l 47 500 q 62 577 47 540 q 101 641 76 614 q 158 684 125 668 q 228 700 190 700 q 287 681 264 700 q 325 618 310 663 l 328 618 l 328 658 q 324 749 328 708 q 313 822 321 790 l 221 789 l 218 797 l 311 831 q 208 963 285 936 l 211 971 m 246 688 q 204 665 221 688 q 188 606 188 642 l 188 88 q 206 19 188 43 q 257 -4 224 -4 q 309 20 290 -4 q 328 88 328 44 l 328 568 q 321 613 328 592 q 303 651 314 635 q 276 678 292 668 q 246 688 261 688 z "},"R":{"ha":604,"x_min":68,"x_max":556,"o":"m 304 971 q 393 953 353 971 q 464 903 433 935 q 511 831 494 872 q 528 743 528 790 l 528 710 q 513 626 528 665 q 472 556 499 586 q 409 506 446 525 q 328 482 372 486 l 328 478 q 375 467 351 478 q 418 440 399 457 q 452 399 438 422 q 472 351 467 376 l 556 0 l 408 0 l 324 371 q 309 428 315 407 q 294 461 303 450 q 276 476 286 472 q 250 481 265 481 l 213 481 l 213 0 l 68 0 l 68 971 l 304 971 m 383 785 q 361 921 383 879 q 289 963 339 963 l 213 963 l 213 489 l 294 489 q 363 531 343 489 q 383 667 383 574 l 383 785 z "},"d":{"ha":518,"x_min":47,"x_max":463,"o":"m 328 72 l 325 72 q 217 -12 294 -12 q 152 3 183 -12 q 98 44 121 18 q 61 103 75 69 q 47 176 47 138 l 47 500 q 62 577 47 540 q 100 641 76 614 q 156 684 124 668 q 222 700 188 700 q 325 618 297 700 l 328 618 l 328 971 l 463 971 l 463 0 l 328 0 l 328 72 m 328 568 q 321 613 328 592 q 303 651 314 635 q 276 678 292 668 q 246 688 261 688 q 204 665 221 688 q 188 606 188 642 l 188 88 q 205 27 188 51 q 247 3 222 3 q 277 13 263 3 q 303 40 292 24 q 321 78 314 57 q 328 119 328 99 l 328 568 z "},"½":{"ha":536,"x_min":39,"x_max":496,"o":"m 81 944 l 43 926 l 39 933 l 113 971 l 140 971 l 140 553 l 81 553 l 81 944 m 357 971 l 368 971 l 132 0 l 121 0 l 357 971 m 311 392 q 350 418 326 408 q 399 428 374 428 q 469 401 443 428 q 496 329 496 374 q 438 211 496 268 l 385 164 q 339 109 354 133 q 317 58 324 85 l 494 58 l 494 0 l 303 0 q 319 108 303 58 q 372 211 336 157 l 385 231 q 425 297 414 272 q 436 346 436 322 q 421 397 436 378 q 381 417 406 417 q 317 388 346 417 l 311 392 z "},"O":{"ha":615,"x_min":60,"x_max":557,"o":"m 60 718 q 78 826 60 776 q 129 910 96 875 q 208 964 163 944 q 310 983 254 983 q 410 964 365 983 q 488 910 456 944 q 539 826 521 875 q 557 718 557 778 l 557 264 q 539 151 557 201 q 488 64 521 100 q 410 8 456 28 q 308 -12 364 -12 q 207 8 253 -12 q 128 64 161 28 q 78 151 96 100 q 60 264 60 201 l 60 718 m 204 157 q 308 -4 204 -4 q 413 157 413 -4 l 413 814 q 388 936 413 897 q 310 975 363 975 q 204 814 204 975 l 204 157 z "},"¾":{"ha":553,"x_min":40,"x_max":513,"o":"m 47 944 q 129 981 79 981 q 200 953 172 981 q 228 883 228 926 l 228 867 q 160 774 228 789 l 160 771 q 214 741 194 764 q 233 678 233 718 l 233 656 q 203 578 233 607 q 124 550 174 550 q 40 576 74 550 l 44 583 q 78 566 60 572 q 113 560 97 560 q 155 581 140 560 q 169 660 169 601 l 169 675 q 155 747 169 726 q 104 768 140 768 l 104 776 q 152 797 139 776 q 165 865 165 817 l 165 882 q 152 949 165 929 q 115 969 139 969 q 54 939 81 969 l 47 944 m 318 110 l 453 418 l 481 418 l 481 128 l 513 128 l 513 81 l 481 81 l 481 0 l 421 0 l 421 81 l 318 81 l 318 110 m 417 318 l 338 129 l 338 128 l 421 128 l 421 318 l 417 318 m 419 971 l 431 971 l 194 0 l 183 0 l 419 971 z "},"Þ":{"ha":557,"x_min":68,"x_max":528,"o":"m 213 971 l 213 738 l 318 738 q 471 676 414 738 q 528 513 528 615 l 528 463 q 512 369 528 411 q 468 297 496 328 q 401 250 440 267 q 314 233 361 233 l 213 233 l 213 0 l 68 0 l 68 971 l 213 971 m 383 576 q 363 690 383 651 q 303 729 343 729 l 213 729 l 213 242 l 303 242 q 363 283 342 242 q 383 403 383 324 l 383 576 z "},"þ":{"ha":521,"x_min":58,"x_max":475,"o":"m 58 971 l 193 971 l 193 615 l 196 615 q 236 680 211 660 q 300 700 261 700 q 368 685 336 700 q 424 644 400 669 q 461 584 447 618 q 475 511 475 550 l 475 188 q 460 111 475 147 q 422 47 446 75 q 365 3 397 19 q 294 -12 332 -12 q 235 6 258 -12 q 196 69 211 25 l 193 69 l 193 -233 l 58 -233 l 58 971 m 193 119 q 200 76 193 97 q 219 38 207 54 q 245 10 231 21 q 276 0 260 0 q 318 23 301 0 q 335 82 335 46 l 335 600 q 317 660 335 636 q 275 685 300 685 q 245 674 260 685 q 219 647 231 664 q 200 610 207 631 q 193 568 193 589 l 193 119 z "},"ƒ":{"ha":340,"x_min":-103,"x_max":442,"o":"m 40 -232 q -103 -187 -35 -232 l -100 -182 q 6 -218 -39 -218 q 75 -186 49 -218 q 101 -101 101 -154 l 101 371 l -28 371 l -28 379 l 101 379 l 101 776 q 116 860 101 822 q 157 925 131 897 q 220 968 183 953 q 300 983 257 983 q 442 939 372 983 l 438 932 q 339 968 382 968 q 265 935 293 968 q 236 850 236 903 l 236 379 l 365 379 l 365 371 l 236 371 l 236 -15 q 222 -103 236 -64 q 182 -172 208 -143 q 120 -216 156 -200 q 40 -232 85 -232 z "},"§":{"ha":519,"x_min":36,"x_max":517,"o":"m 38 408 q 52 470 38 442 q 92 519 67 499 q 151 553 117 540 q 224 565 185 565 q 297 553 263 565 l 193 721 q 158 826 158 776 q 173 888 158 860 q 213 938 188 917 q 272 972 238 960 q 344 983 306 983 q 493 928 431 983 l 488 922 q 378 969 436 969 q 313 946 338 969 q 288 885 288 922 q 318 797 288 844 l 486 519 q 517 428 517 469 q 501 367 517 396 q 460 318 486 339 q 399 285 433 297 q 324 272 364 272 q 256 282 286 272 l 365 101 q 396 8 396 54 q 381 -52 396 -24 q 339 -101 365 -81 q 278 -135 313 -122 q 203 -147 243 -147 q 112 -130 154 -147 q 36 -78 69 -112 l 42 -72 q 107 -119 71 -101 q 176 -136 143 -136 q 237 -113 214 -136 q 260 -54 260 -90 q 249 3 260 -29 q 215 71 238 36 l 72 303 q 38 408 38 358 m 167 469 q 180 409 167 443 q 217 340 193 375 l 249 292 q 294 283 274 283 q 355 310 329 283 q 381 374 381 338 q 368 431 381 397 q 333 499 356 464 l 304 542 q 257 551 283 551 q 192 528 217 551 q 167 469 167 506 z "},"​":{"ha":1389,"x_min":0,"x_max":0,"o":""}," ":{"ha":257,"x_min":0,"x_max":0,"o":""},"­":{"ha":504,"x_min":40,"x_max":464,"o":"m 464 438 l 464 429 l 40 429 l 40 438 l 464 438 z "},"":{"ha":1389,"x_min":0,"x_max":0,"o":""},"∕":{"ha":376,"x_min":40,"x_max":335,"o":"m 324 1042 l 335 1042 l 51 -124 l 40 -124 l 324 1042 z "},"y":{"ha":447,"x_min":18,"x_max":429,"o":"m 160 689 l 278 256 l 290 214 l 293 214 l 418 689 l 429 689 l 178 -243 l 167 -243 l 232 0 l 213 0 l 18 689 l 160 689 z "},"@":{"ha":1078,"x_min":40,"x_max":1038,"o":"m 581 78 q 454 -10 551 -10 q 333 44 374 -10 q 301 189 292 97 l 326 447 q 347 521 331 486 q 390 581 364 556 q 450 622 417 607 q 519 636 483 636 q 581 616 558 636 q 617 551 604 596 l 619 551 l 625 622 l 761 622 l 715 115 q 729 35 711 63 q 790 7 747 7 q 877 36 835 7 q 953 114 919 65 q 1006 226 986 163 q 1026 361 1026 290 q 988 540 1026 456 q 885 689 950 625 q 731 790 819 753 q 539 826 642 826 q 346 787 435 826 q 191 678 257 747 q 88 516 125 610 q 51 313 51 422 q 88 108 51 203 q 190 -55 125 14 q 344 -163 256 -124 q 538 -203 433 -203 q 690 -181 615 -203 q 829 -114 764 -158 l 833 -124 q 693 -191 768 -168 q 539 -214 618 -214 q 342 -174 433 -214 q 183 -62 250 -133 q 78 104 117 8 q 40 311 40 200 q 78 519 40 424 q 183 686 117 615 q 342 797 250 757 q 539 838 433 838 q 733 799 643 838 q 892 695 824 761 q 999 541 960 629 q 1038 353 1038 453 q 1013 207 1038 275 q 948 89 989 139 q 852 10 907 39 q 735 -19 797 -19 q 647 -1 685 -19 q 593 51 610 18 l 583 78 l 581 78 m 436 131 q 442 37 429 65 q 486 8 454 8 q 549 38 522 8 q 579 110 575 67 l 613 472 q 612 530 615 503 q 599 577 608 557 q 575 609 589 597 q 544 621 561 621 q 497 592 517 621 q 472 515 476 563 l 436 131 z "},"μ":{"ha":515,"x_min":47,"x_max":469,"o":"m 235 -7 q 190 -1 214 -11 l 190 -265 l 47 -265 l 47 688 l 190 688 l 190 81 q 235 6 190 6 q 271 19 253 6 q 303 54 289 33 q 326 100 317 75 q 335 147 335 125 l 335 688 l 469 688 l 469 0 l 335 0 l 335 101 l 332 101 q 235 -7 297 7 z "},"™":{"ha":460,"x_min":40,"x_max":419,"o":"m 419 971 l 419 688 l 375 688 l 375 943 l 372 943 l 325 688 l 301 688 l 239 943 l 236 943 l 236 688 l 226 688 l 226 971 l 283 971 l 329 775 l 332 775 l 369 971 l 419 971 m 192 963 l 139 963 l 139 688 l 94 688 l 94 963 l 40 963 l 40 971 l 192 971 l 192 963 z "},"Á":{"ha":464,"x_min":-8,"x_max":471,"o":"m 186 971 l 224 971 l 471 0 l 322 0 l 244 303 l 64 303 l 4 0 l -8 0 l 186 971 m 65 311 l 242 311 l 146 708 l 143 708 l 65 311 m 185 1031 l 226 1186 l 329 1186 l 193 1031 l 185 1031 z "},"À":{"ha":464,"x_min":-8,"x_max":471,"o":"m 186 971 l 224 971 l 471 0 l 322 0 l 244 303 l 64 303 l 4 0 l -8 0 l 186 971 m 65 311 l 242 311 l 146 708 l 143 708 l 65 311 m 218 1031 l 82 1186 l 185 1186 l 226 1031 l 218 1031 z "},"Â":{"ha":464,"x_min":-8,"x_max":471,"o":"m 186 971 l 224 971 l 471 0 l 322 0 l 244 303 l 64 303 l 4 0 l -8 0 l 186 971 m 65 311 l 242 311 l 146 708 l 143 708 l 65 311 m 203 1185 l 211 1185 l 342 1031 l 333 1031 l 206 1101 l 79 1031 l 71 1031 l 203 1185 z "},"³":{"ha":272,"x_min":40,"x_max":233,"o":"m 47 944 q 129 981 79 981 q 200 953 172 981 q 228 883 228 926 l 228 867 q 160 774 228 789 l 160 771 q 214 741 194 764 q 233 678 233 718 l 233 656 q 203 578 233 607 q 124 550 174 550 q 40 576 74 550 l 44 583 q 78 566 60 572 q 113 560 97 560 q 155 581 140 560 q 169 660 169 601 l 169 675 q 155 747 169 726 q 104 768 140 768 l 104 776 q 152 797 139 776 q 165 865 165 817 l 165 882 q 152 949 165 929 q 115 969 139 969 q 54 939 81 969 l 47 944 z "},"Ä":{"ha":464,"x_min":-8,"x_max":471,"o":"m 186 971 l 224 971 l 471 0 l 322 0 l 244 303 l 64 303 l 4 0 l -8 0 l 186 971 m 65 311 l 242 311 l 146 708 l 143 708 l 65 311 m 79 1103 q 93 1139 79 1125 q 129 1153 107 1153 q 166 1139 151 1153 q 181 1103 181 1125 q 166 1067 181 1082 q 129 1053 151 1053 q 93 1067 107 1053 q 79 1103 79 1082 m 232 1103 q 247 1138 232 1124 q 283 1153 261 1153 q 319 1139 306 1153 q 333 1103 333 1125 q 319 1067 333 1081 q 283 1053 306 1053 q 247 1067 261 1053 q 232 1103 232 1082 z "},"Ă":{"ha":464,"x_min":-8,"x_max":471,"o":"m 186 971 l 224 971 l 471 0 l 322 0 l 244 303 l 64 303 l 4 0 l -8 0 l 186 971 m 65 311 l 242 311 l 146 708 l 143 708 l 65 311 m 313 1165 l 319 1165 q 288 1073 319 1108 q 206 1038 256 1038 q 124 1073 156 1038 q 92 1165 92 1108 l 99 1165 q 130 1116 99 1136 q 206 1096 161 1096 q 281 1116 250 1096 q 313 1165 313 1136 z "},"Ā":{"ha":464,"x_min":-8,"x_max":471,"o":"m 186 971 l 224 971 l 471 0 l 322 0 l 244 303 l 64 303 l 4 0 l -8 0 l 186 971 m 65 311 l 242 311 l 146 708 l 143 708 l 65 311 m 328 1100 l 82 1100 l 82 1108 l 328 1108 l 328 1100 z "},"Ą":{"ha":464,"x_min":-8,"x_max":471,"o":"m 186 971 l 224 971 l 471 0 l 322 0 l 244 303 l 64 303 l 4 0 l -8 0 l 186 971 m 65 311 l 242 311 l 146 708 l 143 708 l 65 311 m 406 -110 q 361 -170 389 -149 q 301 -192 333 -192 q 244 -170 268 -192 q 221 -118 221 -149 q 248 -55 221 -86 q 325 4 275 -24 l 339 4 q 292 -39 307 -15 q 278 -86 278 -62 q 295 -137 278 -115 q 336 -160 313 -160 q 369 -147 353 -160 q 399 -106 386 -133 l 406 -110 z "},"Å":{"ha":464,"x_min":-8,"x_max":471,"o":"m 186 971 l 224 971 l 471 0 l 322 0 l 244 303 l 64 303 l 4 0 l -8 0 l 186 971 m 65 311 l 242 311 l 146 708 l 143 708 l 65 311 m 129 1113 q 151 1167 129 1144 q 206 1189 174 1189 q 260 1167 238 1189 q 282 1113 282 1144 q 260 1058 282 1081 q 206 1036 238 1036 q 151 1058 174 1036 q 129 1113 129 1081 m 138 1113 q 158 1065 138 1085 q 206 1044 178 1044 q 253 1065 233 1044 q 274 1113 274 1085 q 254 1160 274 1140 q 206 1181 235 1181 q 158 1160 178 1181 q 138 1113 138 1140 z "},"Ã":{"ha":464,"x_min":-8,"x_max":471,"o":"m 186 971 l 224 971 l 471 0 l 322 0 l 244 303 l 64 303 l 4 0 l -8 0 l 186 971 m 65 311 l 242 311 l 146 708 l 143 708 l 65 311 m 82 1069 l 74 1072 q 171 1153 111 1153 q 210 1144 189 1153 l 251 1125 q 272 1117 263 1119 q 289 1115 282 1115 q 335 1149 321 1115 l 342 1144 q 249 1061 304 1061 q 201 1072 226 1061 l 176 1085 q 146 1097 157 1093 q 124 1100 135 1100 q 82 1069 97 1100 z "},"Æ":{"ha":646,"x_min":-36,"x_max":611,"o":"m 611 971 l 611 963 l 404 963 l 404 500 l 582 500 l 582 492 l 404 492 l 404 8 l 611 8 l 611 0 l 260 0 l 260 301 l 60 301 l -25 0 l -36 0 l 238 971 l 611 971 m 63 310 l 260 310 l 260 961 l 247 961 l 63 310 z "},"Ǽ":{"ha":646,"x_min":-36,"x_max":611,"o":"m 611 971 l 611 963 l 404 963 l 404 500 l 582 500 l 582 492 l 404 492 l 404 8 l 611 8 l 611 0 l 260 0 l 260 301 l 60 301 l -25 0 l -36 0 l 238 971 l 611 971 m 63 310 l 260 310 l 260 961 l 247 961 l 63 310 m 403 1031 l 444 1186 l 547 1186 l 411 1031 l 403 1031 z "},"Ć":{"ha":535,"x_min":60,"x_max":532,"o":"m 60 715 q 77 826 60 776 q 127 910 94 875 q 206 965 160 946 q 307 983 251 983 q 500 901 425 983 l 493 896 q 419 951 461 932 q 332 971 376 971 q 204 811 204 971 l 204 167 q 233 39 204 78 q 325 0 261 0 q 390 10 358 0 q 449 36 422 19 q 494 77 475 53 q 524 131 514 101 l 532 128 q 446 24 504 61 q 308 -12 388 -12 q 126 63 193 -12 q 60 265 60 138 l 60 715 m 281 1031 l 322 1186 l 425 1186 l 289 1031 l 281 1031 z "},"Č":{"ha":535,"x_min":60,"x_max":532,"o":"m 60 715 q 77 826 60 776 q 127 910 94 875 q 206 965 160 946 q 307 983 251 983 q 500 901 425 983 l 493 896 q 419 951 461 932 q 332 971 376 971 q 204 811 204 971 l 204 167 q 233 39 204 78 q 325 0 261 0 q 390 10 358 0 q 449 36 422 19 q 494 77 475 53 q 524 131 514 101 l 532 128 q 446 24 504 61 q 308 -12 388 -12 q 126 63 193 -12 q 60 265 60 138 l 60 715 m 175 1185 l 301 1113 l 429 1185 l 438 1185 l 307 1031 l 299 1031 l 167 1185 l 175 1185 z "},"Ĉ":{"ha":535,"x_min":60,"x_max":532,"o":"m 60 715 q 77 826 60 776 q 127 910 94 875 q 206 965 160 946 q 307 983 251 983 q 500 901 425 983 l 493 896 q 419 951 461 932 q 332 971 376 971 q 204 811 204 971 l 204 167 q 233 39 204 78 q 325 0 261 0 q 390 10 358 0 q 449 36 422 19 q 494 77 475 53 q 524 131 514 101 l 532 128 q 446 24 504 61 q 308 -12 388 -12 q 126 63 193 -12 q 60 265 60 138 l 60 715 m 300 1185 l 308 1185 l 439 1031 l 431 1031 l 303 1101 l 176 1031 l 168 1031 l 300 1185 z "},"Ď":{"ha":585,"x_min":75,"x_max":529,"o":"m 75 971 l 307 971 q 398 952 357 971 q 468 899 439 933 q 513 818 497 865 q 529 714 529 771 l 529 256 q 513 153 529 200 q 468 73 497 107 q 399 19 439 39 q 313 0 360 0 l 75 0 l 75 971 m 211 8 l 292 8 q 393 168 393 8 l 393 804 q 365 922 393 881 q 282 963 336 963 l 211 963 l 211 8 m 129 1185 l 256 1113 l 383 1185 l 392 1185 l 261 1031 l 253 1031 l 121 1185 l 129 1185 z "},"Đ":{"ha":585,"x_min":6,"x_max":529,"o":"m 75 971 l 307 971 q 398 952 357 971 q 468 899 439 933 q 513 818 497 865 q 529 714 529 771 l 529 256 q 513 153 529 200 q 468 73 497 107 q 399 19 439 39 q 313 0 360 0 l 75 0 l 75 971 m 211 8 l 292 8 q 393 168 393 8 l 393 804 q 365 922 393 881 q 282 963 336 963 l 211 963 l 211 8 m 6 490 l 301 490 l 301 482 l 6 482 l 6 490 z "},"Ð":{"ha":585,"x_min":6,"x_max":529,"o":"m 75 971 l 307 971 q 398 952 357 971 q 468 899 439 933 q 513 818 497 865 q 529 714 529 771 l 529 256 q 513 153 529 200 q 468 73 497 107 q 399 19 439 39 q 313 0 360 0 l 75 0 l 75 971 m 211 8 l 292 8 q 393 168 393 8 l 393 804 q 365 922 393 881 q 282 963 336 963 l 211 963 l 211 8 m 6 490 l 301 490 l 301 482 l 6 482 l 6 490 z "},"É":{"ha":453,"x_min":68,"x_max":419,"o":"m 419 971 l 419 963 l 213 963 l 213 500 l 390 500 l 390 492 l 213 492 l 213 8 l 419 8 l 419 0 l 68 0 l 68 971 l 419 971 m 226 1031 l 268 1186 l 371 1186 l 235 1031 l 226 1031 z "},"Ĕ":{"ha":453,"x_min":68,"x_max":419,"o":"m 419 971 l 419 963 l 213 963 l 213 500 l 390 500 l 390 492 l 213 492 l 213 8 l 419 8 l 419 0 l 68 0 l 68 971 l 419 971 m 356 1165 l 363 1165 q 331 1073 363 1108 q 249 1038 299 1038 q 167 1073 199 1038 q 135 1165 135 1108 l 142 1165 q 173 1116 142 1136 q 249 1096 204 1096 q 324 1116 293 1096 q 356 1165 356 1136 z "},"Ě":{"ha":453,"x_min":68,"x_max":419,"o":"m 419 971 l 419 963 l 213 963 l 213 500 l 390 500 l 390 492 l 213 492 l 213 8 l 419 8 l 419 0 l 68 0 l 68 971 l 419 971 m 121 1185 l 247 1113 l 375 1185 l 383 1185 l 253 1031 l 244 1031 l 113 1185 l 121 1185 z "},"Ê":{"ha":453,"x_min":68,"x_max":419,"o":"m 419 971 l 419 963 l 213 963 l 213 500 l 390 500 l 390 492 l 213 492 l 213 8 l 419 8 l 419 0 l 68 0 l 68 971 l 419 971 m 246 1185 l 254 1185 l 385 1031 l 376 1031 l 249 1101 l 122 1031 l 114 1031 l 246 1185 z "},"Ë":{"ha":453,"x_min":68,"x_max":419,"o":"m 419 971 l 419 963 l 213 963 l 213 500 l 390 500 l 390 492 l 213 492 l 213 8 l 419 8 l 419 0 l 68 0 l 68 971 l 419 971 m 122 1103 q 136 1139 122 1125 q 172 1153 150 1153 q 209 1139 194 1153 q 224 1103 224 1125 q 209 1067 224 1082 q 172 1053 194 1053 q 136 1067 150 1053 q 122 1103 122 1082 m 275 1103 q 290 1138 275 1124 q 326 1153 304 1153 q 363 1139 349 1153 q 376 1103 376 1125 q 363 1067 376 1081 q 326 1053 349 1053 q 290 1067 304 1053 q 275 1103 275 1082 z "},"È":{"ha":453,"x_min":68,"x_max":419,"o":"m 419 971 l 419 963 l 213 963 l 213 500 l 390 500 l 390 492 l 213 492 l 213 8 l 419 8 l 419 0 l 68 0 l 68 971 l 419 971 m 261 1031 l 125 1186 l 228 1186 l 269 1031 l 261 1031 z "},"Ē":{"ha":453,"x_min":68,"x_max":419,"o":"m 419 971 l 419 963 l 213 963 l 213 500 l 390 500 l 390 492 l 213 492 l 213 8 l 419 8 l 419 0 l 68 0 l 68 971 l 419 971 m 371 1100 l 125 1100 l 125 1108 l 371 1108 l 371 1100 z "},"Ę":{"ha":453,"x_min":68,"x_max":421,"o":"m 419 971 l 419 963 l 213 963 l 213 500 l 390 500 l 390 492 l 213 492 l 213 8 l 419 8 l 419 0 l 68 0 l 68 971 l 419 971 m 421 -110 q 376 -170 404 -149 q 317 -192 349 -192 q 260 -170 283 -192 q 236 -118 236 -149 q 263 -55 236 -86 q 340 4 290 -24 l 354 4 q 308 -39 322 -15 q 293 -86 293 -62 q 310 -137 293 -115 q 351 -160 328 -160 q 385 -147 368 -160 q 414 -106 401 -133 l 421 -110 z "},"Ğ":{"ha":597,"x_min":61,"x_max":543,"o":"m 61 715 q 128 911 61 839 q 315 983 196 983 q 514 903 442 983 l 508 897 q 350 967 447 967 q 238 926 278 967 q 197 811 197 886 l 197 153 q 332 -3 197 -3 q 376 1 354 -3 q 417 14 399 6 l 417 468 l 307 468 l 307 476 l 543 476 l 543 49 q 497 24 524 35 q 440 4 469 13 q 378 -8 410 -4 q 318 -12 347 -12 q 129 62 197 -12 q 61 265 61 136 l 61 715 m 415 1165 l 422 1165 q 390 1073 422 1108 q 308 1038 358 1038 q 226 1073 258 1038 q 194 1165 194 1108 l 201 1165 q 233 1116 201 1136 q 308 1096 264 1096 q 384 1116 353 1096 q 415 1165 415 1136 z "},"Ĝ":{"ha":597,"x_min":61,"x_max":543,"o":"m 61 715 q 128 911 61 839 q 315 983 196 983 q 514 903 442 983 l 508 897 q 350 967 447 967 q 238 926 278 967 q 197 811 197 886 l 197 153 q 332 -3 197 -3 q 376 1 354 -3 q 417 14 399 6 l 417 468 l 307 468 l 307 476 l 543 476 l 543 49 q 497 24 524 35 q 440 4 469 13 q 378 -8 410 -4 q 318 -12 347 -12 q 129 62 197 -12 q 61 265 61 136 l 61 715 m 306 1185 l 314 1185 l 444 1031 l 436 1031 l 308 1101 l 182 1031 l 174 1031 l 306 1185 z "},"Ħ":{"ha":624,"x_min":13,"x_max":614,"o":"m 213 971 l 213 732 l 414 732 l 414 971 l 557 971 l 557 732 l 614 732 l 614 724 l 557 724 l 557 0 l 414 0 l 414 481 l 213 481 l 213 0 l 69 0 l 69 724 l 13 724 l 13 732 l 69 732 l 69 971 l 213 971 m 414 489 l 414 724 l 213 724 l 213 489 l 414 489 z "},"Ĥ":{"ha":624,"x_min":69,"x_max":557,"o":"m 213 971 l 213 489 l 414 489 l 414 971 l 557 971 l 557 0 l 414 0 l 414 481 l 213 481 l 213 0 l 69 0 l 69 971 l 213 971 m 308 1185 l 317 1185 l 447 1031 l 439 1031 l 311 1101 l 185 1031 l 176 1031 l 308 1185 z "},"Í":{"ha":279,"x_min":68,"x_max":263,"o":"m 213 971 l 213 0 l 68 0 l 68 971 l 213 971 m 118 1031 l 160 1186 l 263 1186 l 126 1031 l 118 1031 z "},"Ĭ":{"ha":279,"x_min":25,"x_max":253,"o":"m 213 971 l 213 0 l 68 0 l 68 971 l 213 971 m 246 1165 l 253 1165 q 221 1073 253 1108 q 139 1038 189 1038 q 57 1073 89 1038 q 25 1165 25 1108 l 32 1165 q 63 1116 32 1136 q 139 1096 94 1096 q 215 1116 183 1096 q 246 1165 246 1136 z "},"Î":{"ha":279,"x_min":4,"x_max":275,"o":"m 213 971 l 213 0 l 68 0 l 68 971 l 213 971 m 136 1185 l 144 1185 l 275 1031 l 267 1031 l 139 1101 l 13 1031 l 4 1031 l 136 1185 z "},"Ï":{"ha":279,"x_min":13,"x_max":267,"o":"m 213 971 l 213 0 l 68 0 l 68 971 l 213 971 m 13 1103 q 26 1139 13 1125 q 63 1153 40 1153 q 99 1139 85 1153 q 114 1103 114 1125 q 99 1067 114 1082 q 63 1053 85 1053 q 26 1067 40 1053 q 13 1103 13 1082 m 165 1103 q 180 1138 165 1124 q 217 1153 194 1153 q 253 1139 239 1153 q 267 1103 267 1125 q 253 1067 267 1081 q 217 1053 239 1053 q 180 1067 194 1053 q 165 1103 165 1082 z "},"Ì":{"ha":279,"x_min":15,"x_max":213,"o":"m 213 971 l 213 0 l 68 0 l 68 971 l 213 971 m 151 1031 l 15 1186 l 118 1186 l 160 1031 l 151 1031 z "},"Ī":{"ha":279,"x_min":15,"x_max":261,"o":"m 213 971 l 213 0 l 68 0 l 68 971 l 213 971 m 261 1100 l 15 1100 l 15 1108 l 261 1108 l 261 1100 z "},"Į":{"ha":279,"x_min":29,"x_max":214,"o":"m 213 971 l 213 0 l 68 0 l 68 971 l 213 971 m 214 -110 q 169 -170 197 -149 q 110 -192 142 -192 q 53 -170 76 -192 q 29 -118 29 -149 q 56 -55 29 -86 q 133 4 83 -24 l 147 4 q 101 -39 115 -15 q 86 -86 86 -62 q 103 -137 86 -115 q 144 -160 121 -160 q 178 -147 161 -160 q 207 -106 194 -133 l 214 -110 z "},"Ĵ":{"ha":406,"x_min":-7,"x_max":403,"o":"m -7 46 l -1 53 q 56 16 25 29 q 114 3 86 3 q 174 33 151 3 q 196 117 196 64 l 196 971 l 339 971 l 339 224 q 324 129 339 172 q 283 55 310 86 q 221 6 257 24 q 142 -12 185 -12 q -7 46 64 -12 m 264 1185 l 272 1185 l 403 1031 l 394 1031 l 267 1101 l 140 1031 l 132 1031 l 264 1185 z "},"Ķ":{"ha":582,"x_min":69,"x_max":589,"o":"m 213 0 l 69 0 l 69 971 l 213 971 l 213 0 m 257 497 l 257 504 l 499 971 l 511 971 l 342 639 l 589 0 l 439 0 l 257 497 m 376 -139 q 338 -150 356 -150 q 298 -134 314 -150 q 282 -93 282 -118 q 299 -51 282 -67 q 340 -35 315 -35 q 386 -58 369 -35 q 403 -121 403 -81 q 378 -201 403 -169 q 306 -244 354 -233 l 303 -236 q 366 -199 344 -226 q 376 -139 388 -172 z "},"Ĺ":{"ha":403,"x_min":68,"x_max":411,"o":"m 213 971 l 213 8 l 411 8 l 411 0 l 68 0 l 68 971 l 213 971 m 118 1031 l 160 1186 l 263 1186 l 126 1031 l 118 1031 z "},"Ľ":{"ha":403,"x_min":68,"x_max":411,"o":"m 293 815 l 321 971 l 404 971 l 301 815 l 293 815 m 213 971 l 213 8 l 411 8 l 411 0 l 68 0 l 68 971 l 213 971 z "},"Ļ":{"ha":403,"x_min":68,"x_max":411,"o":"m 213 971 l 213 8 l 411 8 l 411 0 l 68 0 l 68 971 l 213 971 m 293 -139 q 254 -150 272 -150 q 215 -134 231 -150 q 199 -93 199 -118 q 215 -51 199 -67 q 257 -35 232 -35 q 303 -58 286 -35 q 319 -121 319 -81 q 295 -201 319 -169 q 222 -244 271 -233 l 219 -236 q 283 -199 261 -226 q 293 -139 304 -172 z "},"Ŀ":{"ha":432,"x_min":68,"x_max":438,"o":"m 213 971 l 213 8 l 411 8 l 411 0 l 68 0 l 68 971 l 213 971 m 313 489 q 330 534 313 517 q 375 551 347 551 q 419 534 401 551 q 438 489 438 517 q 419 444 438 463 q 375 426 401 426 q 330 444 347 426 q 313 489 313 463 z "},"Ł":{"ha":401,"x_min":7,"x_max":410,"o":"m 211 971 l 211 524 l 358 603 l 361 596 l 211 515 l 211 8 l 410 8 l 410 0 l 67 0 l 67 438 l 11 407 l 7 414 l 67 446 l 67 971 l 211 971 z "},"Ń":{"ha":546,"x_min":60,"x_max":486,"o":"m 475 289 l 478 289 l 478 971 l 486 971 l 486 0 l 449 0 l 72 915 l 69 915 l 69 0 l 60 0 l 60 971 l 201 971 l 475 289 m 257 1031 l 299 1186 l 401 1186 l 265 1031 l 257 1031 z "},"Ň":{"ha":546,"x_min":60,"x_max":486,"o":"m 475 289 l 478 289 l 478 971 l 486 971 l 486 0 l 449 0 l 72 915 l 69 915 l 69 0 l 60 0 l 60 971 l 201 971 l 475 289 m 151 1185 l 278 1113 l 406 1185 l 414 1185 l 283 1031 l 275 1031 l 143 1185 l 151 1185 z "},"Ñ":{"ha":546,"x_min":60,"x_max":486,"o":"m 475 289 l 478 289 l 478 971 l 486 971 l 486 0 l 449 0 l 72 915 l 69 915 l 69 0 l 60 0 l 60 971 l 201 971 l 475 289 m 154 1069 l 146 1072 q 243 1153 183 1153 q 282 1144 261 1153 l 324 1125 q 344 1117 335 1119 q 361 1115 354 1115 q 407 1149 393 1115 l 414 1144 q 321 1061 376 1061 q 274 1072 299 1061 l 249 1085 q 218 1097 229 1093 q 196 1100 207 1100 q 154 1069 169 1100 z "},"Ņ":{"ha":546,"x_min":60,"x_max":486,"o":"m 475 289 l 478 289 l 478 971 l 486 971 l 486 0 l 449 0 l 72 915 l 69 915 l 69 0 l 60 0 l 60 971 l 201 971 l 475 289 m 315 -139 q 276 -150 294 -150 q 237 -134 253 -150 q 221 -93 221 -118 q 238 -51 221 -67 q 279 -35 254 -35 q 325 -58 308 -35 q 342 -121 342 -81 q 317 -201 342 -169 q 244 -244 293 -233 l 242 -236 q 305 -199 283 -226 q 315 -139 326 -172 z "},"Ŋ":{"ha":546,"x_min":60,"x_max":486,"o":"m 478 971 l 486 971 l 486 -24 q 463 -152 486 -100 q 389 -243 440 -204 l 385 -237 q 411 -214 400 -226 q 431 -185 422 -201 q 443 -144 439 -168 q 447 -87 447 -121 l 447 7 l 71 915 l 68 915 l 68 0 l 60 0 l 60 971 l 201 971 l 475 285 l 478 285 l 478 971 z "},"Ó":{"ha":615,"x_min":60,"x_max":557,"o":"m 60 718 q 78 826 60 776 q 129 910 96 875 q 208 964 163 944 q 310 983 254 983 q 410 964 365 983 q 488 910 456 944 q 539 826 521 875 q 557 718 557 778 l 557 264 q 539 151 557 201 q 488 64 521 100 q 410 8 456 28 q 308 -12 364 -12 q 207 8 253 -12 q 128 64 161 28 q 78 151 96 100 q 60 264 60 201 l 60 718 m 204 157 q 308 -4 204 -4 q 413 157 413 -4 l 413 814 q 388 936 413 897 q 310 975 363 975 q 204 814 204 975 l 204 157 m 288 1031 l 329 1186 l 432 1186 l 296 1031 l 288 1031 z "},"Ŏ":{"ha":615,"x_min":60,"x_max":557,"o":"m 60 718 q 78 826 60 776 q 129 910 96 875 q 208 964 163 944 q 310 983 254 983 q 410 964 365 983 q 488 910 456 944 q 539 826 521 875 q 557 718 557 778 l 557 264 q 539 151 557 201 q 488 64 521 100 q 410 8 456 28 q 308 -12 364 -12 q 207 8 253 -12 q 128 64 161 28 q 78 151 96 100 q 60 264 60 201 l 60 718 m 204 157 q 308 -4 204 -4 q 413 157 413 -4 l 413 814 q 388 936 413 897 q 310 975 363 975 q 204 814 204 975 l 204 157 m 415 1165 l 422 1165 q 390 1073 422 1108 q 308 1038 358 1038 q 226 1073 258 1038 q 194 1165 194 1108 l 201 1165 q 233 1116 201 1136 q 308 1096 264 1096 q 384 1116 353 1096 q 415 1165 415 1136 z "},"Ô":{"ha":615,"x_min":60,"x_max":557,"o":"m 60 718 q 78 826 60 776 q 129 910 96 875 q 208 964 163 944 q 310 983 254 983 q 410 964 365 983 q 488 910 456 944 q 539 826 521 875 q 557 718 557 778 l 557 264 q 539 151 557 201 q 488 64 521 100 q 410 8 456 28 q 308 -12 364 -12 q 207 8 253 -12 q 128 64 161 28 q 78 151 96 100 q 60 264 60 201 l 60 718 m 204 157 q 308 -4 204 -4 q 413 157 413 -4 l 413 814 q 388 936 413 897 q 310 975 363 975 q 204 814 204 975 l 204 157 m 306 1185 l 314 1185 l 444 1031 l 436 1031 l 308 1101 l 182 1031 l 174 1031 l 306 1185 z "},"Ö":{"ha":615,"x_min":60,"x_max":557,"o":"m 60 718 q 78 826 60 776 q 129 910 96 875 q 208 964 163 944 q 310 983 254 983 q 410 964 365 983 q 488 910 456 944 q 539 826 521 875 q 557 718 557 778 l 557 264 q 539 151 557 201 q 488 64 521 100 q 410 8 456 28 q 308 -12 364 -12 q 207 8 253 -12 q 128 64 161 28 q 78 151 96 100 q 60 264 60 201 l 60 718 m 204 157 q 308 -4 204 -4 q 413 157 413 -4 l 413 814 q 388 936 413 897 q 310 975 363 975 q 204 814 204 975 l 204 157 m 182 1103 q 196 1139 182 1125 q 232 1153 210 1153 q 269 1139 254 1153 q 283 1103 283 1125 q 269 1067 283 1082 q 232 1053 254 1053 q 196 1067 210 1053 q 182 1103 182 1082 m 335 1103 q 349 1138 335 1124 q 386 1153 364 1153 q 422 1139 408 1153 q 436 1103 436 1125 q 422 1067 436 1081 q 386 1053 408 1053 q 349 1067 364 1053 q 335 1103 335 1082 z "},"Ò":{"ha":615,"x_min":60,"x_max":557,"o":"m 60 718 q 78 826 60 776 q 129 910 96 875 q 208 964 163 944 q 310 983 254 983 q 410 964 365 983 q 488 910 456 944 q 539 826 521 875 q 557 718 557 778 l 557 264 q 539 151 557 201 q 488 64 521 100 q 410 8 456 28 q 308 -12 364 -12 q 207 8 253 -12 q 128 64 161 28 q 78 151 96 100 q 60 264 60 201 l 60 718 m 204 157 q 308 -4 204 -4 q 413 157 413 -4 l 413 814 q 388 936 413 897 q 310 975 363 975 q 204 814 204 975 l 204 157 m 321 1031 l 185 1186 l 288 1186 l 329 1031 l 321 1031 z "},"Ő":{"ha":615,"x_min":60,"x_max":557,"o":"m 60 718 q 78 826 60 776 q 129 910 96 875 q 208 964 163 944 q 310 983 254 983 q 410 964 365 983 q 488 910 456 944 q 539 826 521 875 q 557 718 557 778 l 557 264 q 539 151 557 201 q 488 64 521 100 q 410 8 456 28 q 308 -12 364 -12 q 207 8 253 -12 q 128 64 161 28 q 78 151 96 100 q 60 264 60 201 l 60 718 m 204 157 q 308 -4 204 -4 q 413 157 413 -4 l 413 814 q 388 936 413 897 q 310 975 363 975 q 204 814 204 975 l 204 157 m 368 1031 l 410 1186 l 504 1186 l 376 1031 l 368 1031 m 225 1031 l 267 1186 l 360 1186 l 233 1031 l 225 1031 z "},"Õ":{"ha":615,"x_min":60,"x_max":557,"o":"m 60 718 q 78 826 60 776 q 129 910 96 875 q 208 964 163 944 q 310 983 254 983 q 410 964 365 983 q 488 910 456 944 q 539 826 521 875 q 557 718 557 778 l 557 264 q 539 151 557 201 q 488 64 521 100 q 410 8 456 28 q 308 -12 364 -12 q 207 8 253 -12 q 128 64 161 28 q 78 151 96 100 q 60 264 60 201 l 60 718 m 204 157 q 308 -4 204 -4 q 413 157 413 -4 l 413 814 q 388 936 413 897 q 310 975 363 975 q 204 814 204 975 l 204 157 m 185 1069 l 176 1072 q 274 1153 214 1153 q 313 1144 292 1153 l 354 1125 q 375 1117 365 1119 q 392 1115 385 1115 q 438 1149 424 1115 l 444 1144 q 351 1061 407 1061 q 304 1072 329 1061 l 279 1085 q 249 1097 260 1093 q 226 1100 238 1100 q 185 1069 200 1100 z "},"Ø":{"ha":615,"x_min":60,"x_max":557,"o":"m 60 718 q 78 826 60 776 q 129 910 96 875 q 208 964 163 944 q 310 983 254 983 q 415 963 368 983 q 494 903 463 942 l 529 978 l 539 974 l 503 893 q 557 718 557 824 l 557 264 q 539 151 557 201 q 488 64 521 100 q 410 8 456 28 q 308 -12 364 -12 q 202 9 250 -12 q 122 71 154 31 l 85 -8 l 75 -3 l 114 82 q 60 264 60 153 l 60 718 m 204 276 l 413 726 l 413 814 q 388 936 413 897 q 310 975 363 975 q 204 814 204 975 l 204 276 m 204 157 q 308 -4 204 -4 q 413 157 413 -4 l 413 699 l 204 250 l 204 157 z "},"Ǿ":{"ha":615,"x_min":60,"x_max":557,"o":"m 60 718 q 78 826 60 776 q 129 910 96 875 q 208 964 163 944 q 310 983 254 983 q 415 963 368 983 q 494 903 463 942 l 529 978 l 539 974 l 503 893 q 557 718 557 824 l 557 264 q 539 151 557 201 q 488 64 521 100 q 410 8 456 28 q 308 -12 364 -12 q 202 9 250 -12 q 122 71 154 31 l 85 -8 l 75 -3 l 114 82 q 60 264 60 153 l 60 718 m 204 276 l 413 726 l 413 814 q 388 936 413 897 q 310 975 363 975 q 204 814 204 975 l 204 276 m 204 157 q 308 -4 204 -4 q 413 157 413 -4 l 413 699 l 204 250 l 204 157 m 288 1031 l 329 1186 l 432 1186 l 296 1031 l 288 1031 z "},"Œ":{"ha":801,"x_min":60,"x_max":767,"o":"m 60 706 q 78 813 60 764 q 128 897 96 863 q 207 951 161 932 q 308 971 253 971 l 767 971 l 767 963 l 560 963 l 560 500 l 738 500 l 738 492 l 560 492 l 560 8 l 767 8 l 767 0 l 308 0 q 207 20 253 0 q 128 76 161 40 q 78 163 96 113 q 60 276 60 214 l 60 706 m 204 801 l 204 169 q 233 53 204 99 q 308 8 263 8 l 415 8 l 415 963 l 317 963 q 236 917 268 963 q 204 801 204 871 z "},"Ŕ":{"ha":604,"x_min":68,"x_max":556,"o":"m 304 971 q 393 953 353 971 q 464 903 433 935 q 511 831 494 872 q 528 743 528 790 l 528 710 q 513 626 528 665 q 472 556 499 586 q 409 506 446 525 q 328 482 372 486 l 328 478 q 375 467 351 478 q 418 440 399 457 q 452 399 438 422 q 472 351 467 376 l 556 0 l 408 0 l 324 371 q 309 428 315 407 q 294 461 303 450 q 276 476 286 472 q 250 481 265 481 l 213 481 l 213 0 l 68 0 l 68 971 l 304 971 m 383 785 q 361 921 383 879 q 289 963 339 963 l 213 963 l 213 489 l 294 489 q 363 531 343 489 q 383 667 383 574 l 383 785 m 239 1031 l 281 1186 l 383 1186 l 247 1031 l 239 1031 z "},"Ř":{"ha":604,"x_min":68,"x_max":556,"o":"m 304 971 q 393 953 353 971 q 464 903 433 935 q 511 831 494 872 q 528 743 528 790 l 528 710 q 513 626 528 665 q 472 556 499 586 q 409 506 446 525 q 328 482 372 486 l 328 478 q 375 467 351 478 q 418 440 399 457 q 452 399 438 422 q 472 351 467 376 l 556 0 l 408 0 l 324 371 q 309 428 315 407 q 294 461 303 450 q 276 476 286 472 q 250 481 265 481 l 213 481 l 213 0 l 68 0 l 68 971 l 304 971 m 383 785 q 361 921 383 879 q 289 963 339 963 l 213 963 l 213 489 l 294 489 q 363 531 343 489 q 383 667 383 574 l 383 785 m 133 1185 l 260 1113 l 388 1185 l 396 1185 l 265 1031 l 257 1031 l 125 1185 l 133 1185 z "},"Ŗ":{"ha":604,"x_min":68,"x_max":556,"o":"m 304 971 q 393 953 353 971 q 464 903 433 935 q 511 831 494 872 q 528 743 528 790 l 528 710 q 513 626 528 665 q 472 556 499 586 q 409 506 446 525 q 328 482 372 486 l 328 478 q 375 467 351 478 q 418 440 399 457 q 452 399 438 422 q 472 351 467 376 l 556 0 l 408 0 l 324 371 q 309 428 315 407 q 294 461 303 450 q 276 476 286 472 q 250 481 265 481 l 213 481 l 213 0 l 68 0 l 68 971 l 304 971 m 383 785 q 361 921 383 879 q 289 963 339 963 l 213 963 l 213 489 l 294 489 q 363 531 343 489 q 383 667 383 574 l 383 785 m 344 -139 q 306 -150 324 -150 q 266 -134 282 -150 q 250 -93 250 -118 q 267 -51 250 -67 q 308 -35 283 -35 q 354 -58 338 -35 q 371 -121 371 -81 q 347 -201 371 -169 q 274 -244 322 -233 l 271 -236 q 334 -199 313 -226 q 344 -139 356 -172 z "},"Ŧ":{"ha":476,"x_min":-7,"x_max":485,"o":"m 485 963 l 311 963 l 311 574 l 443 574 l 443 565 l 311 565 l 311 0 l 167 0 l 167 565 l 35 565 l 35 574 l 167 574 l 167 963 l -7 963 l -7 971 l 485 971 l 485 963 z "},"Ť":{"ha":476,"x_min":-7,"x_max":485,"o":"m 485 963 l 311 963 l 311 0 l 167 0 l 167 963 l -7 963 l -7 971 l 485 971 l 485 963 m 110 1185 l 236 1113 l 364 1185 l 372 1185 l 242 1031 l 233 1031 l 101 1185 l 110 1185 z "},"Ț":{"ha":476,"x_min":-7,"x_max":485,"o":"m 485 963 l 311 963 l 311 0 l 167 0 l 167 963 l -7 963 l -7 971 l 485 971 l 485 963 m 290 -133 q 251 -144 269 -144 q 212 -128 228 -144 q 196 -87 196 -112 q 213 -45 196 -61 q 254 -29 229 -29 q 300 -52 283 -29 q 317 -115 317 -75 q 292 -196 317 -164 q 219 -239 268 -228 l 217 -231 q 280 -194 258 -221 q 290 -133 301 -167 z "},"Ú":{"ha":567,"x_min":68,"x_max":508,"o":"m 213 971 l 213 167 q 247 49 213 93 q 340 6 281 6 q 455 66 410 6 q 500 229 500 126 l 500 971 l 508 971 l 508 233 q 454 52 508 117 q 303 -12 400 -12 q 206 7 250 -12 q 132 63 163 26 q 85 150 101 99 q 68 264 68 201 l 68 971 l 213 971 m 283 1031 l 325 1186 l 428 1186 l 292 1031 l 283 1031 z "},"Ŭ":{"ha":567,"x_min":68,"x_max":508,"o":"m 213 971 l 213 167 q 247 49 213 93 q 340 6 281 6 q 455 66 410 6 q 500 229 500 126 l 500 971 l 508 971 l 508 233 q 454 52 508 117 q 303 -12 400 -12 q 206 7 250 -12 q 132 63 163 26 q 85 150 101 99 q 68 264 68 201 l 68 971 l 213 971 m 411 1165 l 418 1165 q 386 1073 418 1108 q 304 1038 354 1038 q 222 1073 254 1038 q 190 1165 190 1108 l 197 1165 q 228 1116 197 1136 q 304 1096 260 1096 q 380 1116 349 1096 q 411 1165 411 1136 z "},"Û":{"ha":567,"x_min":68,"x_max":508,"o":"m 213 971 l 213 167 q 247 49 213 93 q 340 6 281 6 q 455 66 410 6 q 500 229 500 126 l 500 971 l 508 971 l 508 233 q 454 52 508 117 q 303 -12 400 -12 q 206 7 250 -12 q 132 63 163 26 q 85 150 101 99 q 68 264 68 201 l 68 971 l 213 971 m 301 1185 l 310 1185 l 440 1031 l 432 1031 l 304 1101 l 178 1031 l 169 1031 l 301 1185 z "},"Ü":{"ha":567,"x_min":68,"x_max":508,"o":"m 213 971 l 213 167 q 247 49 213 93 q 340 6 281 6 q 455 66 410 6 q 500 229 500 126 l 500 971 l 508 971 l 508 233 q 454 52 508 117 q 303 -12 400 -12 q 206 7 250 -12 q 132 63 163 26 q 85 150 101 99 q 68 264 68 201 l 68 971 l 213 971 m 178 1103 q 192 1139 178 1125 q 228 1153 206 1153 q 265 1139 250 1153 q 279 1103 279 1125 q 265 1067 279 1082 q 228 1053 250 1053 q 192 1067 206 1053 q 178 1103 178 1082 m 331 1103 q 345 1138 331 1124 q 382 1153 360 1153 q 418 1139 404 1153 q 432 1103 432 1125 q 418 1067 432 1081 q 382 1053 404 1053 q 345 1067 360 1053 q 331 1103 331 1082 z "},"Ù":{"ha":567,"x_min":68,"x_max":508,"o":"m 213 971 l 213 167 q 247 49 213 93 q 340 6 281 6 q 455 66 410 6 q 500 229 500 126 l 500 971 l 508 971 l 508 233 q 454 52 508 117 q 303 -12 400 -12 q 206 7 250 -12 q 132 63 163 26 q 85 150 101 99 q 68 264 68 201 l 68 971 l 213 971 m 317 1031 l 181 1186 l 283 1186 l 325 1031 l 317 1031 z "},"Ű":{"ha":567,"x_min":68,"x_max":508,"o":"m 213 971 l 213 167 q 247 49 213 93 q 340 6 281 6 q 455 66 410 6 q 500 229 500 126 l 500 971 l 508 971 l 508 233 q 454 52 508 117 q 303 -12 400 -12 q 206 7 250 -12 q 132 63 163 26 q 85 150 101 99 q 68 264 68 201 l 68 971 l 213 971 m 364 1031 l 406 1186 l 500 1186 l 372 1031 l 364 1031 m 221 1031 l 263 1186 l 356 1186 l 229 1031 l 221 1031 z "},"Ū":{"ha":567,"x_min":68,"x_max":508,"o":"m 213 971 l 213 167 q 247 49 213 93 q 340 6 281 6 q 455 66 410 6 q 500 229 500 126 l 500 971 l 508 971 l 508 233 q 454 52 508 117 q 303 -12 400 -12 q 206 7 250 -12 q 132 63 163 26 q 85 150 101 99 q 68 264 68 201 l 68 971 l 213 971 m 426 1100 l 181 1100 l 181 1108 l 426 1108 l 426 1100 z "},"Ų":{"ha":567,"x_min":68,"x_max":508,"o":"m 213 971 l 213 167 q 247 49 213 93 q 340 6 281 6 q 455 66 410 6 q 500 229 500 126 l 500 971 l 508 971 l 508 233 q 454 52 508 117 q 303 -12 400 -12 q 206 7 250 -12 q 132 63 163 26 q 85 150 101 99 q 68 264 68 201 l 68 971 l 213 971 m 446 -110 q 401 -170 429 -149 q 342 -192 374 -192 q 285 -170 308 -192 q 261 -118 261 -149 q 288 -55 261 -86 q 365 4 315 -24 l 379 4 q 333 -39 347 -15 q 318 -86 318 -62 q 335 -137 318 -115 q 376 -160 353 -160 q 410 -147 393 -160 q 439 -106 426 -133 l 446 -110 z "},"Ů":{"ha":567,"x_min":68,"x_max":508,"o":"m 213 971 l 213 167 q 247 49 213 93 q 340 6 281 6 q 455 66 410 6 q 500 229 500 126 l 500 971 l 508 971 l 508 233 q 454 52 508 117 q 303 -12 400 -12 q 206 7 250 -12 q 132 63 163 26 q 85 150 101 99 q 68 264 68 201 l 68 971 l 213 971 m 228 1113 q 250 1167 228 1144 q 304 1189 272 1189 q 358 1167 336 1189 q 381 1113 381 1144 q 358 1058 381 1081 q 304 1036 336 1036 q 250 1058 272 1036 q 228 1113 228 1081 m 236 1113 q 256 1065 236 1085 q 304 1044 276 1044 q 352 1065 332 1044 q 372 1113 372 1085 q 353 1160 372 1140 q 304 1181 333 1181 q 256 1160 276 1181 q 236 1113 236 1140 z "},"Ũ":{"ha":567,"x_min":68,"x_max":508,"o":"m 213 971 l 213 167 q 247 49 213 93 q 340 6 281 6 q 455 66 410 6 q 500 229 500 126 l 500 971 l 508 971 l 508 233 q 454 52 508 117 q 303 -12 400 -12 q 206 7 250 -12 q 132 63 163 26 q 85 150 101 99 q 68 264 68 201 l 68 971 l 213 971 m 181 1069 l 172 1072 q 269 1153 210 1153 q 308 1144 288 1153 l 350 1125 q 371 1117 361 1119 q 388 1115 381 1115 q 433 1149 419 1115 l 440 1144 q 347 1061 403 1061 q 300 1072 325 1061 l 275 1085 q 244 1097 256 1093 q 222 1100 233 1100 q 181 1069 196 1100 z "},"Ẃ":{"ha":682,"x_min":-7,"x_max":688,"o":"m 554 303 l 557 303 l 568 358 l 678 971 l 688 971 l 510 0 l 472 0 l 346 596 l 343 596 l 232 0 l 194 0 l -7 971 l 140 971 l 276 303 l 279 303 l 290 358 l 339 638 l 271 971 l 417 971 l 554 303 m 318 1031 l 360 1186 l 463 1186 l 326 1031 l 318 1031 z "},"Ŵ":{"ha":682,"x_min":-7,"x_max":688,"o":"m 554 303 l 557 303 l 568 358 l 678 971 l 688 971 l 510 0 l 472 0 l 346 596 l 343 596 l 232 0 l 194 0 l -7 971 l 140 971 l 276 303 l 279 303 l 290 358 l 339 638 l 271 971 l 417 971 l 554 303 m 338 1185 l 346 1185 l 476 1031 l 468 1031 l 340 1101 l 214 1031 l 206 1031 l 338 1185 z "},"Ẅ":{"ha":682,"x_min":-7,"x_max":688,"o":"m 554 303 l 557 303 l 568 358 l 678 971 l 688 971 l 510 0 l 472 0 l 346 596 l 343 596 l 232 0 l 194 0 l -7 971 l 140 971 l 276 303 l 279 303 l 290 358 l 339 638 l 271 971 l 417 971 l 554 303 m 213 1103 q 226 1139 213 1125 q 263 1153 240 1153 q 299 1139 285 1153 q 314 1103 314 1125 q 299 1067 314 1082 q 263 1053 285 1053 q 226 1067 240 1053 q 213 1103 213 1082 m 365 1103 q 380 1138 365 1124 q 417 1153 394 1153 q 453 1139 439 1153 q 467 1103 467 1125 q 453 1067 467 1081 q 417 1053 439 1053 q 380 1067 394 1053 q 365 1103 365 1082 z "},"Ẁ":{"ha":682,"x_min":-7,"x_max":688,"o":"m 554 303 l 557 303 l 568 358 l 678 971 l 688 971 l 510 0 l 472 0 l 346 596 l 343 596 l 232 0 l 194 0 l -7 971 l 140 971 l 276 303 l 279 303 l 290 358 l 339 638 l 271 971 l 417 971 l 554 303 m 353 1031 l 217 1186 l 319 1186 l 361 1031 l 353 1031 z "},"Ý":{"ha":471,"x_min":-6,"x_max":478,"o":"m 314 472 l 317 472 l 465 971 l 478 971 l 321 447 l 321 0 l 176 0 l 176 435 l -6 971 l 144 971 l 314 472 m 240 1031 l 282 1186 l 385 1186 l 249 1031 l 240 1031 z "},"Ŷ":{"ha":471,"x_min":-6,"x_max":478,"o":"m 314 472 l 317 472 l 465 971 l 478 971 l 321 447 l 321 0 l 176 0 l 176 435 l -6 971 l 144 971 l 314 472 m 260 1185 l 268 1185 l 399 1031 l 390 1031 l 263 1101 l 136 1031 l 128 1031 l 260 1185 z "},"Ỳ":{"ha":471,"x_min":-6,"x_max":478,"o":"m 314 472 l 317 472 l 465 971 l 478 971 l 321 447 l 321 0 l 176 0 l 176 435 l -6 971 l 144 971 l 314 472 m 275 1031 l 139 1186 l 242 1186 l 283 1031 l 275 1031 z "},"Ź":{"ha":560,"x_min":33,"x_max":526,"o":"m 82 963 l 82 971 l 506 971 l 506 963 l 185 8 l 526 8 l 526 0 l 33 0 l 33 8 l 356 963 l 82 963 m 268 1031 l 310 1186 l 413 1186 l 276 1031 l 268 1031 z "},"Ž":{"ha":560,"x_min":33,"x_max":526,"o":"m 82 963 l 82 971 l 506 971 l 506 963 l 185 8 l 526 8 l 526 0 l 33 0 l 33 8 l 356 963 l 82 963 m 163 1185 l 289 1113 l 417 1185 l 425 1185 l 294 1031 l 286 1031 l 154 1185 l 163 1185 z "},"á":{"ha":485,"x_min":33,"x_max":446,"o":"m 33 203 q 98 329 33 282 q 306 401 163 376 l 306 589 q 281 661 306 635 q 215 688 257 688 q 176 682 197 688 q 135 668 154 676 q 99 648 115 660 q 72 624 82 636 l 65 629 q 140 680 90 660 q 243 700 190 700 q 324 685 286 700 q 388 646 361 671 q 431 586 415 621 q 446 511 446 551 l 446 0 l 306 0 l 306 68 l 303 68 q 243 10 281 32 q 165 -12 206 -12 q 70 29 107 -12 q 33 138 33 71 l 33 203 m 225 19 q 267 38 244 19 q 306 86 290 56 l 306 393 q 203 351 233 378 q 174 265 174 324 l 174 104 q 188 42 174 65 q 225 19 201 19 m 217 783 l 258 939 l 361 939 l 225 783 l 217 783 z "},"ă":{"ha":485,"x_min":33,"x_max":446,"o":"m 33 203 q 98 329 33 282 q 306 401 163 376 l 306 589 q 281 661 306 635 q 215 688 257 688 q 176 682 197 688 q 135 668 154 676 q 99 648 115 660 q 72 624 82 636 l 65 629 q 140 680 90 660 q 243 700 190 700 q 324 685 286 700 q 388 646 361 671 q 431 586 415 621 q 446 511 446 551 l 446 0 l 306 0 l 306 68 l 303 68 q 243 10 281 32 q 165 -12 206 -12 q 70 29 107 -12 q 33 138 33 71 l 33 203 m 225 19 q 267 38 244 19 q 306 86 290 56 l 306 393 q 203 351 233 378 q 174 265 174 324 l 174 104 q 188 42 174 65 q 225 19 201 19 m 346 918 l 353 918 q 321 826 353 861 q 239 790 289 790 q 157 826 189 790 q 125 918 125 861 l 132 918 q 163 869 132 889 q 239 849 194 849 q 315 869 283 849 q 346 918 346 889 z "},"â":{"ha":485,"x_min":33,"x_max":446,"o":"m 33 203 q 98 329 33 282 q 306 401 163 376 l 306 589 q 281 661 306 635 q 215 688 257 688 q 176 682 197 688 q 135 668 154 676 q 99 648 115 660 q 72 624 82 636 l 65 629 q 140 680 90 660 q 243 700 190 700 q 324 685 286 700 q 388 646 361 671 q 431 586 415 621 q 446 511 446 551 l 446 0 l 306 0 l 306 68 l 303 68 q 243 10 281 32 q 165 -12 206 -12 q 70 29 107 -12 q 33 138 33 71 l 33 203 m 225 19 q 267 38 244 19 q 306 86 290 56 l 306 393 q 203 351 233 378 q 174 265 174 324 l 174 104 q 188 42 174 65 q 225 19 201 19 m 236 938 l 244 938 l 375 783 l 367 783 l 239 854 l 113 783 l 104 783 l 236 938 z "},"ā":{"ha":485,"x_min":33,"x_max":446,"o":"m 33 203 q 98 329 33 282 q 306 401 163 376 l 306 589 q 281 661 306 635 q 215 688 257 688 q 176 682 197 688 q 135 668 154 676 q 99 648 115 660 q 72 624 82 636 l 65 629 q 140 680 90 660 q 243 700 190 700 q 324 685 286 700 q 388 646 361 671 q 431 586 415 621 q 446 511 446 551 l 446 0 l 306 0 l 306 68 l 303 68 q 243 10 281 32 q 165 -12 206 -12 q 70 29 107 -12 q 33 138 33 71 l 33 203 m 225 19 q 267 38 244 19 q 306 86 290 56 l 306 393 q 203 351 233 378 q 174 265 174 324 l 174 104 q 188 42 174 65 q 225 19 201 19 m 361 853 l 115 853 l 115 861 l 361 861 l 361 853 z "},"à":{"ha":485,"x_min":33,"x_max":446,"o":"m 33 203 q 98 329 33 282 q 306 401 163 376 l 306 589 q 281 661 306 635 q 215 688 257 688 q 176 682 197 688 q 135 668 154 676 q 99 648 115 660 q 72 624 82 636 l 65 629 q 140 680 90 660 q 243 700 190 700 q 324 685 286 700 q 388 646 361 671 q 431 586 415 621 q 446 511 446 551 l 446 0 l 306 0 l 306 68 l 303 68 q 243 10 281 32 q 165 -12 206 -12 q 70 29 107 -12 q 33 138 33 71 l 33 203 m 225 19 q 267 38 244 19 q 306 86 290 56 l 306 393 q 203 351 233 378 q 174 265 174 324 l 174 104 q 188 42 174 65 q 225 19 201 19 m 251 783 l 115 939 l 218 939 l 260 783 l 251 783 z "},"ą":{"ha":485,"x_min":33,"x_max":446,"o":"m 33 203 q 98 329 33 282 q 306 401 163 376 l 306 589 q 281 661 306 635 q 215 688 257 688 q 176 682 197 688 q 135 668 154 676 q 99 648 115 660 q 72 624 82 636 l 65 629 q 140 680 90 660 q 243 700 190 700 q 324 685 286 700 q 388 646 361 671 q 431 586 415 621 q 446 511 446 551 l 446 0 l 306 0 l 306 68 l 303 68 q 243 10 281 32 q 165 -12 206 -12 q 70 29 107 -12 q 33 138 33 71 l 33 203 m 225 19 q 267 38 244 19 q 306 86 290 56 l 306 393 q 203 351 233 378 q 174 265 174 324 l 174 104 q 188 42 174 65 q 225 19 201 19 m 389 -110 q 344 -170 372 -149 q 285 -192 317 -192 q 228 -170 251 -192 q 204 -118 204 -149 q 231 -55 204 -86 q 308 4 258 -24 l 322 4 q 276 -39 290 -15 q 261 -86 261 -62 q 278 -137 261 -115 q 319 -160 296 -160 q 353 -147 336 -160 q 382 -106 369 -133 l 389 -110 z "},"å":{"ha":485,"x_min":33,"x_max":446,"o":"m 33 203 q 98 329 33 282 q 306 401 163 376 l 306 589 q 281 661 306 635 q 215 688 257 688 q 176 682 197 688 q 135 668 154 676 q 99 648 115 660 q 72 624 82 636 l 65 629 q 140 680 90 660 q 243 700 190 700 q 324 685 286 700 q 388 646 361 671 q 431 586 415 621 q 446 511 446 551 l 446 0 l 306 0 l 306 68 l 303 68 q 243 10 281 32 q 165 -12 206 -12 q 70 29 107 -12 q 33 138 33 71 l 33 203 m 225 19 q 267 38 244 19 q 306 86 290 56 l 306 393 q 203 351 233 378 q 174 265 174 324 l 174 104 q 188 42 174 65 q 225 19 201 19 m 161 865 q 183 919 161 897 q 238 942 206 942 q 292 919 269 942 q 314 865 314 897 q 292 811 314 833 q 238 789 269 789 q 183 811 206 789 q 161 865 161 833 m 169 865 q 190 817 169 838 q 238 797 210 797 q 285 817 265 797 q 306 865 306 838 q 286 913 306 893 q 238 933 267 933 q 190 913 210 933 q 169 865 169 893 z "},"ã":{"ha":485,"x_min":33,"x_max":446,"o":"m 33 203 q 98 329 33 282 q 306 401 163 376 l 306 589 q 281 661 306 635 q 215 688 257 688 q 176 682 197 688 q 135 668 154 676 q 99 648 115 660 q 72 624 82 636 l 65 629 q 140 680 90 660 q 243 700 190 700 q 324 685 286 700 q 388 646 361 671 q 431 586 415 621 q 446 511 446 551 l 446 0 l 306 0 l 306 68 l 303 68 q 243 10 281 32 q 165 -12 206 -12 q 70 29 107 -12 q 33 138 33 71 l 33 203 m 225 19 q 267 38 244 19 q 306 86 290 56 l 306 393 q 203 351 233 378 q 174 265 174 324 l 174 104 q 188 42 174 65 q 225 19 201 19 m 114 822 l 106 825 q 203 906 143 906 q 242 897 221 906 l 283 878 q 304 870 294 872 q 321 868 314 868 q 367 901 353 868 l 374 897 q 281 814 336 814 q 233 825 258 814 l 208 838 q 178 849 189 846 q 156 853 167 853 q 114 822 129 853 z "},"ä":{"ha":485,"x_min":33,"x_max":446,"o":"m 33 203 q 98 329 33 282 q 306 401 163 376 l 306 589 q 281 661 306 635 q 215 688 257 688 q 176 682 197 688 q 135 668 154 676 q 99 648 115 660 q 72 624 82 636 l 65 629 q 140 680 90 660 q 243 700 190 700 q 324 685 286 700 q 388 646 361 671 q 431 586 415 621 q 446 511 446 551 l 446 0 l 306 0 l 306 68 l 303 68 q 243 10 281 32 q 165 -12 206 -12 q 70 29 107 -12 q 33 138 33 71 l 33 203 m 225 19 q 267 38 244 19 q 306 86 290 56 l 306 393 q 203 351 233 378 q 174 265 174 324 l 174 104 q 188 42 174 65 q 225 19 201 19 m 111 856 q 125 892 111 878 q 161 906 139 906 q 198 892 183 906 q 213 856 213 878 q 198 820 213 835 q 161 806 183 806 q 125 820 139 806 q 111 856 111 835 m 264 856 q 278 891 264 876 q 315 906 293 906 q 351 892 338 906 q 365 856 365 878 q 351 819 365 833 q 315 806 338 806 q 278 820 293 806 q 264 856 264 835 z "},"æ":{"ha":768,"x_min":35,"x_max":735,"o":"m 307 592 q 282 662 307 636 q 217 688 257 688 q 176 682 197 688 q 135 667 156 676 q 99 647 115 658 q 72 622 82 635 l 65 628 q 142 679 90 660 q 246 699 193 699 q 382 647 328 699 l 385 647 q 521 699 440 699 q 603 683 565 699 q 670 638 642 667 q 715 572 699 610 q 732 492 732 535 l 732 346 l 447 346 l 447 106 q 476 27 447 57 q 551 -3 504 -3 q 605 7 578 -3 q 656 34 632 17 q 698 74 679 51 q 726 124 717 97 l 735 121 q 653 22 707 57 q 528 -12 599 -12 q 407 19 460 -12 q 328 104 354 50 l 324 104 q 262 19 304 51 q 169 -12 219 -12 q 72 29 110 -12 q 35 138 35 71 l 35 203 q 99 328 35 282 q 307 400 164 375 l 307 592 m 447 607 l 447 354 l 593 354 l 593 603 q 572 665 593 640 q 521 690 551 690 q 469 665 490 690 q 447 607 447 640 m 225 24 q 280 52 251 24 q 321 119 308 81 q 307 190 307 151 l 307 392 q 203 350 233 376 q 174 265 174 324 l 174 104 q 188 46 174 68 q 225 24 201 24 z "},"ǽ":{"ha":768,"x_min":35,"x_max":735,"o":"m 307 592 q 282 662 307 636 q 217 688 257 688 q 176 682 197 688 q 135 667 156 676 q 99 647 115 658 q 72 622 82 635 l 65 628 q 142 679 90 660 q 246 699 193 699 q 382 647 328 699 l 385 647 q 521 699 440 699 q 603 683 565 699 q 670 638 642 667 q 715 572 699 610 q 732 492 732 535 l 732 346 l 447 346 l 447 106 q 476 27 447 57 q 551 -3 504 -3 q 605 7 578 -3 q 656 34 632 17 q 698 74 679 51 q 726 124 717 97 l 735 121 q 653 22 707 57 q 528 -12 599 -12 q 407 19 460 -12 q 328 104 354 50 l 324 104 q 262 19 304 51 q 169 -12 219 -12 q 72 29 110 -12 q 35 138 35 71 l 35 203 q 99 328 35 282 q 307 400 164 375 l 307 592 m 447 607 l 447 354 l 593 354 l 593 603 q 572 665 593 640 q 521 690 551 690 q 469 665 490 690 q 447 607 447 640 m 225 24 q 280 52 251 24 q 321 119 308 81 q 307 190 307 151 l 307 392 q 203 350 233 376 q 174 265 174 324 l 174 104 q 188 46 174 68 q 225 24 201 24 m 360 783 l 401 939 l 504 939 l 368 783 l 360 783 z "},"Ÿ":{"ha":471,"x_min":-6,"x_max":478,"o":"m 314 472 l 317 472 l 465 971 l 478 971 l 321 447 l 321 0 l 176 0 l 176 435 l -6 971 l 144 971 l 314 472 m 135 1103 q 149 1139 135 1125 q 185 1153 163 1153 q 222 1139 207 1153 q 236 1103 236 1125 q 222 1067 236 1082 q 185 1053 207 1053 q 149 1067 163 1053 q 135 1103 135 1082 m 288 1103 q 302 1138 288 1124 q 339 1153 317 1153 q 375 1139 361 1153 q 389 1103 389 1125 q 375 1067 389 1081 q 339 1053 361 1053 q 302 1067 317 1053 q 288 1103 288 1082 z "},"ć":{"ha":449,"x_min":47,"x_max":464,"o":"m 47 488 q 63 572 47 533 q 108 640 79 611 q 175 684 136 668 q 260 700 214 700 q 353 681 308 700 q 431 629 399 663 l 425 624 q 359 670 400 651 q 282 689 318 689 q 213 661 238 689 q 188 586 188 633 l 188 107 q 217 28 188 58 q 293 -1 246 -1 q 388 29 342 -1 q 457 104 435 60 l 464 101 q 385 18 438 49 q 268 -12 333 -12 q 180 3 221 -12 q 110 48 139 19 q 64 116 81 76 q 47 201 47 156 l 47 488 m 235 783 l 276 939 l 379 939 l 243 783 l 235 783 z "},"č":{"ha":449,"x_min":47,"x_max":464,"o":"m 47 488 q 63 572 47 533 q 108 640 79 611 q 175 684 136 668 q 260 700 214 700 q 353 681 308 700 q 431 629 399 663 l 425 624 q 359 670 400 651 q 282 689 318 689 q 213 661 238 689 q 188 586 188 633 l 188 107 q 217 28 188 58 q 293 -1 246 -1 q 388 29 342 -1 q 457 104 435 60 l 464 101 q 385 18 438 49 q 268 -12 333 -12 q 180 3 221 -12 q 110 48 139 19 q 64 116 81 76 q 47 201 47 156 l 47 488 m 129 938 l 256 865 l 383 938 l 392 938 l 261 783 l 253 783 l 121 938 l 129 938 z "},"ç":{"ha":449,"x_min":47,"x_max":464,"o":"m 47 488 q 63 572 47 533 q 108 640 79 611 q 175 684 136 668 q 260 700 214 700 q 353 681 308 700 q 431 629 399 663 l 425 624 q 359 670 400 651 q 282 689 318 689 q 213 661 238 689 q 188 586 188 633 l 188 107 q 217 28 188 58 q 293 -1 246 -1 q 388 29 342 -1 q 457 104 435 60 l 464 101 q 385 18 438 49 q 268 -12 333 -12 q 180 3 221 -12 q 110 48 139 19 q 64 116 81 76 q 47 201 47 156 l 47 488 m 189 -132 q 225 -157 204 -147 q 267 -167 246 -167 q 303 -155 290 -167 q 317 -122 317 -143 q 242 -65 317 -74 l 265 -4 l 275 -4 l 260 -44 q 352 -66 317 -44 q 388 -121 388 -87 q 363 -167 388 -149 q 297 -185 338 -185 q 233 -172 264 -185 q 183 -137 203 -160 l 189 -132 z "},"ĉ":{"ha":449,"x_min":47,"x_max":464,"o":"m 47 488 q 63 572 47 533 q 108 640 79 611 q 175 684 136 668 q 260 700 214 700 q 353 681 308 700 q 431 629 399 663 l 425 624 q 359 670 400 651 q 282 689 318 689 q 213 661 238 689 q 188 586 188 633 l 188 107 q 217 28 188 58 q 293 -1 246 -1 q 388 29 342 -1 q 457 104 435 60 l 464 101 q 385 18 438 49 q 268 -12 333 -12 q 180 3 221 -12 q 110 48 139 19 q 64 116 81 76 q 47 201 47 156 l 47 488 m 254 938 l 263 938 l 393 783 l 385 783 l 257 854 l 131 783 l 122 783 l 254 938 z "},"ď":{"ha":518,"x_min":47,"x_max":632,"o":"m 328 72 l 325 72 q 217 -12 294 -12 q 152 3 183 -12 q 98 44 121 18 q 61 103 75 69 q 47 176 47 138 l 47 500 q 62 577 47 540 q 100 641 76 614 q 156 684 124 668 q 222 700 188 700 q 325 618 297 700 l 328 618 l 328 971 l 463 971 l 463 0 l 328 0 l 328 72 m 519 817 l 547 971 l 632 971 l 528 817 l 519 817 m 328 568 q 321 613 328 592 q 303 651 314 635 q 276 678 292 668 q 246 688 261 688 q 204 665 221 688 q 188 606 188 642 l 188 88 q 205 27 188 51 q 247 3 222 3 q 277 13 263 3 q 303 40 292 24 q 321 78 314 57 q 328 119 328 99 l 328 568 z "},"đ":{"ha":518,"x_min":47,"x_max":518,"o":"m 328 72 l 325 72 q 217 -12 294 -12 q 152 3 183 -12 q 98 44 121 18 q 61 103 75 69 q 47 176 47 138 l 47 500 q 62 577 47 540 q 100 641 76 614 q 156 684 124 668 q 222 700 188 700 q 325 618 297 700 l 328 618 l 328 971 l 463 971 l 463 0 l 328 0 l 328 72 m 328 568 q 321 613 328 592 q 303 651 314 635 q 276 678 292 668 q 246 688 261 688 q 204 665 221 688 q 188 606 188 642 l 188 88 q 205 27 188 51 q 247 3 222 3 q 277 13 263 3 q 303 40 292 24 q 321 78 314 57 q 328 119 328 99 l 328 568 m 222 810 l 518 810 l 518 801 l 222 801 l 222 810 z "},"é":{"ha":510,"x_min":47,"x_max":475,"o":"m 47 496 q 64 574 47 538 q 110 640 81 611 q 178 684 139 668 q 260 700 217 700 q 342 683 303 700 q 410 639 381 667 q 456 574 439 611 q 474 496 474 538 l 474 346 l 188 346 l 188 106 q 217 27 188 57 q 293 -3 246 -3 q 346 7 319 -3 q 396 34 372 17 q 438 74 419 51 q 467 124 457 97 l 475 121 q 394 22 447 57 q 269 -12 340 -12 q 183 3 224 -12 q 113 47 143 19 q 65 111 82 74 q 47 190 47 149 l 47 496 m 333 354 l 333 600 q 314 667 333 643 q 263 692 294 692 q 208 666 228 692 q 188 600 188 640 l 188 354 l 333 354 m 238 783 l 279 939 l 382 939 l 246 783 l 238 783 z "},"ĕ":{"ha":510,"x_min":47,"x_max":475,"o":"m 47 496 q 64 574 47 538 q 110 640 81 611 q 178 684 139 668 q 260 700 217 700 q 342 683 303 700 q 410 639 381 667 q 456 574 439 611 q 474 496 474 538 l 474 346 l 188 346 l 188 106 q 217 27 188 57 q 293 -3 246 -3 q 346 7 319 -3 q 396 34 372 17 q 438 74 419 51 q 467 124 457 97 l 475 121 q 394 22 447 57 q 269 -12 340 -12 q 183 3 224 -12 q 113 47 143 19 q 65 111 82 74 q 47 190 47 149 l 47 496 m 333 354 l 333 600 q 314 667 333 643 q 263 692 294 692 q 208 666 228 692 q 188 600 188 640 l 188 354 l 333 354 m 365 918 l 372 918 q 340 826 372 861 q 258 790 308 790 q 176 826 208 790 q 144 918 144 861 l 151 918 q 183 869 151 889 q 258 849 214 849 q 334 869 303 849 q 365 918 365 889 z "},"ě":{"ha":510,"x_min":47,"x_max":475,"o":"m 47 496 q 64 574 47 538 q 110 640 81 611 q 178 684 139 668 q 260 700 217 700 q 342 683 303 700 q 410 639 381 667 q 456 574 439 611 q 474 496 474 538 l 474 346 l 188 346 l 188 106 q 217 27 188 57 q 293 -3 246 -3 q 346 7 319 -3 q 396 34 372 17 q 438 74 419 51 q 467 124 457 97 l 475 121 q 394 22 447 57 q 269 -12 340 -12 q 183 3 224 -12 q 113 47 143 19 q 65 111 82 74 q 47 190 47 149 l 47 496 m 333 354 l 333 600 q 314 667 333 643 q 263 692 294 692 q 208 666 228 692 q 188 600 188 640 l 188 354 l 333 354 m 131 938 l 257 865 l 385 938 l 393 938 l 263 783 l 254 783 l 122 938 l 131 938 z "},"ê":{"ha":510,"x_min":47,"x_max":475,"o":"m 47 496 q 64 574 47 538 q 110 640 81 611 q 178 684 139 668 q 260 700 217 700 q 342 683 303 700 q 410 639 381 667 q 456 574 439 611 q 474 496 474 538 l 474 346 l 188 346 l 188 106 q 217 27 188 57 q 293 -3 246 -3 q 346 7 319 -3 q 396 34 372 17 q 438 74 419 51 q 467 124 457 97 l 475 121 q 394 22 447 57 q 269 -12 340 -12 q 183 3 224 -12 q 113 47 143 19 q 65 111 82 74 q 47 190 47 149 l 47 496 m 333 354 l 333 600 q 314 667 333 643 q 263 692 294 692 q 208 666 228 692 q 188 600 188 640 l 188 354 l 333 354 m 256 938 l 264 938 l 394 783 l 386 783 l 258 854 l 132 783 l 124 783 l 256 938 z "},"ë":{"ha":510,"x_min":47,"x_max":475,"o":"m 47 496 q 64 574 47 538 q 110 640 81 611 q 178 684 139 668 q 260 700 217 700 q 342 683 303 700 q 410 639 381 667 q 456 574 439 611 q 474 496 474 538 l 474 346 l 188 346 l 188 106 q 217 27 188 57 q 293 -3 246 -3 q 346 7 319 -3 q 396 34 372 17 q 438 74 419 51 q 467 124 457 97 l 475 121 q 394 22 447 57 q 269 -12 340 -12 q 183 3 224 -12 q 113 47 143 19 q 65 111 82 74 q 47 190 47 149 l 47 496 m 333 354 l 333 600 q 314 667 333 643 q 263 692 294 692 q 208 666 228 692 q 188 600 188 640 l 188 354 l 333 354 m 132 856 q 146 892 132 878 q 182 906 160 906 q 219 892 204 906 q 233 856 233 878 q 219 820 233 835 q 182 806 204 806 q 146 820 160 806 q 132 856 132 835 m 285 856 q 299 891 285 876 q 336 906 314 906 q 372 892 358 906 q 386 856 386 878 q 372 819 386 833 q 336 806 358 806 q 299 820 314 806 q 285 856 285 835 z "},"è":{"ha":510,"x_min":47,"x_max":475,"o":"m 47 496 q 64 574 47 538 q 110 640 81 611 q 178 684 139 668 q 260 700 217 700 q 342 683 303 700 q 410 639 381 667 q 456 574 439 611 q 474 496 474 538 l 474 346 l 188 346 l 188 106 q 217 27 188 57 q 293 -3 246 -3 q 346 7 319 -3 q 396 34 372 17 q 438 74 419 51 q 467 124 457 97 l 475 121 q 394 22 447 57 q 269 -12 340 -12 q 183 3 224 -12 q 113 47 143 19 q 65 111 82 74 q 47 190 47 149 l 47 496 m 333 354 l 333 600 q 314 667 333 643 q 263 692 294 692 q 208 666 228 692 q 188 600 188 640 l 188 354 l 333 354 m 271 783 l 135 939 l 238 939 l 279 783 l 271 783 z "},"ē":{"ha":510,"x_min":47,"x_max":475,"o":"m 47 496 q 64 574 47 538 q 110 640 81 611 q 178 684 139 668 q 260 700 217 700 q 342 683 303 700 q 410 639 381 667 q 456 574 439 611 q 474 496 474 538 l 474 346 l 188 346 l 188 106 q 217 27 188 57 q 293 -3 246 -3 q 346 7 319 -3 q 396 34 372 17 q 438 74 419 51 q 467 124 457 97 l 475 121 q 394 22 447 57 q 269 -12 340 -12 q 183 3 224 -12 q 113 47 143 19 q 65 111 82 74 q 47 190 47 149 l 47 496 m 333 354 l 333 600 q 314 667 333 643 q 263 692 294 692 q 208 666 228 692 q 188 600 188 640 l 188 354 l 333 354 m 381 853 l 135 853 l 135 861 l 381 861 l 381 853 z "},"ę":{"ha":510,"x_min":47,"x_max":475,"o":"m 47 496 q 64 574 47 538 q 110 640 81 611 q 178 684 139 668 q 260 700 217 700 q 342 683 303 700 q 410 639 381 667 q 456 574 439 611 q 474 496 474 538 l 474 346 l 188 346 l 188 106 q 217 27 188 57 q 293 -3 246 -3 q 346 7 319 -3 q 396 34 372 17 q 438 74 419 51 q 467 124 457 97 l 475 121 q 394 22 447 57 q 269 -12 340 -12 q 183 3 224 -12 q 113 47 143 19 q 65 111 82 74 q 47 190 47 149 l 47 496 m 333 354 l 333 600 q 314 667 333 643 q 263 692 294 692 q 208 666 228 692 q 188 600 188 640 l 188 354 l 333 354 m 415 -110 q 371 -170 399 -149 q 311 -192 343 -192 q 254 -170 278 -192 q 231 -118 231 -149 q 258 -55 231 -86 q 335 4 285 -24 l 349 4 q 302 -39 317 -15 q 288 -86 288 -62 q 305 -137 288 -115 q 346 -160 322 -160 q 379 -147 363 -160 q 408 -106 396 -133 l 415 -110 z "},"ğ":{"ha":510,"x_min":29,"x_max":513,"o":"m 247 -243 q 156 -229 197 -243 q 85 -191 114 -215 q 43 -133 57 -167 q 32 -57 29 -99 l 108 -57 q 143 -185 103 -136 q 251 -235 183 -235 q 316 -223 285 -235 q 372 -192 347 -211 q 413 -149 397 -174 q 428 -99 428 -124 q 406 -44 428 -65 q 347 -24 383 -24 l 172 -24 q 80 6 114 -24 q 46 86 46 35 q 144 235 46 169 q 76 308 100 263 q 51 406 51 353 l 51 511 q 67 585 51 550 q 108 645 82 619 q 171 686 135 671 q 247 701 207 701 q 330 685 289 701 q 401 640 371 668 q 437 694 411 675 q 500 713 463 713 l 500 629 q 440 640 471 640 q 407 633 421 640 q 454 518 454 583 l 454 400 q 400 258 454 313 q 258 203 346 203 q 154 229 200 203 q 94 157 94 197 q 181 115 94 115 l 382 115 q 476 74 440 115 q 513 -29 513 33 q 492 -114 513 -75 q 437 -181 472 -153 q 353 -226 401 -210 q 247 -243 304 -243 m 190 288 q 208 233 190 254 q 254 211 226 211 q 298 232 282 211 q 314 288 314 253 l 314 615 q 297 670 314 649 q 253 692 279 692 q 208 670 225 692 q 190 615 190 649 l 190 288 m 356 918 l 363 918 q 331 826 363 861 q 249 790 299 790 q 167 826 199 790 q 135 918 135 861 l 142 918 q 173 869 142 889 q 249 849 204 849 q 324 869 293 849 q 356 918 356 889 z "},"ĝ":{"ha":510,"x_min":29,"x_max":513,"o":"m 247 -243 q 156 -229 197 -243 q 85 -191 114 -215 q 43 -133 57 -167 q 32 -57 29 -99 l 108 -57 q 143 -185 103 -136 q 251 -235 183 -235 q 316 -223 285 -235 q 372 -192 347 -211 q 413 -149 397 -174 q 428 -99 428 -124 q 406 -44 428 -65 q 347 -24 383 -24 l 172 -24 q 80 6 114 -24 q 46 86 46 35 q 144 235 46 169 q 76 308 100 263 q 51 406 51 353 l 51 511 q 67 585 51 550 q 108 645 82 619 q 171 686 135 671 q 247 701 207 701 q 330 685 289 701 q 401 640 371 668 q 437 694 411 675 q 500 713 463 713 l 500 629 q 440 640 471 640 q 407 633 421 640 q 454 518 454 583 l 454 400 q 400 258 454 313 q 258 203 346 203 q 154 229 200 203 q 94 157 94 197 q 181 115 94 115 l 382 115 q 476 74 440 115 q 513 -29 513 33 q 492 -114 513 -75 q 437 -181 472 -153 q 353 -226 401 -210 q 247 -243 304 -243 m 190 288 q 208 233 190 254 q 254 211 226 211 q 298 232 282 211 q 314 288 314 253 l 314 615 q 297 670 314 649 q 253 692 279 692 q 208 670 225 692 q 190 615 190 649 l 190 288 m 246 938 l 254 938 l 385 783 l 376 783 l 249 854 l 122 783 l 114 783 l 246 938 z "},"ģ":{"ha":510,"x_min":29,"x_max":513,"o":"m 247 -243 q 156 -229 197 -243 q 85 -191 114 -215 q 43 -133 57 -167 q 32 -57 29 -99 l 108 -57 q 143 -185 103 -136 q 251 -235 183 -235 q 316 -223 285 -235 q 372 -192 347 -211 q 413 -149 397 -174 q 428 -99 428 -124 q 406 -44 428 -65 q 347 -24 383 -24 l 172 -24 q 80 6 114 -24 q 46 86 46 35 q 144 235 46 169 q 76 308 100 263 q 51 406 51 353 l 51 511 q 67 585 51 550 q 108 645 82 619 q 171 686 135 671 q 247 701 207 701 q 330 685 289 701 q 401 640 371 668 q 437 694 411 675 q 500 713 463 713 l 500 629 q 440 640 471 640 q 407 633 421 640 q 454 518 454 583 l 454 400 q 400 258 454 313 q 258 203 346 203 q 154 229 200 203 q 94 157 94 197 q 181 115 94 115 l 382 115 q 476 74 440 115 q 513 -29 513 33 q 492 -114 513 -75 q 437 -181 472 -153 q 353 -226 401 -210 q 247 -243 304 -243 m 190 288 q 208 233 190 254 q 254 211 226 211 q 298 232 282 211 q 314 288 314 253 l 314 615 q 297 670 314 649 q 253 692 279 692 q 208 670 225 692 q 190 615 190 649 l 190 288 m 210 874 q 246 883 229 883 q 282 869 268 883 q 296 831 296 854 q 281 792 296 807 q 243 776 267 776 q 200 797 215 776 q 185 857 185 818 q 208 933 185 901 q 274 976 231 965 l 278 969 q 219 932 239 958 q 210 874 199 906 z "},"ħ":{"ha":529,"x_min":17,"x_max":482,"o":"m 197 588 q 251 674 221 647 q 329 701 282 701 q 389 690 361 701 q 438 660 417 679 q 470 614 458 640 q 482 556 482 588 l 482 0 l 338 0 l 338 608 q 294 683 338 683 q 260 670 278 683 q 227 636 242 657 q 203 590 213 615 q 194 542 194 565 l 194 0 l 58 0 l 58 972 l 194 972 l 194 588 l 197 588 m 17 813 l 313 813 l 313 804 l 17 804 l 17 813 z "},"ĥ":{"ha":529,"x_min":58,"x_max":482,"o":"m 197 588 q 251 674 221 647 q 329 701 282 701 q 389 690 361 701 q 438 660 417 679 q 470 614 458 640 q 482 556 482 588 l 482 0 l 338 0 l 338 608 q 294 683 338 683 q 260 670 278 683 q 227 636 242 657 q 203 590 213 615 q 194 542 194 565 l 194 0 l 58 0 l 58 972 l 194 972 l 194 588 l 197 588 m 307 1157 l 315 1157 l 446 1003 l 438 1003 l 310 1074 l 183 1003 l 175 1003 l 307 1157 z "},"í":{"ha":268,"x_min":67,"x_max":257,"o":"m 203 688 l 203 0 l 67 0 l 67 688 l 203 688 m 113 783 l 154 939 l 257 939 l 121 783 l 113 783 z "},"ĭ":{"ha":268,"x_min":19,"x_max":247,"o":"m 203 688 l 203 0 l 67 0 l 67 688 l 203 688 m 240 918 l 247 918 q 215 826 247 861 q 133 790 183 790 q 51 826 83 790 q 19 918 19 861 l 26 918 q 58 869 26 889 q 133 849 89 849 q 209 869 178 849 q 240 918 240 889 z "},"î":{"ha":268,"x_min":-1,"x_max":269,"o":"m 203 688 l 203 0 l 67 0 l 67 688 l 203 688 m 131 938 l 139 938 l 269 783 l 261 783 l 133 854 l 7 783 l -1 783 l 131 938 z "},"ï":{"ha":268,"x_min":7,"x_max":261,"o":"m 203 688 l 203 0 l 67 0 l 67 688 l 203 688 m 7 856 q 21 892 7 878 q 57 906 35 906 q 94 892 79 906 q 108 856 108 878 q 94 820 108 835 q 57 806 79 806 q 21 820 35 806 q 7 856 7 835 m 160 856 q 174 891 160 876 q 211 906 189 906 q 247 892 233 906 q 261 856 261 878 q 247 819 261 833 q 211 806 233 806 q 174 820 189 806 q 160 856 160 835 z "},"ì":{"ha":268,"x_min":10,"x_max":203,"o":"m 203 688 l 203 0 l 67 0 l 67 688 l 203 688 m 146 783 l 10 939 l 113 939 l 154 783 l 146 783 z "},"ī":{"ha":268,"x_min":10,"x_max":256,"o":"m 203 688 l 203 0 l 67 0 l 67 688 l 203 688 m 256 853 l 10 853 l 10 861 l 256 861 l 256 853 z "},"į":{"ha":268,"x_min":31,"x_max":215,"o":"m 58 854 q 81 908 58 886 q 136 929 103 929 q 193 908 171 929 q 215 854 215 886 q 193 799 215 821 q 136 776 171 776 q 81 799 103 776 q 58 854 58 821 m 203 688 l 203 0 l 67 0 l 67 688 l 203 688 m 215 -110 q 171 -170 199 -149 q 111 -192 143 -192 q 54 -170 78 -192 q 31 -118 31 -149 q 58 -55 31 -86 q 135 4 85 -24 l 149 4 q 102 -39 117 -15 q 88 -86 88 -62 q 105 -137 88 -115 q 146 -160 122 -160 q 179 -147 163 -160 q 208 -106 196 -133 l 215 -110 z "},"ĩ":{"ha":268,"x_min":0,"x_max":268,"o":"m 203 688 l 203 0 l 67 0 l 67 688 l 203 688 m 8 822 l 0 825 q 97 906 38 906 q 136 897 115 906 l 178 878 q 199 870 189 872 q 215 868 208 868 q 261 901 247 868 l 268 897 q 175 814 231 814 q 128 825 153 814 l 103 838 q 72 849 83 846 q 50 853 61 853 q 8 822 24 853 z "},"ı":{"ha":268,"x_min":67,"x_max":203,"o":"m 203 688 l 203 0 l 67 0 l 67 688 l 203 688 z "},"ĵ":{"ha":315,"x_min":49,"x_max":319,"o":"m 253 31 q 242 -49 253 -12 q 209 -117 232 -85 q 149 -181 186 -150 q 60 -243 113 -211 l 56 -237 q 82 -213 71 -225 q 101 -185 93 -201 q 114 -144 110 -168 q 118 -87 118 -121 l 118 688 l 253 688 l 253 31 m 181 938 l 189 938 l 319 783 l 311 783 l 183 854 l 57 783 l 49 783 l 181 938 z "},"ķ":{"ha":528,"x_min":58,"x_max":535,"o":"m 194 0 l 58 0 l 58 971 l 194 971 l 194 0 m 306 506 l 535 0 l 394 0 l 224 410 l 224 417 l 429 688 l 443 688 l 306 506 m 347 -139 q 308 -150 326 -150 q 269 -134 285 -150 q 253 -93 253 -118 q 269 -51 253 -67 q 311 -35 286 -35 q 357 -58 340 -35 q 374 -121 374 -81 q 349 -201 374 -169 q 276 -244 325 -233 l 274 -236 q 337 -199 315 -226 q 347 -139 358 -172 z "},"ĸ":{"ha":528,"x_min":58,"x_max":535,"o":"m 194 688 l 194 0 l 58 0 l 58 688 l 194 688 m 306 510 l 535 0 l 394 0 l 224 410 l 224 417 l 429 688 l 440 688 l 306 510 z "},"ĺ":{"ha":240,"x_min":58,"x_max":249,"o":"m 58 971 l 194 971 l 194 0 l 58 0 l 58 971 m 104 1031 l 146 1186 l 249 1186 l 113 1031 l 104 1031 z "},"ľ":{"ha":249,"x_min":58,"x_max":364,"o":"m 58 971 l 194 971 l 194 0 l 58 0 l 58 971 m 260 817 l 251 817 l 279 971 l 364 971 l 260 817 z "},"ł":{"ha":240,"x_min":-3,"x_max":254,"o":"m 58 486 l 1 456 l -3 463 l 58 494 l 58 971 l 194 971 l 194 565 l 251 596 l 254 589 l 194 557 l 194 0 l 58 0 l 58 486 z "},"ń":{"ha":525,"x_min":54,"x_max":478,"o":"m 193 588 q 247 675 217 649 q 325 701 278 701 q 385 690 357 701 q 433 660 413 679 q 466 614 454 640 q 478 556 478 588 l 478 0 l 333 0 l 333 608 q 289 683 333 683 q 255 670 272 683 q 223 636 238 657 q 199 590 208 615 q 190 542 190 565 l 190 0 l 54 0 l 54 689 l 190 689 l 190 588 l 193 588 m 254 783 l 296 939 l 399 939 l 263 783 l 254 783 z "},"ň":{"ha":525,"x_min":54,"x_max":478,"o":"m 193 588 q 247 675 217 649 q 325 701 278 701 q 385 690 357 701 q 433 660 413 679 q 466 614 454 640 q 478 556 478 588 l 478 0 l 333 0 l 333 608 q 289 683 333 683 q 255 670 272 683 q 223 636 238 657 q 199 590 208 615 q 190 542 190 565 l 190 0 l 54 0 l 54 689 l 190 689 l 190 588 l 193 588 m 149 938 l 275 865 l 403 938 l 411 938 l 281 783 l 272 783 l 140 938 l 149 938 z "},"ņ":{"ha":525,"x_min":54,"x_max":478,"o":"m 193 588 q 247 675 217 649 q 325 701 278 701 q 385 690 357 701 q 433 660 413 679 q 466 614 454 640 q 478 556 478 588 l 478 0 l 333 0 l 333 608 q 289 683 333 683 q 255 670 272 683 q 223 636 238 657 q 199 590 208 615 q 190 542 190 565 l 190 0 l 54 0 l 54 689 l 190 689 l 190 588 l 193 588 m 311 -139 q 272 -150 290 -150 q 233 -134 249 -150 q 217 -93 217 -118 q 233 -51 217 -67 q 275 -35 250 -35 q 321 -58 304 -35 q 338 -121 338 -81 q 313 -201 338 -169 q 240 -244 289 -233 l 238 -236 q 301 -199 279 -226 q 311 -139 322 -172 z "},"ñ":{"ha":525,"x_min":54,"x_max":478,"o":"m 193 588 q 247 675 217 649 q 325 701 278 701 q 385 690 357 701 q 433 660 413 679 q 466 614 454 640 q 478 556 478 588 l 478 0 l 333 0 l 333 608 q 289 683 333 683 q 255 670 272 683 q 223 636 238 657 q 199 590 208 615 q 190 542 190 565 l 190 0 l 54 0 l 54 689 l 190 689 l 190 588 l 193 588 m 151 822 l 143 825 q 240 906 181 906 q 279 897 258 906 l 321 878 q 342 870 332 872 q 358 868 351 868 q 404 901 390 868 l 411 897 q 318 814 374 814 q 271 825 296 814 l 246 838 q 215 849 226 846 q 193 853 204 853 q 151 822 167 853 z "},"ŀ":{"ha":396,"x_min":58,"x_max":388,"o":"m 58 971 l 194 971 l 194 0 l 58 0 l 58 971 m 263 504 q 280 549 263 532 q 325 567 297 567 q 369 549 351 567 q 388 504 388 532 q 369 460 388 478 q 325 442 351 442 q 280 460 297 442 q 263 504 263 478 z "},"ó":{"ha":519,"x_min":47,"x_max":474,"o":"m 258 700 q 340 683 301 700 q 409 639 379 667 q 456 574 439 611 q 474 496 474 538 l 474 190 q 457 112 474 149 q 412 47 440 75 q 345 3 383 19 q 264 -12 307 -12 q 181 4 221 -12 q 112 49 142 21 q 65 113 82 76 q 47 190 47 150 l 47 496 q 64 574 47 538 q 110 640 81 611 q 177 684 139 668 q 258 700 215 700 m 263 692 q 208 667 228 692 q 188 600 188 642 l 188 88 q 208 21 188 46 q 263 -4 228 -4 q 315 20 296 -4 q 333 88 333 44 l 333 600 q 315 667 333 643 q 263 692 296 692 m 235 783 l 276 939 l 379 939 l 243 783 l 235 783 z "},"ŏ":{"ha":519,"x_min":47,"x_max":474,"o":"m 258 700 q 340 683 301 700 q 409 639 379 667 q 456 574 439 611 q 474 496 474 538 l 474 190 q 457 112 474 149 q 412 47 440 75 q 345 3 383 19 q 264 -12 307 -12 q 181 4 221 -12 q 112 49 142 21 q 65 113 82 76 q 47 190 47 150 l 47 496 q 64 574 47 538 q 110 640 81 611 q 177 684 139 668 q 258 700 215 700 m 263 692 q 208 667 228 692 q 188 600 188 642 l 188 88 q 208 21 188 46 q 263 -4 228 -4 q 315 20 296 -4 q 333 88 333 44 l 333 600 q 315 667 333 643 q 263 692 296 692 m 364 918 l 371 918 q 339 826 371 861 q 257 790 307 790 q 175 826 207 790 q 143 918 143 861 l 150 918 q 181 869 150 889 q 257 849 213 849 q 333 869 301 849 q 364 918 364 889 z "},"ô":{"ha":519,"x_min":47,"x_max":474,"o":"m 258 700 q 340 683 301 700 q 409 639 379 667 q 456 574 439 611 q 474 496 474 538 l 474 190 q 457 112 474 149 q 412 47 440 75 q 345 3 383 19 q 264 -12 307 -12 q 181 4 221 -12 q 112 49 142 21 q 65 113 82 76 q 47 190 47 150 l 47 496 q 64 574 47 538 q 110 640 81 611 q 177 684 139 668 q 258 700 215 700 m 263 692 q 208 667 228 692 q 188 600 188 642 l 188 88 q 208 21 188 46 q 263 -4 228 -4 q 315 20 296 -4 q 333 88 333 44 l 333 600 q 315 667 333 643 q 263 692 296 692 m 254 938 l 263 938 l 393 783 l 385 783 l 257 854 l 131 783 l 122 783 l 254 938 z "},"ö":{"ha":519,"x_min":47,"x_max":474,"o":"m 258 700 q 340 683 301 700 q 409 639 379 667 q 456 574 439 611 q 474 496 474 538 l 474 190 q 457 112 474 149 q 412 47 440 75 q 345 3 383 19 q 264 -12 307 -12 q 181 4 221 -12 q 112 49 142 21 q 65 113 82 76 q 47 190 47 150 l 47 496 q 64 574 47 538 q 110 640 81 611 q 177 684 139 668 q 258 700 215 700 m 263 692 q 208 667 228 692 q 188 600 188 642 l 188 88 q 208 21 188 46 q 263 -4 228 -4 q 315 20 296 -4 q 333 88 333 44 l 333 600 q 315 667 333 643 q 263 692 296 692 m 129 856 q 143 892 129 878 q 179 906 157 906 q 216 892 201 906 q 231 856 231 878 q 216 820 231 835 q 179 806 201 806 q 143 820 157 806 q 129 856 129 835 m 282 856 q 297 891 282 876 q 333 906 311 906 q 369 892 356 906 q 383 856 383 878 q 369 819 383 833 q 333 806 356 806 q 297 820 311 806 q 282 856 282 835 z "},"œ":{"ha":794,"x_min":47,"x_max":761,"o":"m 261 700 q 338 685 301 700 q 401 643 374 671 l 404 643 q 469 685 432 671 q 547 700 507 700 q 631 683 592 700 q 698 639 669 667 q 743 573 726 611 q 760 492 760 535 l 760 346 l 474 346 l 474 106 q 503 27 474 57 q 578 -3 532 -3 q 631 7 604 -3 q 682 34 658 17 q 725 74 706 51 q 754 124 744 97 l 761 121 q 680 22 733 57 q 557 -12 626 -12 q 408 44 468 -12 l 404 44 q 342 2 376 17 q 267 -12 307 -12 q 183 4 222 -12 q 113 49 143 21 q 65 113 82 76 q 47 190 47 150 l 47 496 q 65 574 47 538 q 111 640 82 611 q 179 684 140 668 q 261 700 218 700 m 333 600 q 313 665 333 639 q 263 692 293 692 q 209 665 231 692 q 188 600 188 638 l 188 88 q 209 23 188 50 q 263 -4 231 -4 q 314 22 294 -4 q 333 88 333 47 l 333 600 m 474 607 l 474 354 l 619 354 l 619 604 q 599 666 619 640 q 549 692 579 692 q 496 667 518 692 q 474 607 474 642 z "},"ò":{"ha":519,"x_min":47,"x_max":474,"o":"m 258 700 q 340 683 301 700 q 409 639 379 667 q 456 574 439 611 q 474 496 474 538 l 474 190 q 457 112 474 149 q 412 47 440 75 q 345 3 383 19 q 264 -12 307 -12 q 181 4 221 -12 q 112 49 142 21 q 65 113 82 76 q 47 190 47 150 l 47 496 q 64 574 47 538 q 110 640 81 611 q 177 684 139 668 q 258 700 215 700 m 263 692 q 208 667 228 692 q 188 600 188 642 l 188 88 q 208 21 188 46 q 263 -4 228 -4 q 315 20 296 -4 q 333 88 333 44 l 333 600 q 315 667 333 643 q 263 692 296 692 m 269 783 l 133 939 l 236 939 l 278 783 l 269 783 z "},"ő":{"ha":519,"x_min":47,"x_max":474,"o":"m 258 700 q 340 683 301 700 q 409 639 379 667 q 456 574 439 611 q 474 496 474 538 l 474 190 q 457 112 474 149 q 412 47 440 75 q 345 3 383 19 q 264 -12 307 -12 q 181 4 221 -12 q 112 49 142 21 q 65 113 82 76 q 47 190 47 150 l 47 496 q 64 574 47 538 q 110 640 81 611 q 177 684 139 668 q 258 700 215 700 m 263 692 q 208 667 228 692 q 188 600 188 642 l 188 88 q 208 21 188 46 q 263 -4 228 -4 q 315 20 296 -4 q 333 88 333 44 l 333 600 q 315 667 333 643 q 263 692 296 692 m 315 783 l 357 939 l 451 939 l 324 783 l 315 783 m 172 783 l 214 939 l 307 939 l 181 783 l 172 783 z "},"ō":{"ha":519,"x_min":47,"x_max":474,"o":"m 258 700 q 340 683 301 700 q 409 639 379 667 q 456 574 439 611 q 474 496 474 538 l 474 190 q 457 112 474 149 q 412 47 440 75 q 345 3 383 19 q 264 -12 307 -12 q 181 4 221 -12 q 112 49 142 21 q 65 113 82 76 q 47 190 47 150 l 47 496 q 64 574 47 538 q 110 640 81 611 q 177 684 139 668 q 258 700 215 700 m 263 692 q 208 667 228 692 q 188 600 188 642 l 188 88 q 208 21 188 46 q 263 -4 228 -4 q 315 20 296 -4 q 333 88 333 44 l 333 600 q 315 667 333 643 q 263 692 296 692 m 379 853 l 133 853 l 133 861 l 379 861 l 379 853 z "},"ø":{"ha":519,"x_min":47,"x_max":474,"o":"m 94 67 q 60 124 72 93 q 47 190 47 156 l 47 496 q 64 574 47 538 q 110 640 81 611 q 177 684 139 668 q 258 700 215 700 q 347 681 306 700 q 418 631 388 663 l 458 699 l 468 693 l 426 621 q 461 563 449 594 q 474 496 474 532 l 474 190 q 457 112 474 149 q 412 47 440 75 q 345 3 383 19 q 264 -12 307 -12 q 175 7 217 -12 q 103 58 133 26 l 61 -14 l 51 -8 l 94 67 m 263 692 q 208 667 228 692 q 188 600 188 642 l 188 229 l 333 482 l 333 600 q 314 667 333 643 q 263 692 294 692 m 188 88 q 208 21 188 46 q 263 -4 228 -4 q 315 20 296 -4 q 333 88 333 44 l 333 461 l 188 207 l 188 88 z "},"ǿ":{"ha":519,"x_min":47,"x_max":474,"o":"m 94 67 q 60 124 72 93 q 47 190 47 156 l 47 496 q 64 574 47 538 q 110 640 81 611 q 177 684 139 668 q 258 700 215 700 q 347 681 306 700 q 418 631 388 663 l 458 699 l 468 693 l 426 621 q 461 563 449 594 q 474 496 474 532 l 474 190 q 457 112 474 149 q 412 47 440 75 q 345 3 383 19 q 264 -12 307 -12 q 175 7 217 -12 q 103 58 133 26 l 61 -14 l 51 -8 l 94 67 m 263 692 q 208 667 228 692 q 188 600 188 642 l 188 229 l 333 482 l 333 600 q 314 667 333 643 q 263 692 294 692 m 188 88 q 208 21 188 46 q 263 -4 228 -4 q 315 20 296 -4 q 333 88 333 44 l 333 461 l 188 207 l 188 88 m 235 783 l 276 939 l 379 939 l 243 783 l 235 783 z "},"õ":{"ha":519,"x_min":47,"x_max":474,"o":"m 258 700 q 340 683 301 700 q 409 639 379 667 q 456 574 439 611 q 474 496 474 538 l 474 190 q 457 112 474 149 q 412 47 440 75 q 345 3 383 19 q 264 -12 307 -12 q 181 4 221 -12 q 112 49 142 21 q 65 113 82 76 q 47 190 47 150 l 47 496 q 64 574 47 538 q 110 640 81 611 q 177 684 139 668 q 258 700 215 700 m 263 692 q 208 667 228 692 q 188 600 188 642 l 188 88 q 208 21 188 46 q 263 -4 228 -4 q 315 20 296 -4 q 333 88 333 44 l 333 600 q 315 667 333 643 q 263 692 296 692 m 132 822 l 124 825 q 221 906 161 906 q 260 897 239 906 l 301 878 q 322 870 313 872 q 339 868 332 868 q 385 901 371 868 l 392 897 q 299 814 354 814 q 251 825 276 814 l 226 838 q 196 849 207 846 q 174 853 185 853 q 132 822 147 853 z "},"ŕ":{"ha":361,"x_min":54,"x_max":350,"o":"m 188 688 l 188 547 l 192 547 q 249 658 207 617 q 350 700 292 700 l 350 586 q 314 590 332 590 q 238 572 274 590 q 188 522 203 554 l 188 0 l 54 0 l 54 688 l 188 688 m 182 783 l 224 939 l 326 939 l 190 783 l 182 783 z "},"ř":{"ha":361,"x_min":54,"x_max":350,"o":"m 188 688 l 188 547 l 192 547 q 249 658 207 617 q 350 700 292 700 l 350 586 q 314 590 332 590 q 238 572 274 590 q 188 522 203 554 l 188 0 l 54 0 l 54 688 l 188 688 m 76 938 l 203 865 l 331 938 l 339 938 l 208 783 l 200 783 l 68 938 l 76 938 z "},"ŗ":{"ha":361,"x_min":54,"x_max":350,"o":"m 188 688 l 188 547 l 192 547 q 249 658 207 617 q 350 700 292 700 l 350 586 q 314 590 332 590 q 238 572 274 590 q 188 522 203 554 l 188 0 l 54 0 l 54 688 l 188 688 m 174 -139 q 135 -150 153 -150 q 95 -134 111 -150 q 79 -93 79 -118 q 96 -51 79 -67 q 138 -35 113 -35 q 183 -58 167 -35 q 200 -121 200 -81 q 176 -201 200 -169 q 103 -244 151 -233 l 100 -236 q 163 -199 142 -226 q 174 -139 185 -172 z "},"ś":{"ha":401,"x_min":29,"x_max":388,"o":"m 358 639 q 306 674 335 663 q 250 686 278 686 q 185 663 210 686 q 160 601 160 639 q 190 514 160 564 l 358 236 q 388 144 388 189 q 372 83 388 111 q 331 33 357 54 q 271 0 306 13 q 196 -12 236 -12 q 29 57 99 -12 l 35 63 q 100 17 64 33 q 169 0 136 0 q 230 22 207 0 q 253 82 253 44 q 208 207 253 133 l 65 438 q 31 543 31 496 q 45 605 31 576 q 85 654 60 633 q 144 688 110 675 q 217 700 178 700 q 365 644 303 700 l 358 639 m 182 783 l 224 939 l 326 939 l 190 783 l 182 783 z "},"š":{"ha":401,"x_min":29,"x_max":388,"o":"m 358 639 q 306 674 335 663 q 250 686 278 686 q 185 663 210 686 q 160 601 160 639 q 190 514 160 564 l 358 236 q 388 144 388 189 q 372 83 388 111 q 331 33 357 54 q 271 0 306 13 q 196 -12 236 -12 q 29 57 99 -12 l 35 63 q 100 17 64 33 q 169 0 136 0 q 230 22 207 0 q 253 82 253 44 q 208 207 253 133 l 65 438 q 31 543 31 496 q 45 605 31 576 q 85 654 60 633 q 144 688 110 675 q 217 700 178 700 q 365 644 303 700 l 358 639 m 76 938 l 203 865 l 331 938 l 339 938 l 208 783 l 200 783 l 68 938 l 76 938 z "},"ș":{"ha":401,"x_min":29,"x_max":388,"o":"m 358 639 q 306 674 335 663 q 250 686 278 686 q 185 663 210 686 q 160 601 160 639 q 190 514 160 564 l 358 236 q 388 144 388 189 q 372 83 388 111 q 331 33 357 54 q 271 0 306 13 q 196 -12 236 -12 q 29 57 99 -12 l 35 63 q 100 17 64 33 q 169 0 136 0 q 230 22 207 0 q 253 82 253 44 q 208 207 253 133 l 65 438 q 31 543 31 496 q 45 605 31 576 q 85 654 60 633 q 144 688 110 675 q 217 700 178 700 q 365 644 303 700 l 358 639 m 250 -139 q 211 -150 229 -150 q 172 -134 188 -150 q 156 -93 156 -118 q 172 -51 156 -67 q 214 -35 189 -35 q 260 -58 243 -35 q 276 -121 276 -81 q 252 -201 276 -169 q 179 -244 228 -233 l 176 -236 q 240 -199 218 -226 q 250 -139 261 -172 z "},"ŝ":{"ha":401,"x_min":29,"x_max":388,"o":"m 358 639 q 306 674 335 663 q 250 686 278 686 q 185 663 210 686 q 160 601 160 639 q 190 514 160 564 l 358 236 q 388 144 388 189 q 372 83 388 111 q 331 33 357 54 q 271 0 306 13 q 196 -12 236 -12 q 29 57 99 -12 l 35 63 q 100 17 64 33 q 169 0 136 0 q 230 22 207 0 q 253 82 253 44 q 208 207 253 133 l 65 438 q 31 543 31 496 q 45 605 31 576 q 85 654 60 633 q 144 688 110 675 q 217 700 178 700 q 365 644 303 700 l 358 639 m 201 938 l 210 938 l 340 783 l 332 783 l 204 854 l 78 783 l 69 783 l 201 938 z "},"ŧ":{"ha":317,"x_min":1,"x_max":342,"o":"m 189 -12 q 103 29 135 -12 q 72 142 72 71 l 72 533 l 1 533 l 1 542 l 72 542 l 72 679 l 1 679 l 1 688 l 72 688 l 72 844 l 207 890 l 207 688 l 342 688 l 342 679 l 207 679 l 207 542 l 342 542 l 342 533 l 207 533 l 207 89 q 219 36 207 56 q 254 17 232 17 q 292 28 271 17 q 332 64 313 40 l 338 58 q 267 7 308 26 q 189 -12 226 -12 z "},"ť":{"ha":317,"x_min":1,"x_max":378,"o":"m 265 817 l 294 971 l 378 971 l 274 817 l 265 817 m 189 -12 q 103 29 135 -12 q 72 142 72 71 l 72 679 l 1 679 l 1 688 l 72 688 l 72 844 l 207 890 l 207 688 l 342 688 l 342 679 l 207 679 l 207 89 q 219 36 207 56 q 254 17 232 17 q 292 28 271 17 q 332 64 313 40 l 338 58 q 267 7 308 26 q 189 -12 226 -12 z "},"ţ":{"ha":317,"x_min":1,"x_max":342,"o":"m 189 -12 q 103 29 135 -12 q 72 142 72 71 l 72 679 l 1 679 l 1 688 l 72 688 l 72 844 l 207 890 l 207 688 l 342 688 l 342 679 l 207 679 l 207 89 q 219 36 207 56 q 254 17 232 17 q 292 28 271 17 q 332 64 313 40 l 338 58 q 267 7 308 26 q 189 -12 226 -12 m 111 -132 q 147 -157 126 -147 q 189 -167 168 -167 q 226 -155 213 -167 q 239 -122 239 -143 q 164 -65 239 -74 l 188 -4 l 197 -4 l 182 -44 q 274 -66 239 -44 q 310 -121 310 -87 q 285 -167 310 -149 q 219 -185 260 -185 q 156 -172 186 -185 q 106 -137 125 -160 l 111 -132 z "},"ț":{"ha":317,"x_min":1,"x_max":342,"o":"m 189 -12 q 103 29 135 -12 q 72 142 72 71 l 72 679 l 1 679 l 1 688 l 72 688 l 72 844 l 207 890 l 207 688 l 342 688 l 342 679 l 207 679 l 207 89 q 219 36 207 56 q 254 17 232 17 q 292 28 271 17 q 332 64 313 40 l 338 58 q 267 7 308 26 q 189 -12 226 -12 m 246 -139 q 207 -150 225 -150 q 167 -134 183 -150 q 151 -93 151 -118 q 168 -51 151 -67 q 210 -35 185 -35 q 256 -58 239 -35 q 272 -121 272 -81 q 248 -201 272 -169 q 175 -244 224 -233 l 172 -236 q 235 -199 214 -226 q 246 -139 257 -172 z "},"ú":{"ha":515,"x_min":46,"x_max":469,"o":"m 331 101 q 277 14 307 40 q 200 -12 247 -12 q 139 -1 167 -12 q 90 29 111 10 q 58 76 69 49 q 46 133 46 103 l 46 689 l 190 689 l 190 81 q 235 6 190 6 q 269 19 251 6 q 301 53 286 32 q 324 99 315 74 q 333 147 333 124 l 333 689 l 469 689 l 469 0 l 333 0 l 333 101 l 331 101 m 238 783 l 279 939 l 382 939 l 246 783 l 238 783 z "},"ŭ":{"ha":515,"x_min":46,"x_max":469,"o":"m 331 101 q 277 14 307 40 q 200 -12 247 -12 q 139 -1 167 -12 q 90 29 111 10 q 58 76 69 49 q 46 133 46 103 l 46 689 l 190 689 l 190 81 q 235 6 190 6 q 269 19 251 6 q 301 53 286 32 q 324 99 315 74 q 333 147 333 124 l 333 689 l 469 689 l 469 0 l 333 0 l 333 101 l 331 101 m 367 918 l 374 918 q 342 826 374 861 q 260 790 310 790 q 178 826 210 790 q 146 918 146 861 l 153 918 q 184 869 153 889 q 260 849 215 849 q 335 869 304 849 q 367 918 367 889 z "},"û":{"ha":515,"x_min":46,"x_max":469,"o":"m 331 101 q 277 14 307 40 q 200 -12 247 -12 q 139 -1 167 -12 q 90 29 111 10 q 58 76 69 49 q 46 133 46 103 l 46 689 l 190 689 l 190 81 q 235 6 190 6 q 269 19 251 6 q 301 53 286 32 q 324 99 315 74 q 333 147 333 124 l 333 689 l 469 689 l 469 0 l 333 0 l 333 101 l 331 101 m 257 938 l 265 938 l 396 783 l 388 783 l 260 854 l 133 783 l 125 783 l 257 938 z "},"ü":{"ha":515,"x_min":46,"x_max":469,"o":"m 331 101 q 277 14 307 40 q 200 -12 247 -12 q 139 -1 167 -12 q 90 29 111 10 q 58 76 69 49 q 46 133 46 103 l 46 689 l 190 689 l 190 81 q 235 6 190 6 q 269 19 251 6 q 301 53 286 32 q 324 99 315 74 q 333 147 333 124 l 333 689 l 469 689 l 469 0 l 333 0 l 333 101 l 331 101 m 133 856 q 147 892 133 878 q 183 906 161 906 q 220 892 206 906 q 235 856 235 878 q 220 820 235 835 q 183 806 206 806 q 147 820 161 806 q 133 856 133 835 m 286 856 q 301 891 286 876 q 338 906 315 906 q 374 892 360 906 q 388 856 388 878 q 374 819 388 833 q 338 806 360 806 q 301 820 315 806 q 286 856 286 835 z "},"ù":{"ha":515,"x_min":46,"x_max":469,"o":"m 331 101 q 277 14 307 40 q 200 -12 247 -12 q 139 -1 167 -12 q 90 29 111 10 q 58 76 69 49 q 46 133 46 103 l 46 689 l 190 689 l 190 81 q 235 6 190 6 q 269 19 251 6 q 301 53 286 32 q 324 99 315 74 q 333 147 333 124 l 333 689 l 469 689 l 469 0 l 333 0 l 333 101 l 331 101 m 272 783 l 136 939 l 239 939 l 281 783 l 272 783 z "},"ű":{"ha":515,"x_min":46,"x_max":469,"o":"m 331 101 q 277 14 307 40 q 200 -12 247 -12 q 139 -1 167 -12 q 90 29 111 10 q 58 76 69 49 q 46 133 46 103 l 46 689 l 190 689 l 190 81 q 235 6 190 6 q 269 19 251 6 q 301 53 286 32 q 324 99 315 74 q 333 147 333 124 l 333 689 l 469 689 l 469 0 l 333 0 l 333 101 l 331 101 m 318 783 l 360 939 l 454 939 l 326 783 l 318 783 m 175 783 l 217 939 l 310 939 l 183 783 l 175 783 z "},"ū":{"ha":515,"x_min":46,"x_max":469,"o":"m 331 101 q 277 14 307 40 q 200 -12 247 -12 q 139 -1 167 -12 q 90 29 111 10 q 58 76 69 49 q 46 133 46 103 l 46 689 l 190 689 l 190 81 q 235 6 190 6 q 269 19 251 6 q 301 53 286 32 q 324 99 315 74 q 333 147 333 124 l 333 689 l 469 689 l 469 0 l 333 0 l 333 101 l 331 101 m 382 853 l 136 853 l 136 861 l 382 861 l 382 853 z "},"ų":{"ha":515,"x_min":46,"x_max":469,"o":"m 331 101 q 277 14 307 40 q 200 -12 247 -12 q 139 -1 167 -12 q 90 29 111 10 q 58 76 69 49 q 46 133 46 103 l 46 689 l 190 689 l 190 81 q 235 6 190 6 q 269 19 251 6 q 301 53 286 32 q 324 99 315 74 q 333 147 333 124 l 333 689 l 469 689 l 469 0 l 333 0 l 333 101 l 331 101 m 417 -110 q 372 -170 400 -149 q 313 -192 344 -192 q 256 -170 279 -192 q 232 -118 232 -149 q 259 -55 232 -86 q 336 4 286 -24 l 350 4 q 303 -39 318 -15 q 289 -86 289 -62 q 306 -137 289 -115 q 347 -160 324 -160 q 381 -147 364 -160 q 410 -106 397 -133 l 417 -110 z "},"ů":{"ha":515,"x_min":46,"x_max":469,"o":"m 331 101 q 277 14 307 40 q 200 -12 247 -12 q 139 -1 167 -12 q 90 29 111 10 q 58 76 69 49 q 46 133 46 103 l 46 689 l 190 689 l 190 81 q 235 6 190 6 q 269 19 251 6 q 301 53 286 32 q 324 99 315 74 q 333 147 333 124 l 333 689 l 469 689 l 469 0 l 333 0 l 333 101 l 331 101 m 183 865 q 206 919 183 897 q 260 942 228 942 q 314 919 292 942 q 336 865 336 897 q 314 811 336 833 q 260 789 292 789 q 206 811 228 789 q 183 865 183 833 m 192 865 q 212 817 192 838 q 260 797 232 797 q 308 817 288 797 q 328 865 328 838 q 308 913 328 893 q 260 933 289 933 q 212 913 232 933 q 192 865 192 893 z "},"ũ":{"ha":515,"x_min":46,"x_max":469,"o":"m 331 101 q 277 14 307 40 q 200 -12 247 -12 q 139 -1 167 -12 q 90 29 111 10 q 58 76 69 49 q 46 133 46 103 l 46 689 l 190 689 l 190 81 q 235 6 190 6 q 269 19 251 6 q 301 53 286 32 q 324 99 315 74 q 333 147 333 124 l 333 689 l 469 689 l 469 0 l 333 0 l 333 101 l 331 101 m 135 822 l 126 825 q 224 906 164 906 q 263 897 242 906 l 304 878 q 325 870 315 872 q 342 868 335 868 q 388 901 374 868 l 394 897 q 301 814 357 814 q 254 825 279 814 l 229 838 q 199 849 210 846 q 176 853 188 853 q 135 822 150 853 z "},"ẃ":{"ha":676,"x_min":18,"x_max":660,"o":"m 18 688 l 158 688 l 265 243 l 268 243 l 333 531 l 296 688 l 436 688 l 543 243 l 546 243 l 649 688 l 660 688 l 499 0 l 467 0 l 342 503 l 339 503 l 221 0 l 189 0 l 18 688 m 335 783 l 376 939 l 479 939 l 343 783 l 335 783 z "},"ŵ":{"ha":676,"x_min":18,"x_max":660,"o":"m 18 688 l 158 688 l 265 243 l 268 243 l 333 531 l 296 688 l 436 688 l 543 243 l 546 243 l 649 688 l 660 688 l 499 0 l 467 0 l 342 503 l 339 503 l 221 0 l 189 0 l 18 688 m 353 938 l 361 938 l 492 783 l 483 783 l 356 854 l 229 783 l 221 783 l 353 938 z "},"ẅ":{"ha":676,"x_min":18,"x_max":660,"o":"m 18 688 l 158 688 l 265 243 l 268 243 l 333 531 l 296 688 l 436 688 l 543 243 l 546 243 l 649 688 l 660 688 l 499 0 l 467 0 l 342 503 l 339 503 l 221 0 l 189 0 l 18 688 m 229 856 q 243 892 229 878 q 279 906 257 906 q 316 892 301 906 q 331 856 331 878 q 316 820 331 835 q 279 806 301 806 q 243 820 257 806 q 229 856 229 835 m 382 856 q 397 891 382 876 q 433 906 411 906 q 469 892 456 906 q 483 856 483 878 q 469 819 483 833 q 433 806 456 806 q 397 820 411 806 q 382 856 382 835 z "},"ẁ":{"ha":676,"x_min":18,"x_max":660,"o":"m 18 688 l 158 688 l 265 243 l 268 243 l 333 531 l 296 688 l 436 688 l 543 243 l 546 243 l 649 688 l 660 688 l 499 0 l 467 0 l 342 503 l 339 503 l 221 0 l 189 0 l 18 688 m 368 783 l 232 939 l 335 939 l 376 783 l 368 783 z "},"ý":{"ha":447,"x_min":18,"x_max":429,"o":"m 160 689 l 278 256 l 290 214 l 293 214 l 418 689 l 429 689 l 178 -243 l 167 -243 l 232 0 l 213 0 l 18 689 l 160 689 m 228 783 l 269 939 l 372 939 l 236 783 l 228 783 z "},"ŷ":{"ha":447,"x_min":18,"x_max":429,"o":"m 160 689 l 278 256 l 290 214 l 293 214 l 418 689 l 429 689 l 178 -243 l 167 -243 l 232 0 l 213 0 l 18 689 l 160 689 m 246 938 l 254 938 l 385 783 l 376 783 l 249 854 l 122 783 l 114 783 l 246 938 z "},"ÿ":{"ha":447,"x_min":18,"x_max":429,"o":"m 160 689 l 278 256 l 290 214 l 293 214 l 418 689 l 429 689 l 178 -243 l 167 -243 l 232 0 l 213 0 l 18 689 l 160 689 m 122 856 q 136 892 122 878 q 172 906 150 906 q 209 892 194 906 q 224 856 224 878 q 209 820 224 835 q 172 806 194 806 q 136 820 150 806 q 122 856 122 835 m 275 856 q 290 891 275 876 q 326 906 304 906 q 363 892 349 906 q 376 856 376 878 q 363 819 376 833 q 326 806 349 806 q 290 820 304 806 q 275 856 275 835 z "},"ỳ":{"ha":447,"x_min":18,"x_max":429,"o":"m 160 689 l 278 256 l 290 214 l 293 214 l 418 689 l 429 689 l 178 -243 l 167 -243 l 232 0 l 213 0 l 18 689 l 160 689 m 261 783 l 125 939 l 228 939 l 269 783 l 261 783 z "},"ź":{"ha":483,"x_min":43,"x_max":454,"o":"m 43 0 l 43 8 l 297 679 l 89 679 l 89 688 l 453 688 l 453 679 l 199 8 l 454 8 l 454 0 l 43 0 m 243 783 l 285 939 l 388 939 l 251 783 l 243 783 z "},"ž":{"ha":483,"x_min":43,"x_max":454,"o":"m 43 0 l 43 8 l 297 679 l 89 679 l 89 688 l 453 688 l 453 679 l 199 8 l 454 8 l 454 0 l 43 0 m 138 938 l 264 865 l 392 938 l 400 938 l 269 783 l 261 783 l 129 938 l 138 938 z "},"¥":{"ha":471,"x_min":-6,"x_max":478,"o":"m 314 472 l 317 472 l 465 971 l 478 971 l 321 447 l 321 442 l 474 442 l 474 433 l 321 433 l 321 314 l 474 314 l 474 306 l 321 306 l 321 0 l 176 0 l 176 306 l 28 306 l 28 314 l 176 314 l 176 433 l 28 433 l 28 442 l 174 442 l -6 971 l 144 971 l 314 472 z "},"€":{"ha":535,"x_min":0,"x_max":532,"o":"m 60 411 l 0 411 l 0 419 l 60 419 l 60 546 l 0 546 l 0 554 l 60 554 l 60 715 q 77 826 60 776 q 127 910 94 875 q 206 965 160 946 q 307 983 251 983 q 500 901 425 983 l 493 896 q 419 951 461 932 q 332 971 376 971 q 204 811 204 971 l 204 554 l 442 554 l 436 546 l 204 546 l 204 419 l 415 419 l 411 411 l 204 411 l 204 167 q 233 39 204 78 q 325 0 261 0 q 390 10 358 0 q 449 36 422 19 q 494 77 475 53 q 524 131 514 101 l 532 128 q 446 24 504 61 q 308 -12 388 -12 q 126 63 193 -12 q 60 265 60 138 l 60 411 z "},"Ĩ":{"ha":279,"x_min":7,"x_max":275,"o":"m 213 971 l 213 0 l 68 0 l 68 971 l 213 971 m 15 1069 l 7 1072 q 104 1153 44 1153 q 143 1144 122 1153 l 185 1125 q 206 1117 196 1119 q 222 1115 215 1115 q 268 1149 254 1115 l 275 1144 q 182 1061 238 1061 q 135 1072 160 1061 l 110 1085 q 79 1097 90 1093 q 57 1100 68 1100 q 15 1069 31 1100 z "},"Ō":{"ha":615,"x_min":60,"x_max":557,"o":"m 60 718 q 78 826 60 776 q 129 910 96 875 q 208 964 163 944 q 310 983 254 983 q 410 964 365 983 q 488 910 456 944 q 539 826 521 875 q 557 718 557 778 l 557 264 q 539 151 557 201 q 488 64 521 100 q 410 8 456 28 q 308 -12 364 -12 q 207 8 253 -12 q 128 64 161 28 q 78 151 96 100 q 60 264 60 201 l 60 718 m 204 157 q 308 -4 204 -4 q 413 157 413 -4 l 413 814 q 388 936 413 897 q 310 975 363 975 q 204 814 204 975 l 204 157 m 431 1100 l 185 1100 l 185 1108 l 431 1108 l 431 1100 z "},"E":{"ha":453,"x_min":68,"x_max":419,"o":"m 419 971 l 419 963 l 213 963 l 213 500 l 390 500 l 390 492 l 213 492 l 213 8 l 419 8 l 419 0 l 68 0 l 68 971 l 419 971 z "},"W":{"ha":682,"x_min":-7,"x_max":688,"o":"m 554 303 l 557 303 l 568 358 l 678 971 l 688 971 l 510 0 l 472 0 l 346 596 l 343 596 l 232 0 l 194 0 l -7 971 l 140 971 l 276 303 l 279 303 l 290 358 l 339 638 l 271 971 l 417 971 l 554 303 z "},"f":{"ha":286,"x_min":6,"x_max":389,"o":"m 76 688 l 76 815 q 124 936 76 889 q 247 983 172 983 q 389 939 317 983 l 383 932 q 283 968 324 968 q 213 868 213 968 l 213 688 l 347 688 l 347 679 l 213 679 l 213 0 l 76 0 l 76 679 l 6 679 l 6 688 l 76 688 z "},"n":{"ha":525,"x_min":54,"x_max":478,"o":"m 193 588 q 247 675 217 649 q 325 701 278 701 q 385 690 357 701 q 433 660 413 679 q 466 614 454 640 q 478 556 478 588 l 478 0 l 333 0 l 333 608 q 289 683 333 683 q 255 670 272 683 q 223 636 238 657 q 199 590 208 615 q 190 542 190 565 l 190 0 l 54 0 l 54 689 l 190 689 l 190 588 l 193 588 z "},"u":{"ha":515,"x_min":46,"x_max":469,"o":"m 331 101 q 277 14 307 40 q 200 -12 247 -12 q 139 -1 167 -12 q 90 29 111 10 q 58 76 69 49 q 46 133 46 103 l 46 689 l 190 689 l 190 81 q 235 6 190 6 q 269 19 251 6 q 301 53 286 32 q 324 99 315 74 q 333 147 333 124 l 333 689 l 469 689 l 469 0 l 333 0 l 333 101 l 331 101 z "},"w":{"ha":676,"x_min":18,"x_max":660,"o":"m 18 688 l 158 688 l 265 243 l 268 243 l 333 531 l 296 688 l 436 688 l 543 243 l 546 243 l 649 688 l 660 688 l 499 0 l 467 0 l 342 503 l 339 503 l 221 0 l 189 0 l 18 688 z "},"ŋ":{"ha":532,"x_min":54,"x_max":478,"o":"m 324 701 q 385 690 357 701 q 433 660 413 679 q 466 614 454 640 q 478 556 478 588 l 478 31 q 432 -114 478 -51 q 276 -242 386 -176 l 272 -236 q 297 -213 286 -225 q 317 -185 308 -201 q 329 -144 325 -168 q 333 -86 333 -121 l 333 608 q 290 683 333 683 q 256 670 274 683 q 223 636 238 657 q 199 590 208 615 q 190 542 190 565 l 190 0 l 54 0 l 54 689 l 190 689 l 190 588 l 193 588 q 247 675 217 649 q 324 701 276 701 z "},"ﬁ":{"ha":553,"x_min":6,"x_max":488,"o":"m 76 688 l 76 815 q 124 936 76 889 q 247 983 172 983 q 328 968 288 983 q 408 925 369 953 l 403 918 q 340 955 371 942 q 283 968 308 968 q 213 868 213 968 l 213 688 l 488 688 l 488 0 l 351 0 l 351 679 l 213 679 l 213 0 l 76 0 l 76 679 l 6 679 l 6 688 l 76 688 z "},"ﬂ":{"ha":535,"x_min":6,"x_max":488,"o":"m 76 688 l 76 815 q 124 936 76 889 q 247 983 172 983 q 351 958 300 983 l 351 971 l 488 971 l 488 0 l 351 0 l 351 679 l 213 679 l 213 0 l 76 0 l 76 679 l 6 679 l 6 688 l 76 688 m 351 688 l 351 950 q 283 968 311 968 q 213 868 213 968 l 213 688 l 351 688 z "},"ﬀ":{"ha":560,"x_min":6,"x_max":664,"o":"m 351 0 l 351 679 l 213 679 l 213 0 l 76 0 l 76 679 l 6 679 l 6 688 l 76 688 l 76 794 q 90 865 76 832 q 127 921 103 897 q 184 958 151 944 q 256 971 217 971 q 324 960 289 971 q 393 929 360 950 q 519 983 439 983 q 664 939 592 983 l 658 932 q 558 968 601 968 q 488 868 488 968 l 488 688 l 622 688 l 622 679 l 488 679 l 488 0 l 351 0 m 213 688 l 351 688 l 351 815 q 360 872 351 844 q 388 922 369 900 q 292 956 336 956 q 233 928 254 956 q 213 847 213 900 l 213 688 z "},"ﬃ":{"ha":828,"x_min":6,"x_max":763,"o":"m 351 0 l 351 679 l 213 679 l 213 0 l 76 0 l 76 679 l 6 679 l 6 688 l 76 688 l 76 794 q 90 865 76 832 q 127 921 103 897 q 184 958 151 944 q 256 971 217 971 q 324 960 289 971 q 393 929 360 950 q 519 983 439 983 q 603 968 561 983 q 683 925 644 953 l 678 918 q 615 955 646 942 q 558 968 583 968 q 488 868 488 968 l 488 688 l 763 688 l 763 0 l 626 0 l 626 679 l 488 679 l 488 0 l 351 0 m 293 956 q 233 928 254 956 q 213 847 213 900 l 213 688 l 351 688 l 351 815 q 361 872 351 843 q 388 922 371 900 q 293 956 336 956 z "},"ﬄ":{"ha":808,"x_min":6,"x_max":763,"o":"m 351 0 l 351 679 l 213 679 l 213 0 l 76 0 l 76 679 l 6 679 l 6 688 l 76 688 l 76 794 q 90 865 76 832 q 128 921 104 897 q 184 958 151 944 q 256 971 217 971 q 393 929 326 971 q 519 983 439 983 q 626 958 575 983 l 626 971 l 763 971 l 763 0 l 626 0 l 626 679 l 488 679 l 488 0 l 351 0 m 626 688 l 626 950 q 558 968 586 968 q 488 868 488 968 l 488 688 l 626 688 m 293 956 q 233 928 254 956 q 213 847 213 900 l 213 688 l 351 688 l 351 815 q 361 872 351 843 q 388 922 371 900 q 293 956 336 956 z "},"¼":{"ha":492,"x_min":39,"x_max":453,"o":"m 81 944 l 43 926 l 39 933 l 113 971 l 140 971 l 140 553 l 81 553 l 81 944 m 357 971 l 368 971 l 132 0 l 121 0 l 357 971 m 258 110 l 393 418 l 421 418 l 421 128 l 453 128 l 453 81 l 421 81 l 421 0 l 361 0 l 361 81 l 258 81 l 258 110 m 357 318 l 278 129 l 278 128 l 361 128 l 361 318 l 357 318 z "},"Š":{"ha":507,"x_min":60,"x_max":474,"o":"m 336 115 q 323 197 336 154 q 283 293 310 240 l 110 640 q 72 783 72 715 q 87 864 72 828 q 128 927 101 900 q 190 969 154 954 q 268 983 225 983 q 369 962 321 983 q 453 900 417 940 l 447 894 q 380 947 419 926 q 307 968 340 968 q 237 935 263 968 q 211 843 211 901 q 261 668 211 768 l 444 289 q 474 172 474 229 q 457 98 474 132 q 411 40 440 64 q 342 1 382 15 q 253 -12 301 -12 q 153 3 203 -12 q 60 46 104 18 l 65 53 q 147 14 104 28 q 226 0 190 0 q 308 30 279 0 q 336 115 336 60 m 139 1185 l 265 1113 l 393 1185 l 401 1185 l 271 1031 l 263 1031 l 131 1185 l 139 1185 z "},"Ś":{"ha":507,"x_min":60,"x_max":474,"o":"m 336 115 q 323 197 336 154 q 283 293 310 240 l 110 640 q 72 783 72 715 q 87 864 72 828 q 128 927 101 900 q 190 969 154 954 q 268 983 225 983 q 369 962 321 983 q 453 900 417 940 l 447 894 q 380 947 419 926 q 307 968 340 968 q 237 935 263 968 q 211 843 211 901 q 261 668 211 768 l 444 289 q 474 172 474 229 q 457 98 474 132 q 411 40 440 64 q 342 1 382 15 q 253 -12 301 -12 q 153 3 203 -12 q 60 46 104 18 l 65 53 q 147 14 104 28 q 226 0 190 0 q 308 30 279 0 q 336 115 336 60 m 246 1031 l 288 1186 l 390 1186 l 254 1031 l 246 1031 z "},"Ŝ":{"ha":507,"x_min":60,"x_max":474,"o":"m 336 115 q 323 197 336 154 q 283 293 310 240 l 110 640 q 72 783 72 715 q 87 864 72 828 q 128 927 101 900 q 190 969 154 954 q 268 983 225 983 q 369 962 321 983 q 453 900 417 940 l 447 894 q 380 947 419 926 q 307 968 340 968 q 237 935 263 968 q 211 843 211 901 q 261 668 211 768 l 444 289 q 474 172 474 229 q 457 98 474 132 q 411 40 440 64 q 342 1 382 15 q 253 -12 301 -12 q 153 3 203 -12 q 60 46 104 18 l 65 53 q 147 14 104 28 q 226 0 190 0 q 308 30 279 0 q 336 115 336 60 m 264 1185 l 272 1185 l 403 1031 l 394 1031 l 267 1101 l 140 1031 l 132 1031 l 264 1185 z "},"Ș":{"ha":507,"x_min":60,"x_max":474,"o":"m 336 115 q 323 197 336 154 q 283 293 310 240 l 110 640 q 72 783 72 715 q 87 864 72 828 q 128 927 101 900 q 190 969 154 954 q 268 983 225 983 q 369 962 321 983 q 453 900 417 940 l 447 894 q 380 947 419 926 q 307 968 340 968 q 237 935 263 968 q 211 843 211 901 q 261 668 211 768 l 444 289 q 474 172 474 229 q 457 98 474 132 q 411 40 440 64 q 342 1 382 15 q 253 -12 301 -12 q 153 3 203 -12 q 60 46 104 18 l 65 53 q 147 14 104 28 q 226 0 190 0 q 308 30 279 0 q 336 115 336 60 m 310 -139 q 271 -150 289 -150 q 231 -134 247 -150 q 215 -93 215 -118 q 232 -51 215 -67 q 274 -35 249 -35 q 319 -58 303 -35 q 336 -121 336 -81 q 312 -201 336 -169 q 239 -244 288 -233 l 236 -236 q 299 -199 278 -226 q 310 -139 321 -172 z "},"Ş":{"ha":507,"x_min":60,"x_max":474,"o":"m 336 115 q 323 197 336 154 q 283 293 310 240 l 110 640 q 72 783 72 715 q 87 864 72 828 q 128 927 101 900 q 190 969 154 954 q 268 983 225 983 q 369 962 321 983 q 453 900 417 940 l 447 894 q 380 947 419 926 q 307 968 340 968 q 237 935 263 968 q 211 843 211 901 q 261 668 211 768 l 444 289 q 474 172 474 229 q 457 98 474 132 q 411 40 440 64 q 342 1 382 15 q 253 -12 301 -12 q 153 3 203 -12 q 60 46 104 18 l 65 53 q 147 14 104 28 q 226 0 190 0 q 308 30 279 0 q 336 115 336 60 m 175 -132 q 211 -157 190 -147 q 253 -167 232 -167 q 290 -155 276 -167 q 303 -122 303 -143 q 228 -65 303 -74 l 251 -4 l 261 -4 l 246 -44 q 338 -66 303 -44 q 374 -121 374 -87 q 349 -167 374 -149 q 283 -185 324 -185 q 219 -172 250 -185 q 169 -137 189 -160 l 175 -132 z "},"h":{"ha":529,"x_min":58,"x_max":482,"o":"m 197 588 q 251 674 221 647 q 329 701 282 701 q 389 690 361 701 q 438 660 417 679 q 470 614 458 640 q 482 556 482 588 l 482 0 l 338 0 l 338 608 q 294 683 338 683 q 260 670 278 683 q 227 636 242 657 q 203 590 213 615 q 194 542 194 565 l 194 0 l 58 0 l 58 972 l 194 972 l 194 588 l 197 588 z "},"o":{"ha":519,"x_min":47,"x_max":474,"o":"m 258 700 q 340 683 301 700 q 409 639 379 667 q 456 574 439 611 q 474 496 474 538 l 474 190 q 457 112 474 149 q 412 47 440 75 q 345 3 383 19 q 264 -12 307 -12 q 181 4 221 -12 q 112 49 142 21 q 65 113 82 76 q 47 190 47 150 l 47 496 q 64 574 47 538 q 110 640 81 611 q 177 684 139 668 q 258 700 215 700 m 263 692 q 208 667 228 692 q 188 600 188 642 l 188 88 q 208 21 188 46 q 263 -4 228 -4 q 315 20 296 -4 q 333 88 333 44 l 333 600 q 315 667 333 643 q 263 692 296 692 z "},"a":{"ha":485,"x_min":33,"x_max":446,"o":"m 33 203 q 98 329 33 282 q 306 401 163 376 l 306 589 q 281 661 306 635 q 215 688 257 688 q 176 682 197 688 q 135 668 154 676 q 99 648 115 660 q 72 624 82 636 l 65 629 q 140 680 90 660 q 243 700 190 700 q 324 685 286 700 q 388 646 361 671 q 431 586 415 621 q 446 511 446 551 l 446 0 l 306 0 l 306 68 l 303 68 q 243 10 281 32 q 165 -12 206 -12 q 70 29 107 -12 q 33 138 33 71 l 33 203 m 225 19 q 267 38 244 19 q 306 86 290 56 l 306 393 q 203 351 233 378 q 174 265 174 324 l 174 104 q 188 42 174 65 q 225 19 201 19 z "},"c":{"ha":449,"x_min":47,"x_max":464,"o":"m 47 488 q 63 572 47 533 q 108 640 79 611 q 175 684 136 668 q 260 700 214 700 q 353 681 308 700 q 431 629 399 663 l 425 624 q 359 670 400 651 q 282 689 318 689 q 213 661 238 689 q 188 586 188 633 l 188 107 q 217 28 188 58 q 293 -1 246 -1 q 388 29 342 -1 q 457 104 435 60 l 464 101 q 385 18 438 49 q 268 -12 333 -12 q 180 3 221 -12 q 110 48 139 19 q 64 116 81 76 q 47 201 47 156 l 47 488 z "},"e":{"ha":510,"x_min":47,"x_max":475,"o":"m 47 496 q 64 574 47 538 q 110 640 81 611 q 178 684 139 668 q 260 700 217 700 q 342 683 303 700 q 410 639 381 667 q 456 574 439 611 q 474 496 474 538 l 474 346 l 188 346 l 188 106 q 217 27 188 57 q 293 -3 246 -3 q 346 7 319 -3 q 396 34 372 17 q 438 74 419 51 q 467 124 457 97 l 475 121 q 394 22 447 57 q 269 -12 340 -12 q 183 3 224 -12 q 113 47 143 19 q 65 111 82 74 q 47 190 47 149 l 47 496 m 333 354 l 333 600 q 314 667 333 643 q 263 692 294 692 q 208 666 228 692 q 188 600 188 640 l 188 354 l 333 354 z "},"ļ":{"ha":240,"x_min":58,"x_max":204,"o":"m 58 971 l 194 971 l 194 0 l 58 0 l 58 971 m 178 -139 q 139 -150 157 -150 q 99 -134 115 -150 q 83 -93 83 -118 q 100 -51 83 -67 q 142 -35 117 -35 q 188 -58 171 -35 q 204 -121 204 -81 q 180 -201 204 -169 q 107 -244 156 -233 l 104 -236 q 167 -199 146 -226 q 178 -139 189 -172 z "},"ş":{"ha":401,"x_min":29,"x_max":388,"o":"m 358 639 q 306 674 335 663 q 250 686 278 686 q 185 663 210 686 q 160 601 160 639 q 190 514 160 564 l 358 236 q 388 144 388 189 q 372 83 388 111 q 331 33 357 54 q 271 0 306 13 q 196 -12 236 -12 q 29 57 99 -12 l 35 63 q 100 17 64 33 q 169 0 136 0 q 230 22 207 0 q 253 82 253 44 q 208 207 253 133 l 65 438 q 31 543 31 496 q 45 605 31 576 q 85 654 60 633 q 144 688 110 675 q 217 700 178 700 q 365 644 303 700 l 358 639 m 115 -132 q 151 -157 131 -147 q 193 -167 172 -167 q 230 -155 217 -167 q 243 -122 243 -143 q 168 -65 243 -74 l 192 -4 l 201 -4 l 186 -44 q 278 -66 243 -44 q 314 -121 314 -87 q 289 -167 314 -149 q 224 -185 264 -185 q 160 -172 190 -185 q 110 -137 129 -160 l 115 -132 z "},"ȷ":{"ha":315,"x_min":56,"x_max":253,"o":"m 253 31 q 242 -49 253 -12 q 209 -117 232 -85 q 149 -181 186 -150 q 60 -243 113 -211 l 56 -237 q 82 -213 71 -225 q 101 -185 93 -201 q 114 -144 110 -168 q 118 -87 118 -121 l 118 688 l 253 688 l 253 31 z "},"←":{"ha":922,"x_min":40,"x_max":882,"o":"m 314 711 l 322 700 l 67 475 l 882 475 l 882 464 l 68 464 l 322 238 l 314 228 l 40 469 l 314 711 z "},"⟵":{"ha":1296,"x_min":40,"x_max":1257,"o":"m 314 711 l 322 700 l 67 475 l 1257 475 l 1257 464 l 68 464 l 322 238 l 314 228 l 40 469 l 314 711 z "},"⇐":{"ha":921,"x_min":40,"x_max":882,"o":"m 314 711 l 322 700 l 129 531 l 882 531 l 882 519 l 117 519 l 61 469 l 118 419 l 882 419 l 882 408 l 131 408 l 322 238 l 314 228 l 40 469 l 314 711 z "},"⟸":{"ha":1297,"x_min":40,"x_max":1257,"o":"m 314 711 l 322 700 l 129 531 l 1257 531 l 1257 519 l 117 519 l 61 469 l 118 419 l 1257 419 l 1257 408 l 131 408 l 322 238 l 314 228 l 40 469 l 314 711 z "},"→":{"ha":922,"x_min":39,"x_max":881,"o":"m 607 229 l 599 240 l 854 465 l 39 465 l 39 476 l 853 476 l 599 703 l 607 713 l 881 471 l 607 229 z "},"⟹":{"ha":1297,"x_min":39,"x_max":1256,"o":"m 982 229 l 974 240 l 1167 410 l 39 410 l 39 421 l 1179 421 l 1235 471 l 1178 521 l 39 521 l 39 532 l 1165 532 l 974 703 l 982 713 l 1256 471 l 982 229 z "},"⇒":{"ha":922,"x_min":39,"x_max":881,"o":"m 607 229 l 599 240 l 792 410 l 39 410 l 39 421 l 804 421 l 860 471 l 803 521 l 39 521 l 39 532 l 790 532 l 599 703 l 607 713 l 881 471 l 607 229 z "},"⟶":{"ha":1297,"x_min":39,"x_max":1256,"o":"m 982 229 l 974 240 l 1229 465 l 39 465 l 39 476 l 1228 476 l 974 703 l 982 713 l 1256 471 l 982 229 z "},"↖":{"ha":606,"x_min":40,"x_max":564,"o":"m 404 971 l 404 960 l 60 961 l 564 456 l 557 446 l 51 953 l 51 610 l 40 608 l 40 972 l 404 971 z "},"↗":{"ha":606,"x_min":40,"x_max":564,"o":"m 200 971 l 200 960 l 544 961 l 40 456 l 47 446 l 553 953 l 553 610 l 564 608 l 564 972 l 200 971 z "},"↘":{"ha":606,"x_min":42,"x_max":565,"o":"m 201 1 l 201 11 l 546 11 l 42 517 l 49 526 l 554 19 l 554 363 l 565 364 l 565 0 l 201 1 z "},"↙":{"ha":606,"x_min":40,"x_max":564,"o":"m 404 1 l 404 11 l 60 11 l 564 517 l 557 526 l 51 19 l 51 363 l 40 364 l 40 0 l 404 1 z "},"↔":{"ha":963,"x_min":40,"x_max":922,"o":"m 650 228 l 640 239 l 896 464 l 68 464 l 322 238 l 314 228 l 40 469 l 314 711 l 322 700 l 67 475 l 896 475 l 640 701 l 650 711 l 922 469 l 650 228 z "},"⟷":{"ha":1339,"x_min":40,"x_max":1299,"o":"m 314 711 l 322 700 l 65 475 l 1272 475 l 1015 701 l 1025 711 l 1299 471 l 1025 228 l 1015 239 l 1269 464 l 68 464 l 322 238 l 314 228 l 40 471 l 314 711 z "},"⇔":{"ha":992,"x_min":40,"x_max":951,"o":"m 314 711 l 322 700 l 129 531 l 861 531 l 669 701 l 679 711 l 951 469 l 679 228 l 669 239 l 861 408 l 131 408 l 322 238 l 314 228 l 40 469 l 314 711 m 118 419 l 874 419 l 929 469 l 874 519 l 117 519 l 61 469 l 118 419 z "},"⟺":{"ha":1297,"x_min":40,"x_max":1257,"o":"m 314 711 l 322 700 l 131 532 l 1165 532 l 974 701 l 983 711 l 1257 471 l 983 228 l 975 239 l 1167 410 l 129 410 l 322 238 l 314 228 l 40 471 l 314 711 m 117 421 l 1179 421 l 1236 471 l 1179 521 l 118 521 l 61 471 l 117 421 z "},"↑":{"ha":564,"x_min":40,"x_max":524,"o":"m 524 565 l 513 557 l 288 813 l 288 101 l 276 101 l 276 813 l 51 557 l 40 565 l 282 839 l 524 565 z "},"↓":{"ha":564,"x_min":39,"x_max":522,"o":"m 39 375 l 50 383 l 275 128 l 275 839 l 286 839 l 286 128 l 511 383 l 522 375 l 281 101 l 39 375 z "},"↕":{"ha":564,"x_min":40,"x_max":524,"o":"m 40 375 l 51 383 l 276 131 l 276 813 l 51 557 l 40 565 l 282 839 l 524 565 l 513 557 l 288 813 l 288 129 l 513 383 l 524 375 l 282 101 l 40 375 z "},"↩":{"ha":1061,"x_min":40,"x_max":1019,"o":"m 314 711 l 322 700 l 67 475 l 840 475 q 908 488 878 475 q 961 524 939 501 q 996 576 983 546 q 1008 638 1008 606 q 996 700 1008 669 q 961 753 983 731 q 908 790 939 776 q 840 804 878 804 l 800 804 l 800 815 l 842 815 q 910 801 878 815 q 967 763 943 788 q 1006 707 992 739 q 1019 638 1019 675 q 1006 569 1019 600 q 967 514 992 538 q 910 477 943 490 q 840 464 878 464 l 68 464 l 322 238 l 314 228 l 40 469 l 314 711 z "},"↪":{"ha":1061,"x_min":40,"x_max":1019,"o":"m 746 711 l 738 700 l 993 475 l 219 475 q 151 488 182 475 q 99 524 121 501 q 64 576 76 546 q 51 638 51 606 q 64 700 51 669 q 99 753 76 731 q 151 790 121 776 q 219 804 182 804 l 260 804 l 260 815 l 218 815 q 149 801 182 815 q 92 763 117 788 q 54 707 68 739 q 40 638 40 675 q 54 569 40 600 q 92 514 68 538 q 149 477 117 490 q 219 464 182 464 l 992 464 l 738 238 l 746 228 l 1019 469 l 746 711 z "},"Ċ":{"ha":535,"x_min":60,"x_max":532,"o":"m 60 715 q 77 826 60 776 q 127 910 94 875 q 206 965 160 946 q 307 983 251 983 q 500 901 425 983 l 493 896 q 419 951 461 932 q 332 971 376 971 q 204 811 204 971 l 204 167 q 233 39 204 78 q 325 0 261 0 q 390 10 358 0 q 449 36 422 19 q 494 77 475 53 q 524 131 514 101 l 532 128 q 446 24 504 61 q 308 -12 388 -12 q 126 63 193 -12 q 60 265 60 138 l 60 715 m 251 1103 q 265 1138 251 1124 q 301 1151 279 1151 q 338 1138 324 1151 q 353 1103 353 1124 q 338 1067 353 1081 q 301 1053 324 1053 q 265 1067 279 1053 q 251 1103 251 1081 z "},"Ė":{"ha":453,"x_min":68,"x_max":419,"o":"m 419 971 l 419 963 l 213 963 l 213 500 l 390 500 l 390 492 l 213 492 l 213 8 l 419 8 l 419 0 l 68 0 l 68 971 l 419 971 m 197 1103 q 211 1138 197 1124 q 247 1151 225 1151 q 284 1138 269 1151 q 299 1103 299 1124 q 284 1067 299 1081 q 247 1053 269 1053 q 211 1067 225 1053 q 197 1103 197 1081 z "},"Ġ":{"ha":597,"x_min":61,"x_max":543,"o":"m 61 715 q 128 911 61 839 q 315 983 196 983 q 514 903 442 983 l 508 897 q 350 967 447 967 q 238 926 278 967 q 197 811 197 886 l 197 153 q 332 -3 197 -3 q 376 1 354 -3 q 417 14 399 6 l 417 468 l 307 468 l 307 476 l 543 476 l 543 49 q 497 24 524 35 q 440 4 469 13 q 378 -8 410 -4 q 318 -12 347 -12 q 129 62 197 -12 q 61 265 61 136 l 61 715 m 257 1103 q 271 1138 257 1124 q 307 1151 285 1151 q 344 1138 329 1151 q 358 1103 358 1124 q 344 1067 358 1081 q 307 1053 329 1053 q 271 1067 285 1053 q 257 1103 257 1081 z "},"İ":{"ha":279,"x_min":68,"x_max":213,"o":"m 213 971 l 213 0 l 68 0 l 68 971 l 213 971 m 89 1103 q 103 1138 89 1124 q 139 1151 117 1151 q 176 1138 161 1151 q 190 1103 190 1124 q 176 1067 190 1081 q 139 1053 161 1053 q 103 1067 117 1053 q 89 1103 89 1081 z "},"Ţ":{"ha":476,"x_min":-7,"x_max":485,"o":"m 485 963 l 311 963 l 311 0 l 167 0 l 167 963 l -7 963 l -7 971 l 485 971 l 485 963 m 156 -126 q 192 -151 171 -142 q 233 -161 213 -161 q 270 -149 257 -161 q 283 -117 283 -137 q 208 -60 283 -68 l 232 1 l 242 1 l 226 -39 q 319 -60 283 -39 q 354 -115 354 -82 q 329 -161 354 -143 q 264 -179 304 -179 q 200 -167 231 -179 q 150 -132 169 -154 l 156 -126 z "},"Ç":{"ha":535,"x_min":60,"x_max":532,"o":"m 60 715 q 77 826 60 776 q 127 910 94 875 q 206 965 160 946 q 307 983 251 983 q 500 901 425 983 l 493 896 q 419 951 461 932 q 332 971 376 971 q 204 811 204 971 l 204 167 q 233 39 204 78 q 325 0 261 0 q 390 10 358 0 q 449 36 422 19 q 494 77 475 53 q 524 131 514 101 l 532 128 q 446 24 504 61 q 308 -12 388 -12 q 126 63 193 -12 q 60 265 60 138 l 60 715 m 231 -133 q 267 -158 246 -149 q 308 -168 288 -168 q 345 -156 332 -168 q 358 -124 358 -144 q 283 -67 358 -75 l 307 -6 l 317 -6 l 301 -46 q 394 -67 358 -46 q 429 -122 429 -89 q 404 -168 429 -150 q 339 -186 379 -186 q 275 -174 306 -186 q 225 -139 244 -161 l 231 -133 z "},"Ż":{"ha":560,"x_min":33,"x_max":526,"o":"m 82 963 l 82 971 l 506 971 l 506 963 l 185 8 l 526 8 l 526 0 l 33 0 l 33 8 l 356 963 l 82 963 m 239 1103 q 253 1138 239 1124 q 289 1151 267 1151 q 326 1138 311 1151 q 340 1103 340 1124 q 326 1067 340 1081 q 289 1053 311 1053 q 253 1067 267 1053 q 239 1103 239 1081 z "},"ċ":{"ha":449,"x_min":47,"x_max":464,"o":"m 47 488 q 63 572 47 533 q 108 640 79 611 q 175 684 136 668 q 260 700 214 700 q 353 681 308 700 q 431 629 399 663 l 425 624 q 359 670 400 651 q 282 689 318 689 q 213 661 238 689 q 188 586 188 633 l 188 107 q 217 28 188 58 q 293 -1 246 -1 q 388 29 342 -1 q 457 104 435 60 l 464 101 q 385 18 438 49 q 268 -12 333 -12 q 180 3 221 -12 q 110 48 139 19 q 64 116 81 76 q 47 201 47 156 l 47 488 m 206 856 q 219 890 206 876 q 256 904 233 904 q 292 890 278 904 q 307 856 307 876 q 292 819 307 833 q 256 806 278 806 q 219 819 233 806 q 206 856 206 833 z "},"ė":{"ha":510,"x_min":47,"x_max":475,"o":"m 47 496 q 64 574 47 538 q 110 640 81 611 q 178 684 139 668 q 260 700 217 700 q 342 683 303 700 q 410 639 381 667 q 456 574 439 611 q 474 496 474 538 l 474 346 l 188 346 l 188 106 q 217 27 188 57 q 293 -3 246 -3 q 346 7 319 -3 q 396 34 372 17 q 438 74 419 51 q 467 124 457 97 l 475 121 q 394 22 447 57 q 269 -12 340 -12 q 183 3 224 -12 q 113 47 143 19 q 65 111 82 74 q 47 190 47 149 l 47 496 m 333 354 l 333 600 q 314 667 333 643 q 263 692 294 692 q 208 666 228 692 q 188 600 188 640 l 188 354 l 333 354 m 208 856 q 222 890 208 876 q 258 904 236 904 q 295 890 281 904 q 310 856 310 876 q 295 819 310 833 q 258 806 281 806 q 222 819 236 806 q 208 856 208 833 z "},"ġ":{"ha":510,"x_min":29,"x_max":513,"o":"m 247 -243 q 156 -229 197 -243 q 85 -191 114 -215 q 43 -133 57 -167 q 32 -57 29 -99 l 108 -57 q 143 -185 103 -136 q 251 -235 183 -235 q 316 -223 285 -235 q 372 -192 347 -211 q 413 -149 397 -174 q 428 -99 428 -124 q 406 -44 428 -65 q 347 -24 383 -24 l 172 -24 q 80 6 114 -24 q 46 86 46 35 q 144 235 46 169 q 76 308 100 263 q 51 406 51 353 l 51 511 q 67 585 51 550 q 108 645 82 619 q 171 686 135 671 q 247 701 207 701 q 330 685 289 701 q 401 640 371 668 q 437 694 411 675 q 500 713 463 713 l 500 629 q 440 640 471 640 q 407 633 421 640 q 454 518 454 583 l 454 400 q 400 258 454 313 q 258 203 346 203 q 154 229 200 203 q 94 157 94 197 q 181 115 94 115 l 382 115 q 476 74 440 115 q 513 -29 513 33 q 492 -114 513 -75 q 437 -181 472 -153 q 353 -226 401 -210 q 247 -243 304 -243 m 190 288 q 208 233 190 254 q 254 211 226 211 q 298 232 282 211 q 314 288 314 253 l 314 615 q 297 670 314 649 q 253 692 279 692 q 208 670 225 692 q 190 615 190 649 l 190 288 m 197 856 q 211 890 197 876 q 247 904 225 904 q 284 890 269 904 q 299 856 299 876 q 284 819 299 833 q 247 806 269 806 q 211 819 225 806 q 197 856 197 833 z "},"ż":{"ha":483,"x_min":43,"x_max":454,"o":"m 43 0 l 43 8 l 297 679 l 89 679 l 89 688 l 453 688 l 453 679 l 199 8 l 454 8 l 454 0 l 43 0 m 214 856 q 228 890 214 876 q 264 904 242 904 q 301 890 286 904 q 315 856 315 876 q 301 819 315 833 q 264 806 286 806 q 228 819 242 806 q 214 856 214 833 z "},"Ģ":{"ha":597,"x_min":61,"x_max":543,"o":"m 61 715 q 128 911 61 839 q 315 983 196 983 q 514 903 442 983 l 508 897 q 350 967 447 967 q 238 926 278 967 q 197 811 197 886 l 197 153 q 332 -3 197 -3 q 376 1 354 -3 q 417 14 399 6 l 417 468 l 307 468 l 307 476 l 543 476 l 543 49 q 497 24 524 35 q 440 4 469 13 q 378 -8 410 -4 q 318 -12 347 -12 q 129 62 197 -12 q 61 265 61 136 l 61 715 m 375 -139 q 336 -150 354 -150 q 297 -134 313 -150 q 281 -93 281 -118 q 297 -51 281 -67 q 339 -35 314 -35 q 385 -58 368 -35 q 401 -121 401 -81 q 377 -201 401 -169 q 304 -244 353 -233 l 301 -236 q 365 -199 343 -226 q 375 -139 386 -172 z "},"А":{"ha":464,"x_min":-8,"x_max":471,"o":"m 186 971 l 224 971 l 471 0 l 322 0 l 244 303 l 64 303 l 4 0 l -8 0 l 186 971 m 65 311 l 242 311 l 146 708 l 143 708 l 65 311 z "},"Б":{"ha":565,"x_min":68,"x_max":533,"o":"m 322 504 q 403 485 365 504 q 471 435 442 467 q 517 360 500 403 q 533 269 533 318 l 533 228 q 517 140 533 181 q 472 67 500 99 q 405 18 443 36 q 322 0 367 0 l 68 0 l 68 971 l 460 971 l 460 963 l 213 963 l 213 504 l 322 504 m 389 318 q 288 496 389 496 l 213 496 l 213 8 l 297 8 q 367 47 346 8 q 389 182 389 86 l 389 318 z "},"В":{"ha":565,"x_min":68,"x_max":533,"o":"m 514 718 q 501 633 514 671 q 468 569 489 596 q 419 525 447 542 q 361 504 392 508 l 340 501 l 340 499 l 361 496 q 428 470 397 490 q 483 419 460 450 q 519 350 506 389 q 533 269 533 311 l 533 228 q 519 145 533 186 q 477 72 504 104 q 410 20 450 40 q 322 0 371 0 l 68 0 l 68 971 l 303 971 q 385 955 347 971 q 452 910 424 939 q 497 841 481 881 q 514 754 514 801 l 514 718 m 288 504 q 352 544 335 504 q 369 679 369 585 l 369 793 q 352 925 369 888 q 283 963 335 963 l 213 963 l 213 504 l 288 504 m 389 318 q 362 453 389 410 q 288 496 335 496 l 213 496 l 213 8 l 297 8 q 369 49 349 8 q 389 182 389 90 l 389 318 z "},"Г":{"ha":403,"x_min":68,"x_max":411,"o":"m 68 971 l 411 971 l 411 963 l 213 963 l 213 0 l 68 0 l 68 971 z "},"Д":{"ha":549,"x_min":-7,"x_max":554,"o":"m -7 -210 l -7 8 l 29 8 q 66 80 50 36 q 92 187 82 124 q 108 335 103 250 q 113 533 113 421 l 113 971 l 482 971 l 482 8 l 554 8 l 554 -210 l 410 -210 l 410 0 l 3 0 l 3 -210 l -7 -210 m 339 8 l 339 963 l 121 963 l 121 518 q 117 353 121 433 q 103 207 113 274 q 77 89 93 140 q 38 8 61 38 l 339 8 z "},"Е":{"ha":453,"x_min":68,"x_max":419,"o":"m 419 971 l 419 963 l 211 963 l 211 500 l 390 500 l 390 492 l 211 492 l 211 8 l 419 8 l 419 0 l 68 0 l 68 971 l 419 971 z "},"Ж":{"ha":882,"x_min":-7,"x_max":888,"o":"m 739 0 l 583 432 q 553 490 568 475 q 519 506 539 506 l 513 506 l 513 0 l 368 0 l 368 506 l 363 506 q 328 490 343 506 q 299 432 314 475 l 143 0 l -7 0 l 143 393 q 206 492 171 468 q 288 515 242 515 l 310 515 l 71 971 l 83 971 l 321 515 l 368 515 l 368 971 l 513 971 l 513 515 l 560 515 l 797 971 l 811 971 l 572 515 l 594 515 q 674 492 639 515 q 738 393 710 468 l 888 0 l 739 0 z "},"З":{"ha":628,"x_min":60,"x_max":606,"o":"m 297 -12 q 169 3 231 -12 q 60 47 107 19 l 64 56 q 153 17 108 29 q 242 4 199 4 q 399 64 340 4 q 457 229 457 124 l 457 303 q 412 448 457 397 q 289 499 367 499 l 258 499 l 258 507 l 289 507 q 401 557 360 507 q 442 703 442 607 l 442 756 q 392 910 442 854 q 261 967 342 967 q 170 948 215 967 q 89 894 125 929 l 83 900 q 184 962 124 940 q 315 983 244 983 q 426 967 376 983 q 513 922 476 951 q 570 849 550 892 q 590 754 590 807 l 590 711 q 538 567 590 618 q 393 508 486 515 l 363 506 l 363 500 l 393 497 q 549 437 493 490 q 606 290 606 383 l 606 236 q 583 132 606 178 q 520 54 561 86 q 423 5 479 22 q 297 -12 367 -12 z "},"И":{"ha":546,"x_min":60,"x_max":486,"o":"m 486 971 l 486 1 l 478 1 l 478 915 l 475 915 l 97 1 l 60 1 l 60 971 l 68 971 l 68 289 l 72 289 l 346 971 l 486 971 z "},"Й":{"ha":546,"x_min":60,"x_max":486,"o":"m 486 971 l 486 1 l 478 1 l 478 915 l 475 915 l 97 1 l 60 1 l 60 971 l 68 971 l 68 289 l 72 289 l 346 971 l 486 971 m 365 1165 l 372 1165 q 340 1073 372 1108 q 258 1038 308 1038 q 176 1073 208 1038 q 144 1165 144 1108 l 151 1165 q 183 1116 151 1136 q 258 1096 214 1096 q 334 1116 303 1096 q 365 1165 365 1136 z "},"К":{"ha":582,"x_min":68,"x_max":588,"o":"m 439 0 l 282 432 q 253 490 267 475 q 219 506 239 506 l 213 506 l 213 0 l 68 0 l 68 971 l 213 971 l 213 515 l 260 515 l 497 971 l 510 971 l 272 515 l 294 515 q 374 492 339 515 q 438 393 410 468 l 588 0 l 439 0 z "},"Л":{"ha":731,"x_min":-7,"x_max":664,"o":"m -1 24 q 36 8 18 14 q 72 3 54 3 q 106 12 92 3 q 131 43 121 21 q 148 103 142 65 q 156 196 154 140 l 181 971 l 664 971 l 664 0 l 519 0 l 519 963 l 325 963 l 300 303 q 240 64 293 140 q 101 -12 186 -12 q -7 17 46 -12 l -1 24 z "},"М":{"ha":724,"x_min":60,"x_max":656,"o":"m 656 0 l 511 0 l 511 915 l 508 915 l 497 860 l 343 0 l 306 0 l 71 915 l 68 915 l 68 0 l 60 0 l 60 971 l 204 971 l 379 279 l 382 279 l 507 971 l 656 971 l 656 0 z "},"Н":{"ha":624,"x_min":69,"x_max":557,"o":"m 213 971 l 213 489 l 414 489 l 414 971 l 557 971 l 557 0 l 414 0 l 414 481 l 213 481 l 213 0 l 69 0 l 69 971 l 213 971 z "},"О":{"ha":615,"x_min":60,"x_max":557,"o":"m 60 718 q 78 826 60 776 q 129 910 96 875 q 208 964 163 944 q 310 983 254 983 q 410 964 365 983 q 488 910 456 944 q 539 826 521 875 q 557 718 557 778 l 557 264 q 539 151 557 201 q 488 64 521 100 q 410 8 456 28 q 308 -12 364 -12 q 207 8 253 -12 q 128 64 161 28 q 78 151 96 100 q 60 264 60 201 l 60 718 m 204 157 q 308 -4 204 -4 q 413 157 413 -4 l 413 814 q 388 936 413 897 q 310 975 363 975 q 204 814 204 975 l 204 157 z "},"П":{"ha":624,"x_min":69,"x_max":557,"o":"m 69 971 l 557 971 l 557 0 l 414 0 l 414 963 l 213 963 l 213 0 l 69 0 l 69 971 z "},"Р":{"ha":557,"x_min":68,"x_max":528,"o":"m 304 971 q 394 953 353 971 q 465 903 435 935 q 511 831 494 872 q 528 743 528 790 l 528 696 q 511 607 528 649 q 465 534 494 565 q 396 485 436 503 q 307 467 356 467 l 213 467 l 213 0 l 68 0 l 68 971 l 304 971 m 383 785 q 361 921 383 879 q 289 963 339 963 l 213 963 l 213 475 l 296 475 q 363 517 343 475 q 383 653 383 560 l 383 785 z "},"С":{"ha":535,"x_min":60,"x_max":532,"o":"m 60 715 q 77 826 60 776 q 127 910 94 875 q 206 965 160 946 q 307 983 251 983 q 500 901 425 983 l 493 896 q 419 951 461 932 q 332 971 376 971 q 204 811 204 971 l 204 167 q 233 39 204 78 q 325 0 261 0 q 390 10 358 0 q 449 36 422 19 q 494 77 475 53 q 524 131 514 101 l 532 128 q 446 24 504 61 q 308 -12 388 -12 q 126 63 193 -12 q 60 265 60 138 l 60 715 z "},"Т":{"ha":476,"x_min":-7,"x_max":485,"o":"m 485 963 l 311 963 l 311 0 l 167 0 l 167 963 l -7 963 l -7 971 l 485 971 l 485 963 z "},"У":{"ha":371,"x_min":-7,"x_max":376,"o":"m 258 456 l 261 456 l 365 971 l 376 971 l 192 83 q 90 -7 172 -7 q 53 -3 72 -7 l 56 7 q 90 3 75 3 q 179 86 163 3 l 189 131 l -7 971 l 142 971 l 258 456 z "},"Ф":{"ha":692,"x_min":60,"x_max":633,"o":"m 342 40 q 131 118 203 42 q 60 354 60 194 l 60 617 q 131 850 60 771 q 342 931 203 929 l 342 1014 l 351 1014 l 351 931 q 562 851 490 931 q 633 617 633 772 l 633 354 q 562 118 633 194 q 351 40 490 42 l 351 -43 l 342 -43 l 342 40 m 351 49 q 417 58 390 49 q 459 89 443 67 q 482 150 475 111 q 489 247 489 189 l 489 713 q 482 813 489 772 q 459 877 475 853 q 417 912 443 901 q 351 922 390 922 l 351 49 m 204 247 q 211 151 204 189 q 234 90 218 113 q 276 58 250 68 q 342 49 303 49 l 342 922 q 276 910 303 921 q 234 874 250 899 q 211 809 218 849 q 204 713 204 769 l 204 247 z "},"Х":{"ha":483,"x_min":-8,"x_max":490,"o":"m 293 571 l 296 571 l 453 972 l 465 972 l 300 551 l 490 0 l 339 0 l 183 451 l 182 451 l 4 0 l -8 0 l 176 471 l 4 972 l 156 972 l 293 571 z "},"Ц":{"ha":644,"x_min":68,"x_max":657,"o":"m 68 971 l 213 971 l 213 8 l 413 8 l 413 971 l 557 971 l 557 8 l 657 8 l 657 -151 l 571 -151 l 571 0 l 68 0 l 68 971 z "},"Ч":{"ha":596,"x_min":68,"x_max":528,"o":"m 381 385 q 226 271 329 271 q 113 315 157 271 q 68 438 68 358 l 68 972 l 213 972 l 213 385 q 224 310 213 332 q 263 289 236 289 q 305 302 283 289 q 344 336 326 315 q 372 382 361 357 q 383 431 383 407 l 383 972 l 528 972 l 528 0 l 383 0 l 383 385 l 381 385 z "},"Ш":{"ha":860,"x_min":68,"x_max":792,"o":"m 68 971 l 213 971 l 213 8 l 357 8 l 357 971 l 501 971 l 501 8 l 647 8 l 647 971 l 792 971 l 792 0 l 68 0 l 68 971 z "},"Щ":{"ha":879,"x_min":68,"x_max":890,"o":"m 68 971 l 213 971 l 213 8 l 357 8 l 357 971 l 501 971 l 501 8 l 647 8 l 647 971 l 792 971 l 792 0 l 68 0 l 68 971 m 771 8 l 890 8 l 890 -151 l 804 -151 l 804 0 l 771 0 l 771 8 z "},"Ъ":{"ha":599,"x_min":-7,"x_max":567,"o":"m 331 546 q 424 528 381 546 q 499 478 468 510 q 549 404 531 447 q 567 311 567 361 l 567 228 q 550 140 567 181 q 505 67 533 99 q 438 18 476 36 q 356 0 400 0 l 101 0 l 101 963 l -7 963 l -7 971 l 246 971 l 246 546 l 331 546 m 422 360 q 321 538 422 538 l 246 538 l 246 8 l 331 8 q 401 47 379 8 q 422 182 422 86 l 422 360 z "},"Ы":{"ha":828,"x_min":68,"x_max":760,"o":"m 297 546 q 391 528 347 546 q 466 478 435 510 q 515 404 497 447 q 533 311 533 361 l 533 228 q 517 140 533 181 q 472 67 500 99 q 405 18 443 36 q 322 0 367 0 l 68 0 l 68 971 l 213 971 l 213 546 l 297 546 m 760 971 l 760 0 l 615 0 l 615 971 l 760 971 m 389 360 q 288 538 389 538 l 213 538 l 213 8 l 297 8 q 367 47 346 8 q 389 182 389 86 l 389 360 z "},"Ь":{"ha":565,"x_min":68,"x_max":533,"o":"m 297 546 q 391 528 347 546 q 466 478 435 510 q 515 404 497 447 q 533 311 533 361 l 533 228 q 517 140 533 181 q 472 67 500 99 q 405 18 443 36 q 322 0 367 0 l 68 0 l 68 971 l 213 971 l 213 546 l 297 546 m 389 360 q 288 538 389 538 l 213 538 l 213 8 l 297 8 q 367 47 346 8 q 389 182 389 86 l 389 360 z "},"Э":{"ha":525,"x_min":-6,"x_max":465,"o":"m 465 265 q 399 63 465 138 q 217 -12 332 -12 q 79 24 138 -12 q -6 128 21 61 l 3 131 q 32 77 13 101 q 78 36 51 53 q 135 10 104 19 q 201 0 167 0 q 293 39 265 0 q 321 167 321 78 l 321 482 l 104 482 l 104 490 l 321 490 l 321 811 q 194 971 321 971 q 108 951 150 971 q 32 896 65 932 l 26 901 q 218 983 100 983 q 399 910 332 983 q 465 715 465 838 l 465 265 z "},"Ю":{"ha":868,"x_min":69,"x_max":810,"o":"m 213 971 l 213 489 l 313 489 l 313 718 q 331 826 313 776 q 381 910 349 875 q 460 964 414 944 q 561 983 506 983 q 663 964 617 983 q 741 910 708 944 q 792 826 774 875 q 810 718 810 778 l 810 264 q 792 151 810 201 q 741 64 774 100 q 663 8 708 28 q 561 -12 617 -12 q 459 8 506 -12 q 381 64 413 28 q 331 151 349 100 q 313 264 313 201 l 313 481 l 213 481 l 213 0 l 69 0 l 69 971 l 213 971 m 457 157 q 561 -4 457 -4 q 665 157 665 -4 l 665 814 q 640 936 665 897 q 563 975 615 975 q 457 814 457 975 l 457 157 z "},"Я":{"ha":604,"x_min":49,"x_max":538,"o":"m 538 0 l 394 0 l 394 481 l 356 481 q 330 476 340 481 q 311 461 319 472 q 297 428 303 450 q 282 371 290 407 l 197 0 l 49 0 l 132 351 q 152 399 138 376 q 187 440 167 422 q 231 467 207 457 q 278 478 254 478 l 278 482 q 197 506 233 486 q 133 556 160 525 q 92 626 107 586 q 78 710 78 665 l 78 743 q 94 831 78 790 q 141 903 111 872 q 212 953 171 935 q 301 971 253 971 l 538 971 l 538 0 m 221 667 q 242 531 221 574 q 311 489 263 489 l 394 489 l 394 963 l 317 963 q 244 921 267 963 q 221 785 221 879 l 221 667 z "},"Ё":{"ha":453,"x_min":68,"x_max":419,"o":"m 419 971 l 419 963 l 211 963 l 211 500 l 390 500 l 390 492 l 211 492 l 211 8 l 419 8 l 419 0 l 68 0 l 68 971 l 419 971 m 122 1103 q 136 1139 122 1125 q 172 1153 150 1153 q 209 1139 194 1153 q 224 1103 224 1125 q 209 1067 224 1082 q 172 1053 194 1053 q 136 1067 150 1053 q 122 1103 122 1082 m 275 1103 q 290 1138 275 1124 q 326 1153 304 1153 q 363 1139 349 1153 q 376 1103 376 1125 q 363 1067 376 1081 q 326 1053 349 1053 q 290 1067 304 1053 q 275 1103 275 1082 z "},"Ђ":{"ha":615,"x_min":-6,"x_max":557,"o":"m 442 963 l 269 963 l 269 588 l 272 588 q 326 674 296 647 q 404 700 357 700 q 513 659 469 700 q 557 556 557 618 l 557 31 q 545 -49 557 -12 q 509 -117 533 -85 q 447 -181 485 -150 q 356 -242 408 -211 l 351 -236 q 378 -213 367 -225 q 397 -185 389 -201 q 408 -144 404 -168 q 413 -86 413 -121 l 413 608 q 369 682 413 682 q 335 669 353 682 q 302 635 317 656 q 278 590 288 615 q 269 542 269 565 l 269 0 l 125 0 l 125 963 l -6 963 l -6 971 l 442 971 l 442 963 z "},"Ѓ":{"ha":403,"x_min":68,"x_max":411,"o":"m 68 971 l 411 971 l 411 963 l 213 963 l 213 0 l 68 0 l 68 971 m 207 1031 l 249 1186 l 351 1186 l 215 1031 l 207 1031 z "},"Ґ":{"ha":403,"x_min":68,"x_max":410,"o":"m 68 971 l 318 971 l 318 1107 l 410 1107 l 410 963 l 213 963 l 213 0 l 68 0 l 68 971 z "},"Є":{"ha":535,"x_min":60,"x_max":531,"o":"m 60 715 q 77 826 60 776 q 127 910 94 875 q 206 965 160 946 q 307 983 251 983 q 500 901 425 983 l 493 896 q 419 951 461 932 q 332 971 376 971 q 204 811 204 971 l 204 490 l 422 490 l 422 482 l 204 482 l 204 167 q 233 39 204 78 q 325 0 261 0 q 390 10 358 0 q 449 36 422 19 q 494 77 475 53 q 524 131 514 101 l 531 128 q 446 24 504 61 q 308 -12 388 -12 q 126 63 193 -12 q 60 265 60 138 l 60 715 z "},"Ѕ":{"ha":507,"x_min":60,"x_max":474,"o":"m 336 115 q 323 197 336 154 q 283 293 310 240 l 110 640 q 72 783 72 715 q 87 864 72 828 q 128 927 101 900 q 190 969 154 954 q 268 983 225 983 q 369 962 321 983 q 453 900 417 940 l 447 894 q 380 947 419 926 q 307 968 340 968 q 237 935 263 968 q 211 843 211 901 q 261 668 211 768 l 444 289 q 474 172 474 229 q 457 98 474 132 q 411 40 440 64 q 342 1 382 15 q 253 -12 301 -12 q 153 3 203 -12 q 60 46 104 18 l 65 53 q 147 14 104 28 q 226 0 190 0 q 308 30 279 0 q 336 115 336 60 z "},"І":{"ha":279,"x_min":68,"x_max":213,"o":"m 213 971 l 213 0 l 68 0 l 68 971 l 213 971 z "},"Ї":{"ha":279,"x_min":13,"x_max":267,"o":"m 213 971 l 213 0 l 68 0 l 68 971 l 213 971 m 13 1103 q 26 1139 13 1125 q 63 1153 40 1153 q 99 1139 85 1153 q 114 1103 114 1125 q 99 1067 114 1082 q 63 1053 85 1053 q 26 1067 40 1053 q 13 1103 13 1082 m 165 1103 q 180 1138 165 1124 q 217 1153 194 1153 q 253 1139 239 1153 q 267 1103 267 1125 q 253 1067 267 1081 q 217 1053 239 1053 q 180 1067 194 1053 q 165 1103 165 1082 z "},"Ј":{"ha":406,"x_min":-7,"x_max":339,"o":"m -7 46 l -1 53 q 56 16 25 29 q 114 3 86 3 q 174 33 151 3 q 196 117 196 64 l 196 971 l 339 971 l 339 224 q 324 129 339 172 q 283 55 310 86 q 221 6 257 24 q 142 -12 185 -12 q -7 46 64 -12 z "},"Љ":{"ha":1018,"x_min":-7,"x_max":983,"o":"m 663 546 l 749 546 q 842 528 799 546 q 916 478 885 510 q 965 404 947 447 q 983 311 983 361 l 983 228 q 967 140 983 181 q 922 67 950 99 q 855 18 893 36 q 774 0 817 0 l 519 0 l 519 963 l 325 963 l 300 303 q 240 64 293 140 q 101 -12 186 -12 q -7 17 46 -12 l -1 24 q 36 8 18 14 q 72 3 54 3 q 106 12 92 3 q 131 43 121 21 q 148 103 142 65 q 156 196 154 140 l 181 971 l 663 971 l 663 546 m 840 360 q 739 538 840 538 l 664 538 l 664 8 l 749 8 q 819 47 797 8 q 840 182 840 86 l 840 360 z "},"Њ":{"ha":910,"x_min":69,"x_max":878,"o":"m 213 971 l 213 489 l 414 489 l 414 971 l 557 971 l 557 489 l 643 489 q 736 471 693 489 q 810 422 779 453 q 860 347 842 390 q 878 254 878 304 l 878 228 q 861 140 878 181 q 816 67 844 99 q 749 18 788 36 q 668 0 711 0 l 414 0 l 414 481 l 213 481 l 213 0 l 69 0 l 69 971 l 213 971 m 735 303 q 632 481 735 481 l 557 481 l 557 8 l 642 8 q 713 47 690 8 q 735 182 735 86 l 735 303 z "},"Ћ":{"ha":615,"x_min":-6,"x_max":557,"o":"m 442 963 l 269 963 l 269 588 l 272 588 q 326 674 296 647 q 404 700 357 700 q 513 659 469 700 q 557 556 557 618 l 557 0 l 413 0 l 413 608 q 369 682 413 682 q 335 669 353 682 q 302 635 317 656 q 278 590 288 615 q 269 542 269 565 l 269 0 l 125 0 l 125 963 l -6 963 l -6 971 l 442 971 l 442 963 z "},"Ќ":{"ha":582,"x_min":68,"x_max":588,"o":"m 439 0 l 282 432 q 253 490 267 475 q 219 506 239 506 l 213 506 l 213 0 l 68 0 l 68 971 l 213 971 l 213 515 l 260 515 l 497 971 l 510 971 l 272 515 l 294 515 q 374 492 339 515 q 438 393 410 468 l 588 0 l 439 0 m 272 1031 l 314 1186 l 417 1186 l 281 1031 l 272 1031 z "},"Ў":{"ha":371,"x_min":-7,"x_max":376,"o":"m 258 456 l 261 456 l 365 971 l 376 971 l 192 83 q 90 -7 172 -7 q 53 -3 72 -7 l 56 7 q 90 3 75 3 q 179 86 163 3 l 189 131 l -7 971 l 142 971 l 258 456 m 310 1165 l 317 1165 q 285 1073 317 1108 q 203 1038 253 1038 q 121 1073 153 1038 q 89 1165 89 1108 l 96 1165 q 127 1116 96 1136 q 203 1096 158 1096 q 278 1116 247 1096 q 310 1165 310 1136 z "},"Џ":{"ha":624,"x_min":68,"x_max":557,"o":"m 68 971 l 213 971 l 213 8 l 413 8 l 413 971 l 557 971 l 557 0 l 354 0 l 354 -151 l 269 -151 l 269 0 l 68 0 l 68 971 z "},"а":{"ha":485,"x_min":33,"x_max":446,"o":"m 33 203 q 98 329 33 282 q 306 401 163 376 l 306 589 q 281 661 306 635 q 215 688 257 688 q 176 682 197 688 q 135 668 154 676 q 99 648 115 660 q 72 624 82 636 l 65 629 q 140 680 90 660 q 243 700 190 700 q 324 685 286 700 q 388 646 361 671 q 431 586 415 621 q 446 511 446 551 l 446 0 l 306 0 l 306 68 l 303 68 q 243 10 281 32 q 165 -12 206 -12 q 70 29 107 -12 q 33 138 33 71 l 33 203 m 225 19 q 267 38 244 19 q 306 86 290 56 l 306 393 q 203 351 233 378 q 174 265 174 324 l 174 104 q 188 42 174 65 q 225 19 201 19 z "},"б":{"ha":617,"x_min":58,"x_max":569,"o":"m 58 267 l 58 649 q 84 822 58 756 q 151 925 110 888 q 247 980 193 963 q 358 1007 301 997 l 544 1042 l 546 1033 l 363 999 q 281 978 313 989 q 231 940 249 967 q 206 865 213 914 q 199 731 199 815 l 199 590 q 271 638 225 621 q 364 656 317 656 q 444 640 407 656 q 510 595 482 625 q 553 522 538 565 q 569 424 569 479 l 569 268 q 549 151 569 203 q 494 63 529 99 q 413 7 460 26 q 314 -12 367 -12 q 215 7 261 -12 q 133 63 168 26 q 78 151 99 99 q 58 267 58 203 m 199 576 l 199 147 q 233 36 199 76 q 313 -4 268 -4 q 356 7 335 -4 q 393 42 376 18 q 419 102 410 65 q 429 189 429 139 l 429 451 q 420 536 429 501 q 395 593 411 571 q 359 625 379 615 q 317 635 339 635 q 253 619 286 635 q 199 576 221 604 z "},"в":{"ha":514,"x_min":54,"x_max":479,"o":"m 465 508 q 451 440 465 468 q 417 394 438 413 q 371 368 396 376 q 322 357 346 360 l 308 356 l 308 353 l 322 351 q 375 337 347 349 q 426 306 403 325 q 464 258 449 286 q 479 192 479 229 l 479 163 q 463 95 479 125 q 422 44 447 65 q 363 11 396 22 q 296 0 331 0 l 54 0 l 54 688 l 282 688 q 347 678 314 688 q 406 651 379 669 q 449 603 432 632 q 465 533 465 574 l 465 508 m 271 358 q 317 392 306 358 q 329 492 329 425 l 329 549 q 317 647 329 615 q 268 679 304 679 l 190 679 l 190 358 l 271 358 m 343 215 q 324 315 343 281 q 271 350 304 350 l 190 350 l 190 8 l 278 8 q 328 42 314 8 q 343 142 343 75 l 343 215 z "},"г":{"ha":372,"x_min":54,"x_max":361,"o":"m 54 688 l 361 688 l 361 679 l 190 679 l 190 0 l 54 0 l 54 688 z "},"д":{"ha":508,"x_min":3,"x_max":535,"o":"m 3 -182 l 3 8 l 38 8 q 74 80 58 36 q 101 187 90 124 q 116 335 111 250 q 121 533 121 421 l 121 688 l 461 688 l 461 8 l 535 8 l 535 -182 l 399 -182 l 399 0 l 11 0 l 11 -182 l 3 -182 m 326 8 l 326 679 l 129 679 l 129 518 q 125 353 129 433 q 111 207 121 274 q 85 89 101 140 q 46 8 69 38 l 326 8 z "},"е":{"ha":510,"x_min":47,"x_max":475,"o":"m 47 496 q 64 574 47 538 q 110 640 81 611 q 178 684 139 668 q 260 700 217 700 q 342 683 303 700 q 410 639 381 667 q 456 574 439 611 q 474 496 474 538 l 474 346 l 188 346 l 188 106 q 217 27 188 57 q 293 -3 246 -3 q 346 7 319 -3 q 396 34 372 17 q 438 74 419 51 q 467 124 457 97 l 475 121 q 394 22 447 57 q 269 -12 340 -12 q 183 3 224 -12 q 113 47 143 19 q 65 111 82 74 q 47 190 47 149 l 47 496 m 333 354 l 333 600 q 314 667 333 643 q 263 692 294 692 q 208 666 228 692 q 188 600 188 640 l 188 354 l 333 354 z "},"ж":{"ha":728,"x_min":-7,"x_max":733,"o":"m 481 307 q 460 347 471 336 q 435 357 449 357 l 431 357 l 431 0 l 296 0 l 296 357 l 292 357 q 267 347 278 357 q 246 307 256 336 l 132 0 l -7 0 l 103 279 q 128 322 111 306 q 163 349 144 339 q 201 362 182 358 q 238 365 221 365 l 250 365 l 78 688 l 90 688 l 263 365 l 296 365 l 296 688 l 431 688 l 431 365 l 464 365 l 635 688 l 649 688 l 476 365 l 488 365 q 524 362 504 365 q 563 349 543 358 q 598 322 582 339 q 624 279 614 306 l 733 0 l 594 0 l 481 307 z "},"з":{"ha":464,"x_min":3,"x_max":424,"o":"m 182 -12 q 3 31 72 -12 l 7 38 q 135 1 72 1 q 244 43 203 1 q 285 160 285 85 l 285 215 q 253 317 285 282 q 167 354 221 353 l 144 354 l 146 363 l 167 363 q 274 500 274 363 l 274 539 q 240 647 274 608 q 147 685 206 685 q 26 636 79 685 l 21 642 q 196 700 82 700 q 355 655 296 700 q 414 528 414 610 l 414 506 q 365 407 414 446 q 240 363 315 368 l 218 360 l 218 356 l 240 354 q 373 306 322 347 q 424 197 424 264 l 424 164 q 359 34 424 81 q 182 -12 294 -12 z "},"и":{"ha":483,"x_min":54,"x_max":436,"o":"m 436 689 l 436 0 l 428 0 l 428 649 l 426 649 l 88 0 l 54 0 l 54 689 l 64 689 l 64 211 l 67 211 l 307 689 l 436 689 z "},"й":{"ha":483,"x_min":54,"x_max":436,"o":"m 436 689 l 436 0 l 428 0 l 428 649 l 426 649 l 88 0 l 54 0 l 54 689 l 64 689 l 64 211 l 67 211 l 307 689 l 436 689 m 347 918 l 354 918 q 322 826 354 861 q 240 790 290 790 q 158 826 190 790 q 126 918 126 861 l 133 918 q 165 869 133 889 q 240 849 196 849 q 316 869 285 849 q 347 918 347 889 z "},"к":{"ha":486,"x_min":54,"x_max":492,"o":"m 239 307 q 218 347 229 336 q 193 357 207 357 l 189 357 l 189 0 l 54 0 l 54 688 l 189 688 l 189 365 l 222 365 l 394 688 l 407 688 l 235 365 l 247 365 q 283 362 264 365 q 322 349 303 358 q 357 322 340 339 q 382 279 374 306 l 492 0 l 353 0 l 239 307 z "},"л":{"ha":582,"x_min":1,"x_max":535,"o":"m 6 17 q 32 5 18 10 q 58 0 46 0 q 99 28 86 0 q 117 136 113 56 l 146 688 l 535 688 l 535 0 l 400 0 l 400 679 l 282 679 l 256 192 q 236 103 253 142 q 194 40 219 65 q 139 1 169 14 q 78 -12 108 -12 q 1 8 39 -12 l 6 17 z "},"м":{"ha":583,"x_min":53,"x_max":535,"o":"m 535 0 l 400 0 l 400 647 l 397 647 l 269 0 l 236 0 l 63 647 l 61 647 l 61 0 l 53 0 l 53 686 l 193 686 l 306 251 l 308 251 l 315 293 l 393 686 l 535 686 l 535 0 z "},"н":{"ha":528,"x_min":56,"x_max":481,"o":"m 190 688 l 190 349 l 346 349 l 346 688 l 481 688 l 481 0 l 346 0 l 346 340 l 190 340 l 190 0 l 56 0 l 56 688 l 190 688 z "},"о":{"ha":519,"x_min":47,"x_max":474,"o":"m 258 700 q 340 683 301 700 q 409 639 379 667 q 456 574 439 611 q 474 496 474 538 l 474 190 q 457 112 474 149 q 412 47 440 75 q 345 3 383 19 q 264 -12 307 -12 q 181 4 221 -12 q 112 49 142 21 q 65 113 82 76 q 47 190 47 150 l 47 496 q 64 574 47 538 q 110 640 81 611 q 177 684 139 668 q 258 700 215 700 m 263 692 q 208 667 228 692 q 188 600 188 642 l 188 88 q 208 21 188 46 q 263 -4 228 -4 q 315 20 296 -4 q 333 88 333 44 l 333 600 q 315 667 333 643 q 263 692 296 692 z "},"п":{"ha":514,"x_min":54,"x_max":465,"o":"m 465 688 l 465 0 l 331 0 l 331 679 l 189 679 l 189 0 l 54 0 l 54 688 l 465 688 z "},"р":{"ha":521,"x_min":58,"x_max":474,"o":"m 58 688 l 193 688 l 193 615 l 196 615 q 304 700 226 700 q 369 685 339 700 q 423 644 400 669 q 460 584 446 618 q 474 511 474 550 l 474 188 q 460 111 474 147 q 422 47 446 75 q 366 3 397 19 q 300 -12 335 -12 q 196 69 224 -12 l 193 69 l 193 -233 l 58 -233 l 58 688 m 193 121 q 200 77 193 99 q 219 39 207 56 q 245 12 231 22 q 276 1 260 1 q 318 24 301 1 q 335 83 335 47 l 335 600 q 317 660 335 636 q 275 685 300 685 q 245 674 260 685 q 219 647 231 664 q 200 610 207 631 q 193 568 193 589 l 193 121 z "},"с":{"ha":449,"x_min":47,"x_max":464,"o":"m 47 488 q 63 572 47 533 q 108 640 79 611 q 175 684 136 668 q 260 700 214 700 q 353 681 308 700 q 431 629 399 663 l 425 624 q 359 670 400 651 q 282 689 318 689 q 213 661 238 689 q 188 586 188 633 l 188 107 q 217 28 188 58 q 293 -1 246 -1 q 388 29 342 -1 q 457 104 435 60 l 464 101 q 385 18 438 49 q 268 -12 333 -12 q 180 3 221 -12 q 110 48 139 19 q 64 116 81 76 q 47 201 47 156 l 47 488 z "},"т":{"ha":446,"x_min":19,"x_max":429,"o":"m 429 679 l 292 679 l 292 0 l 156 0 l 156 679 l 19 679 l 19 688 l 429 688 l 429 679 z "},"у":{"ha":449,"x_min":19,"x_max":431,"o":"m 161 689 l 292 214 l 294 214 l 419 689 l 431 689 l 206 -151 q 103 -242 179 -242 q 68 -237 88 -242 l 71 -228 q 106 -232 90 -232 q 193 -149 172 -232 l 225 -33 l 19 689 l 161 689 z "},"ф":{"ha":569,"x_min":47,"x_max":522,"o":"m 289 971 l 289 700 q 381 683 338 699 q 455 639 424 667 q 504 574 486 611 q 522 496 522 538 l 522 190 q 505 110 522 147 q 456 45 488 72 q 382 3 425 18 q 289 -12 339 -12 l 289 -233 l 281 -233 l 281 -12 q 189 6 232 -11 q 115 49 146 22 q 65 113 83 76 q 47 190 47 149 l 47 496 q 65 576 47 539 q 115 641 83 614 q 188 684 146 668 q 281 700 231 700 l 281 971 l 289 971 m 289 -4 q 382 88 382 -4 l 382 600 q 289 692 382 692 l 289 -4 m 281 692 q 188 600 188 688 l 188 88 q 281 -4 188 0 l 281 692 z "},"х":{"ha":496,"x_min":18,"x_max":478,"o":"m 165 688 l 268 458 l 286 421 l 289 421 l 408 688 l 419 688 l 293 404 l 478 0 l 336 0 l 183 335 l 181 335 l 31 0 l 18 0 l 176 353 l 24 688 l 165 688 z "},"ц":{"ha":546,"x_min":54,"x_max":567,"o":"m 54 688 l 189 688 l 189 8 l 331 8 l 331 688 l 465 688 l 465 8 l 565 8 l 567 -151 l 481 -151 l 481 0 l 54 0 l 54 688 z "},"ч":{"ha":500,"x_min":46,"x_max":453,"o":"m 315 272 q 268 212 296 232 q 197 192 240 192 q 88 234 131 192 q 46 347 46 276 l 46 688 l 182 688 l 182 279 q 191 220 182 236 q 221 204 200 204 q 256 214 239 204 q 287 238 274 224 q 308 272 300 253 q 317 308 317 290 l 317 688 l 453 688 l 453 0 l 317 0 l 317 272 l 315 272 z "},"ш":{"ha":718,"x_min":54,"x_max":672,"o":"m 54 688 l 190 688 l 190 8 l 294 8 l 294 688 l 431 688 l 431 8 l 536 8 l 536 688 l 672 688 l 672 0 l 54 0 l 54 688 z "},"щ":{"ha":751,"x_min":54,"x_max":771,"o":"m 54 688 l 190 688 l 190 8 l 294 8 l 294 688 l 431 688 l 431 8 l 536 8 l 536 688 l 672 688 l 672 0 l 54 0 l 54 688 m 651 8 l 771 8 l 771 -151 l 685 -151 l 685 0 l 651 0 l 651 8 z "},"ъ":{"ha":550,"x_min":1,"x_max":503,"o":"m 322 386 q 391 374 358 386 q 449 339 424 361 q 488 287 474 317 q 503 221 503 257 l 503 161 q 488 99 503 128 q 449 47 474 69 q 391 13 424 25 q 324 0 358 0 l 92 0 l 92 678 l 1 678 l 1 688 l 228 688 l 228 386 l 322 386 m 367 251 q 294 378 367 378 l 228 378 l 228 8 l 301 8 q 351 36 336 8 q 367 131 367 64 l 367 251 z "},"ы":{"ha":718,"x_min":54,"x_max":671,"o":"m 285 386 q 353 374 321 386 q 411 339 386 361 q 451 287 436 317 q 465 221 465 257 l 465 161 q 451 99 465 128 q 411 47 436 69 q 353 13 386 25 q 286 0 321 0 l 54 0 l 54 686 l 190 688 l 190 386 l 285 386 m 671 688 l 671 0 l 535 0 l 535 688 l 671 688 m 329 251 q 257 378 329 378 l 190 378 l 190 8 l 264 8 q 314 36 299 8 q 329 131 329 64 l 329 251 z "},"ь":{"ha":513,"x_min":54,"x_max":465,"o":"m 285 386 q 353 374 321 386 q 411 339 386 361 q 451 287 436 317 q 465 221 465 257 l 465 161 q 451 99 465 128 q 411 47 436 69 q 353 13 386 25 q 286 0 321 0 l 54 0 l 54 686 l 190 688 l 190 386 l 285 386 m 329 251 q 257 378 329 378 l 190 378 l 190 8 l 264 8 q 314 36 299 8 q 329 131 329 64 l 329 251 z "},"э":{"ha":464,"x_min":3,"x_max":418,"o":"m 418 201 q 401 116 418 156 q 356 48 385 76 q 286 3 326 19 q 199 -12 246 -12 q 81 18 132 -12 q 3 101 29 49 l 10 104 q 38 63 21 82 q 78 29 56 43 q 125 7 100 15 q 174 -1 150 -1 q 249 28 221 -1 q 278 107 278 58 l 278 339 l 99 339 l 99 347 l 278 347 l 278 586 q 253 661 278 633 q 185 689 228 689 q 108 670 149 689 q 42 624 67 651 l 35 629 q 113 681 67 663 q 207 700 158 700 q 290 684 251 700 q 358 640 329 668 q 402 572 386 611 q 418 488 418 533 l 418 201 z "},"ю":{"ha":760,"x_min":54,"x_max":713,"o":"m 497 700 q 579 683 540 700 q 648 639 618 667 q 695 574 678 611 q 713 496 713 538 l 713 190 q 696 112 713 149 q 651 47 679 75 q 584 3 622 19 q 503 -12 546 -12 q 420 4 460 -12 q 351 49 381 21 q 303 113 321 76 q 286 190 286 150 l 286 340 l 189 340 l 189 0 l 54 0 l 54 688 l 189 688 l 189 349 l 286 349 l 286 496 q 303 574 286 538 q 349 640 319 611 q 416 684 378 668 q 497 700 454 700 m 501 692 q 447 667 467 692 q 426 600 426 642 l 426 88 q 447 21 426 46 q 501 -4 467 -4 q 553 20 535 -4 q 572 88 572 44 l 572 600 q 553 667 572 643 q 501 692 533 692 z "},"я":{"ha":510,"x_min":46,"x_max":463,"o":"m 463 0 l 326 0 l 326 339 l 299 339 q 266 325 275 339 q 246 261 257 311 l 185 0 l 46 0 l 106 249 q 145 311 113 285 q 219 339 178 338 l 219 342 q 108 393 149 347 q 67 501 67 439 l 67 526 q 78 589 67 560 q 112 640 90 618 q 163 674 133 661 q 226 688 192 688 l 463 688 l 463 0 m 203 474 q 217 377 203 407 q 267 347 232 347 l 326 347 l 326 679 l 271 679 q 219 649 235 679 q 203 553 203 619 l 203 474 z "},"ё":{"ha":510,"x_min":47,"x_max":475,"o":"m 47 496 q 64 574 47 538 q 110 640 81 611 q 178 684 139 668 q 260 700 217 700 q 342 683 303 700 q 410 639 381 667 q 456 574 439 611 q 474 496 474 538 l 474 346 l 188 346 l 188 106 q 217 27 188 57 q 293 -3 246 -3 q 346 7 319 -3 q 396 34 372 17 q 438 74 419 51 q 467 124 457 97 l 475 121 q 394 22 447 57 q 269 -12 340 -12 q 183 3 224 -12 q 113 47 143 19 q 65 111 82 74 q 47 190 47 149 l 47 496 m 333 354 l 333 600 q 314 667 333 643 q 263 692 294 692 q 208 666 228 692 q 188 600 188 640 l 188 354 l 333 354 m 132 856 q 146 892 132 878 q 182 906 160 906 q 219 892 204 906 q 233 856 233 878 q 219 820 233 835 q 182 806 204 806 q 146 820 160 806 q 132 856 132 835 m 285 856 q 299 891 285 876 q 336 906 314 906 q 372 892 358 906 q 386 856 386 878 q 372 819 386 833 q 336 806 358 806 q 299 820 314 806 q 285 856 285 835 z "},"ђ":{"ha":536,"x_min":17,"x_max":482,"o":"m 197 588 q 251 674 221 647 q 329 700 282 700 q 390 689 363 700 q 438 659 418 678 q 470 614 458 640 q 482 556 482 588 l 482 31 q 472 -49 482 -12 q 438 -117 461 -85 q 378 -181 414 -150 q 289 -242 342 -211 l 283 -235 q 326 -178 314 -210 q 338 -86 338 -146 l 338 608 q 294 682 338 682 q 260 669 278 682 q 227 635 242 656 q 203 590 213 615 q 194 542 194 565 l 194 0 l 58 0 l 58 801 l 17 801 l 17 810 l 58 810 l 58 971 l 194 971 l 194 810 l 306 810 l 306 801 l 194 801 l 194 588 l 197 588 z "},"ѓ":{"ha":372,"x_min":54,"x_max":361,"o":"m 54 688 l 361 688 l 361 679 l 190 679 l 190 0 l 54 0 l 54 688 m 165 747 l 207 903 l 310 903 l 174 747 l 165 747 z "},"ґ":{"ha":372,"x_min":54,"x_max":360,"o":"m 54 688 l 268 688 l 268 824 l 360 824 l 360 679 l 190 679 l 190 0 l 54 0 l 54 688 z "},"є":{"ha":449,"x_min":47,"x_max":464,"o":"m 47 488 q 63 572 47 533 q 108 640 79 611 q 175 684 136 668 q 260 700 214 700 q 353 681 308 700 q 431 629 399 663 l 425 624 q 358 670 399 651 q 281 689 317 689 q 213 661 238 689 q 188 586 188 633 l 188 347 l 367 347 l 367 339 l 188 339 l 188 107 q 216 28 188 58 q 292 -1 244 -1 q 341 7 317 -1 q 388 29 365 15 q 428 63 410 43 q 456 104 446 82 l 464 101 q 385 18 436 49 q 268 -12 333 -12 q 180 3 221 -12 q 110 48 139 19 q 64 116 81 76 q 47 201 47 156 l 47 488 z "},"ѕ":{"ha":401,"x_min":29,"x_max":388,"o":"m 358 639 q 306 674 335 663 q 250 686 278 686 q 185 663 210 686 q 160 601 160 639 q 190 514 160 564 l 358 236 q 388 144 388 189 q 372 83 388 111 q 331 33 357 54 q 271 0 306 13 q 196 -12 236 -12 q 29 57 99 -12 l 35 63 q 100 17 64 33 q 169 0 136 0 q 230 22 207 0 q 253 82 253 44 q 208 207 253 133 l 65 438 q 31 543 31 496 q 45 605 31 576 q 85 654 60 633 q 144 688 110 675 q 217 700 178 700 q 365 644 303 700 l 358 639 z "},"і":{"ha":268,"x_min":58,"x_max":215,"o":"m 58 854 q 81 908 58 886 q 136 929 103 929 q 193 908 171 929 q 215 854 215 886 q 193 799 215 821 q 136 776 171 776 q 81 799 103 776 q 58 854 58 821 m 203 688 l 203 0 l 67 0 l 67 688 l 203 688 z "},"ї":{"ha":268,"x_min":7,"x_max":261,"o":"m 203 688 l 203 0 l 67 0 l 67 688 l 203 688 m 7 856 q 21 892 7 878 q 57 906 35 906 q 94 892 79 906 q 108 856 108 878 q 94 820 108 835 q 57 806 79 806 q 21 820 35 806 q 7 856 7 835 m 160 856 q 174 891 160 876 q 211 906 189 906 q 247 892 233 906 q 261 856 261 878 q 247 819 261 833 q 211 806 233 806 q 174 820 189 806 q 160 856 160 835 z "},"ј":{"ha":315,"x_min":56,"x_max":263,"o":"m 110 854 q 131 908 110 886 q 185 929 153 929 q 240 908 218 929 q 263 854 263 886 q 240 799 263 821 q 185 776 218 776 q 131 799 153 776 q 110 854 110 821 m 253 31 q 242 -49 253 -12 q 209 -117 232 -85 q 149 -181 186 -150 q 60 -243 113 -211 l 56 -237 q 82 -213 71 -225 q 101 -185 93 -201 q 114 -144 110 -168 q 118 -87 118 -121 l 118 688 l 253 688 l 253 31 z "},"љ":{"ha":918,"x_min":3,"x_max":871,"o":"m 692 386 q 760 374 728 386 q 817 339 792 361 q 856 287 842 317 q 871 221 871 257 l 871 161 q 856 99 871 128 q 817 47 842 69 q 759 13 792 25 q 692 0 726 0 l 461 0 l 461 679 l 317 679 l 301 303 q 244 64 294 140 q 110 -12 194 -12 q 3 17 53 -12 l 7 24 q 44 8 26 14 q 79 3 63 3 q 114 12 99 3 q 140 43 129 21 q 156 103 150 65 q 164 196 163 140 l 181 688 l 597 688 l 597 386 l 692 386 m 735 251 q 663 378 735 378 l 597 378 l 597 8 l 669 8 q 719 36 704 8 q 735 131 735 64 l 735 251 z "},"њ":{"ha":803,"x_min":54,"x_max":756,"o":"m 189 688 l 189 386 l 344 386 l 344 688 l 481 688 l 481 388 l 575 388 q 644 375 611 388 q 701 340 676 363 q 741 287 726 317 q 756 221 756 257 l 756 163 q 741 99 756 129 q 701 47 726 69 q 644 13 676 25 q 576 0 611 0 l 344 0 l 344 378 l 189 378 l 189 0 l 54 0 l 54 688 l 189 688 m 619 251 q 547 378 619 378 l 481 378 l 481 8 l 554 8 q 604 36 589 8 q 619 132 619 64 l 619 251 z "},"ћ":{"ha":529,"x_min":58,"x_max":482,"o":"m 197 588 q 251 674 221 647 q 329 701 282 701 q 389 690 361 701 q 438 660 417 679 q 470 614 458 640 q 482 556 482 588 l 482 0 l 338 0 l 338 608 q 294 683 338 683 q 260 670 278 683 q 227 636 242 657 q 203 590 213 615 q 194 542 194 565 l 194 0 l 58 0 l 58 972 l 194 972 l 194 588 l 197 588 z "},"ќ":{"ha":486,"x_min":54,"x_max":492,"o":"m 239 307 q 218 347 229 336 q 193 357 207 357 l 189 357 l 189 0 l 54 0 l 54 688 l 189 688 l 189 365 l 222 365 l 394 688 l 407 688 l 235 365 l 247 365 q 283 362 264 365 q 322 349 303 358 q 357 322 340 339 q 382 279 374 306 l 492 0 l 353 0 l 239 307 m 239 747 l 281 903 l 383 903 l 247 747 l 239 747 z "},"ў":{"ha":449,"x_min":19,"x_max":431,"o":"m 161 689 l 292 214 l 294 214 l 419 689 l 431 689 l 206 -151 q 103 -242 179 -242 q 68 -237 88 -242 l 71 -228 q 106 -232 90 -232 q 193 -149 172 -232 l 225 -33 l 19 689 l 161 689 m 363 918 l 369 918 q 338 826 369 861 q 256 790 306 790 q 174 826 206 790 q 142 918 142 861 l 149 918 q 180 869 149 889 q 256 849 211 849 q 331 869 300 849 q 363 918 363 889 z "},"џ":{"ha":514,"x_min":54,"x_max":465,"o":"m 54 688 l 189 688 l 189 8 l 331 8 l 331 688 l 465 688 l 465 0 l 303 0 l 303 -151 l 218 -151 l 218 0 l 54 0 l 54 688 z "},"Ѐ":{"ha":453,"x_min":68,"x_max":419,"o":"m 419 971 l 419 963 l 213 963 l 213 500 l 390 500 l 390 492 l 213 492 l 213 8 l 419 8 l 419 0 l 68 0 l 68 971 l 419 971 m 261 1031 l 125 1186 l 228 1186 l 269 1031 l 261 1031 z "},"Ѝ":{"ha":546,"x_min":60,"x_max":486,"o":"m 486 971 l 486 1 l 478 1 l 478 915 l 475 915 l 97 1 l 60 1 l 60 971 l 68 971 l 68 289 l 72 289 l 346 971 l 486 971 m 271 1031 l 135 1186 l 238 1186 l 279 1031 l 271 1031 z "},"ѐ":{"ha":510,"x_min":47,"x_max":475,"o":"m 47 496 q 64 574 47 538 q 110 640 81 611 q 178 684 139 668 q 260 700 217 700 q 342 683 303 700 q 410 639 381 667 q 456 574 439 611 q 474 496 474 538 l 474 346 l 188 346 l 188 106 q 217 27 188 57 q 293 -3 246 -3 q 346 7 319 -3 q 396 34 372 17 q 438 74 419 51 q 467 124 457 97 l 475 121 q 394 22 447 57 q 269 -12 340 -12 q 183 3 224 -12 q 113 47 143 19 q 65 111 82 74 q 47 190 47 149 l 47 496 m 333 354 l 333 600 q 314 667 333 643 q 263 692 294 692 q 208 666 228 692 q 188 600 188 640 l 188 354 l 333 354 m 271 783 l 135 939 l 238 939 l 279 783 l 271 783 z "},"ѝ":{"ha":483,"x_min":54,"x_max":436,"o":"m 436 689 l 436 0 l 428 0 l 428 649 l 426 649 l 88 0 l 54 0 l 54 689 l 64 689 l 64 211 l 67 211 l 307 689 l 436 689 m 253 783 l 117 939 l 219 939 l 261 783 l 253 783 z "},"Ҋ":{"ha":564,"x_min":60,"x_max":588,"o":"m 486 971 l 486 1 l 478 1 l 478 915 l 475 915 l 97 1 l 60 1 l 60 971 l 68 971 l 68 289 l 72 289 l 346 971 l 486 971 m 365 1165 l 372 1165 q 340 1073 372 1108 q 258 1038 308 1038 q 176 1073 208 1038 q 144 1165 144 1108 l 151 1165 q 183 1116 151 1136 q 258 1096 214 1096 q 334 1116 303 1096 q 365 1165 365 1136 m 456 -151 l 499 0 l 479 0 l 479 8 l 588 8 l 542 -151 l 456 -151 z "},"ҋ":{"ha":522,"x_min":54,"x_max":539,"o":"m 436 689 l 436 0 l 428 0 l 428 649 l 426 649 l 88 0 l 54 0 l 54 689 l 64 689 l 64 211 l 67 211 l 307 689 l 436 689 m 407 -151 l 450 0 l 431 0 l 431 8 l 539 8 l 493 -151 l 407 -151 m 347 918 l 354 918 q 322 826 354 861 q 240 790 290 790 q 158 826 190 790 q 126 918 126 861 l 133 918 q 165 869 133 889 q 240 849 196 849 q 316 869 285 849 q 347 918 347 889 z "},"Ҍ":{"ha":565,"x_min":6,"x_max":533,"o":"m 297 546 q 391 528 347 546 q 466 478 435 510 q 515 404 497 447 q 533 311 533 361 l 533 228 q 517 140 533 181 q 472 67 500 99 q 405 18 443 36 q 322 0 367 0 l 68 0 l 68 971 l 213 971 l 213 546 l 297 546 m 389 360 q 288 538 389 538 l 213 538 l 213 8 l 297 8 q 367 47 346 8 q 389 182 389 86 l 389 360 m 6 810 l 301 810 l 301 801 l 6 801 l 6 810 z "},"ҍ":{"ha":513,"x_min":-7,"x_max":465,"o":"m 285 386 q 353 374 321 386 q 411 339 386 361 q 451 287 436 317 q 465 221 465 257 l 465 161 q 451 99 465 128 q 411 47 436 69 q 353 13 386 25 q 286 0 321 0 l 54 0 l 54 686 l 190 688 l 190 386 l 285 386 m 329 251 q 257 378 329 378 l 190 378 l 190 8 l 264 8 q 314 36 299 8 q 329 131 329 64 l 329 251 m -7 590 l 289 590 l 289 582 l -7 582 l -7 590 z "},"Ҏ":{"ha":557,"x_min":68,"x_max":528,"o":"m 304 971 q 394 953 353 971 q 465 903 435 935 q 511 831 494 872 q 528 743 528 790 l 528 696 q 511 607 528 649 q 465 534 494 565 q 396 485 436 503 q 307 467 356 467 l 213 467 l 213 0 l 68 0 l 68 971 l 304 971 m 383 785 q 361 921 383 879 q 289 963 339 963 l 213 963 l 213 475 l 296 475 q 363 517 343 475 q 383 653 383 560 l 383 785 m 288 586 l 396 397 l 386 392 l 278 581 l 288 586 z "},"ҏ":{"ha":521,"x_min":58,"x_max":474,"o":"m 58 688 l 193 688 l 193 615 l 196 615 q 304 700 226 700 q 369 685 339 700 q 423 644 400 669 q 460 584 446 618 q 474 511 474 550 l 474 188 q 460 111 474 147 q 422 47 446 75 q 366 3 397 19 q 300 -12 335 -12 q 196 69 224 -12 l 193 69 l 193 -233 l 58 -233 l 58 688 m 193 121 q 200 77 193 99 q 219 39 207 56 q 245 12 231 22 q 276 1 260 1 q 318 24 301 1 q 335 83 335 47 l 335 600 q 317 660 335 636 q 275 685 300 685 q 245 674 260 685 q 219 647 231 664 q 200 610 207 631 q 193 568 193 589 l 193 121 m 261 118 l 369 -71 l 360 -76 l 251 113 l 261 118 z "},"Ғ":{"ha":403,"x_min":6,"x_max":411,"o":"m 68 971 l 411 971 l 411 963 l 213 963 l 213 0 l 68 0 l 68 971 m 6 521 l 301 521 l 301 513 l 6 513 l 6 521 z "},"ғ":{"ha":372,"x_min":-8,"x_max":361,"o":"m 54 688 l 361 688 l 361 679 l 190 679 l 190 0 l 54 0 l 54 688 m -8 382 l 288 382 l 288 374 l -8 374 l -8 382 z "},"Ҕ":{"ha":590,"x_min":68,"x_max":531,"o":"m 213 963 l 213 514 l 215 513 q 265 533 239 525 q 318 540 290 540 q 403 524 364 540 q 470 478 442 507 q 515 411 499 450 q 531 326 531 372 l 531 50 q 514 -35 531 4 q 467 -103 497 -75 q 397 -148 438 -132 q 307 -164 356 -164 l 306 -156 q 366 -124 344 -156 q 388 -50 388 -93 l 388 426 q 363 501 388 474 q 294 528 338 528 q 253 522 275 528 q 213 504 232 515 l 213 0 l 68 0 l 68 971 l 421 971 l 421 963 l 213 963 z "},"ҕ":{"ha":508,"x_min":54,"x_max":460,"o":"m 189 681 l 189 347 l 192 344 q 228 358 208 353 q 276 364 249 364 q 412 319 364 364 q 460 204 460 274 l 460 -4 q 409 -119 460 -74 q 260 -164 358 -164 l 258 -156 q 303 -131 288 -154 q 319 -76 319 -108 l 319 278 q 301 334 319 314 q 250 354 282 354 q 189 336 218 354 l 189 0 l 54 0 l 54 688 l 378 688 l 378 681 l 189 681 z "},"Җ":{"ha":969,"x_min":-7,"x_max":975,"o":"m 739 0 l 583 432 q 553 490 568 475 q 519 506 539 506 l 513 506 l 513 0 l 368 0 l 368 506 l 363 506 q 328 490 343 506 q 299 432 314 475 l 143 0 l -7 0 l 143 393 q 206 492 171 468 q 288 515 242 515 l 310 515 l 71 971 l 83 971 l 321 515 l 368 515 l 368 971 l 513 971 l 513 515 l 560 515 l 797 971 l 811 971 l 572 515 l 594 515 q 674 492 639 515 q 738 393 710 468 l 888 0 l 739 0 m 856 8 l 975 8 l 975 -151 l 889 -151 l 889 0 l 856 0 l 856 8 z "},"җ":{"ha":839,"x_min":-7,"x_max":821,"o":"m 481 307 q 460 347 471 336 q 435 357 449 357 l 431 357 l 431 0 l 296 0 l 296 357 l 292 357 q 267 347 278 357 q 246 307 256 336 l 132 0 l -7 0 l 103 279 q 128 322 111 306 q 163 349 144 339 q 201 362 182 358 q 238 365 221 365 l 250 365 l 78 688 l 90 688 l 263 365 l 296 365 l 296 688 l 431 688 l 431 365 l 464 365 l 635 688 l 649 688 l 476 365 l 488 365 q 524 362 504 365 q 563 349 543 358 q 598 322 582 339 q 624 279 614 306 l 733 0 l 594 0 l 481 307 m 701 8 l 821 8 l 821 -151 l 735 -151 l 735 0 l 701 0 l 701 8 z "},"Ҙ":{"ha":628,"x_min":60,"x_max":606,"o":"m 297 -12 q 169 3 231 -12 q 60 47 107 19 l 64 56 q 153 17 108 29 q 242 4 199 4 q 399 64 340 4 q 457 229 457 124 l 457 303 q 412 448 457 397 q 289 499 367 499 l 258 499 l 258 507 l 289 507 q 401 557 360 507 q 442 703 442 607 l 442 756 q 392 910 442 854 q 261 967 342 967 q 170 948 215 967 q 89 894 125 929 l 83 900 q 184 962 124 940 q 315 983 244 983 q 426 967 376 983 q 513 922 476 951 q 570 849 550 892 q 590 754 590 807 l 590 711 q 538 567 590 618 q 393 508 486 515 l 363 506 l 363 500 l 393 497 q 549 437 493 490 q 606 290 606 383 l 606 236 q 583 132 606 178 q 520 54 561 86 q 423 5 479 22 q 297 -12 367 -12 m 204 -110 q 233 -151 217 -137 q 267 -164 250 -164 q 307 -142 290 -164 q 324 -90 324 -119 q 310 -43 324 -67 q 264 0 296 -19 l 276 0 q 354 -59 326 -28 q 382 -122 382 -90 q 358 -174 382 -153 q 300 -196 335 -196 q 241 -174 268 -196 q 197 -114 214 -153 l 204 -110 z "},"Қ":{"ha":668,"x_min":68,"x_max":674,"o":"m 439 0 l 282 432 q 253 490 267 475 q 219 506 239 506 l 213 506 l 213 0 l 68 0 l 68 971 l 213 971 l 213 515 l 260 515 l 497 971 l 510 971 l 272 515 l 294 515 q 374 492 339 515 q 438 393 410 468 l 588 0 l 439 0 m 554 8 l 674 8 l 674 -151 l 588 -151 l 588 0 l 554 0 l 554 8 z "},"қ":{"ha":572,"x_min":54,"x_max":578,"o":"m 239 307 q 218 347 229 336 q 193 357 207 357 l 189 357 l 189 0 l 54 0 l 54 688 l 189 688 l 189 365 l 222 365 l 394 688 l 407 688 l 235 365 l 247 365 q 283 362 264 365 q 322 349 303 358 q 357 322 340 339 q 382 279 374 306 l 492 0 l 353 0 l 239 307 m 458 8 l 578 8 l 578 -151 l 492 -151 l 492 0 l 458 0 l 458 8 z "},"Ҝ":{"ha":638,"x_min":68,"x_max":643,"o":"m 493 0 l 338 432 q 308 490 322 475 q 274 506 293 506 l 272 506 l 272 404 l 264 404 l 264 506 l 211 507 l 211 0 l 68 0 l 68 971 l 211 971 l 211 515 l 264 515 l 264 638 l 272 638 l 272 515 l 314 515 l 553 971 l 565 971 l 326 515 l 349 515 q 430 492 394 515 q 493 393 465 468 l 643 0 l 493 0 z "},"ҝ":{"ha":528,"x_min":54,"x_max":533,"o":"m 294 307 q 274 347 285 336 q 249 357 263 357 l 243 357 l 243 254 l 235 254 l 235 357 l 189 357 l 189 0 l 54 0 l 54 688 l 189 688 l 189 365 l 235 365 l 235 486 l 243 486 l 243 365 l 276 365 l 435 688 l 449 688 l 289 365 l 301 365 q 338 362 318 365 q 376 349 357 358 q 413 324 396 340 q 438 279 429 307 l 533 0 l 394 0 l 294 307 z "},"Ҟ":{"ha":582,"x_min":6,"x_max":588,"o":"m 439 0 l 282 432 q 253 490 267 475 q 219 506 239 506 l 213 506 l 213 0 l 68 0 l 68 971 l 213 971 l 213 515 l 260 515 l 497 971 l 510 971 l 272 515 l 294 515 q 374 492 339 515 q 438 393 410 468 l 588 0 l 439 0 m 6 842 l 301 842 l 301 833 l 6 833 l 6 842 z "},"ҟ":{"ha":486,"x_min":-8,"x_max":492,"o":"m 239 307 q 218 347 229 336 q 193 357 207 357 l 189 357 l 189 0 l 54 0 l 54 801 l -8 801 l -8 810 l 54 810 l 54 971 l 189 971 l 189 810 l 288 810 l 288 801 l 189 801 l 189 365 l 222 365 l 394 688 l 407 688 l 235 365 l 247 365 q 283 362 264 365 q 322 349 303 358 q 357 322 340 339 q 382 279 374 306 l 492 0 l 353 0 l 239 307 z "},"Ҡ":{"ha":685,"x_min":-7,"x_max":690,"o":"m 542 0 l 385 432 q 356 490 369 475 q 322 506 342 506 l 315 506 l 315 0 l 171 0 l 171 971 l 315 971 l 315 515 l 363 515 l 600 971 l 613 971 l 375 515 l 397 515 q 477 492 442 515 q 540 393 513 468 l 690 0 l 542 0 m -7 971 l 174 971 l 174 963 l -7 963 l -7 971 z "},"ҡ":{"ha":583,"x_min":1,"x_max":590,"o":"m 338 307 q 317 347 328 336 q 292 357 306 357 l 288 357 l 288 0 l 153 0 l 153 688 l 288 688 l 288 365 l 321 365 l 493 688 l 506 688 l 333 365 l 346 365 q 382 362 363 365 q 420 349 401 358 q 456 322 439 339 q 481 279 472 306 l 590 0 l 451 0 l 338 307 m 1 688 l 154 688 l 154 679 l 1 679 l 1 688 z "},"Ң":{"ha":644,"x_min":69,"x_max":656,"o":"m 213 971 l 213 489 l 414 489 l 414 971 l 557 971 l 557 0 l 414 0 l 414 481 l 213 481 l 213 0 l 69 0 l 69 971 l 213 971 m 536 8 l 656 8 l 656 -151 l 569 -151 l 569 0 l 536 0 l 536 8 z "},"ң":{"ha":560,"x_min":56,"x_max":579,"o":"m 190 688 l 190 349 l 346 349 l 346 688 l 481 688 l 481 0 l 346 0 l 346 340 l 190 340 l 190 0 l 56 0 l 56 688 l 190 688 m 460 8 l 579 8 l 579 -151 l 493 -151 l 493 0 l 460 0 l 460 8 z "},"Ҥ":{"ha":726,"x_min":69,"x_max":733,"o":"m 213 971 l 213 489 l 414 489 l 414 971 l 557 971 l 557 0 l 414 0 l 414 481 l 213 481 l 213 0 l 69 0 l 69 971 l 213 971 m 553 971 l 733 971 l 733 963 l 553 963 l 553 971 z "},"ҥ":{"ha":643,"x_min":56,"x_max":631,"o":"m 190 688 l 190 349 l 346 349 l 346 688 l 481 688 l 481 0 l 346 0 l 346 340 l 190 340 l 190 0 l 56 0 l 56 688 l 190 688 m 478 688 l 631 688 l 631 679 l 478 679 l 478 688 z "},"Ҧ":{"ha":935,"x_min":68,"x_max":875,"o":"m 557 971 l 557 514 l 560 513 q 663 539 606 539 q 747 523 708 539 q 815 478 786 507 q 859 411 843 450 q 875 326 875 372 l 875 50 q 858 -35 875 4 q 812 -103 842 -75 q 741 -148 782 -132 q 650 -164 700 -164 l 650 -156 q 710 -124 689 -156 q 732 -50 732 -93 l 732 426 q 707 501 732 474 q 638 528 682 528 q 597 522 618 528 q 557 504 575 515 l 557 0 l 413 0 l 413 963 l 213 963 l 213 0 l 68 0 l 68 971 l 557 971 z "},"ҧ":{"ha":786,"x_min":56,"x_max":738,"o":"m 467 688 l 467 346 l 468 344 q 506 358 486 353 q 554 364 526 364 q 690 319 642 364 q 738 204 738 274 l 738 -3 q 687 -118 738 -74 q 536 -162 636 -162 l 536 -156 q 581 -132 565 -156 q 597 -76 597 -108 l 597 278 q 578 334 597 314 q 528 354 560 354 q 497 349 513 354 q 467 338 481 344 l 467 0 l 332 0 l 332 679 l 190 679 l 190 0 l 56 0 l 56 688 l 467 688 z "},"Ҩ":{"ha":718,"x_min":60,"x_max":660,"o":"m 204 160 q 249 39 204 82 q 374 -4 293 -4 q 453 14 417 -4 q 343 107 382 49 q 304 242 304 165 l 304 575 q 351 757 304 693 q 481 821 397 821 q 612 755 564 821 q 660 571 660 689 l 660 242 q 508 11 660 68 q 660 -22 563 -22 l 660 -31 q 478 1 557 -31 q 420 -9 450 -6 q 357 -12 390 -12 q 236 8 290 -12 q 142 65 182 28 q 81 152 103 101 q 60 264 60 203 l 60 718 q 78 826 60 776 q 129 910 96 875 q 208 964 163 944 q 310 983 254 983 q 440 949 385 983 l 436 942 q 325 975 381 975 q 233 936 263 975 q 204 814 204 897 l 204 160 m 481 33 q 526 150 526 75 l 526 674 q 516 781 526 749 q 482 813 506 813 q 448 780 458 813 q 438 672 438 747 l 438 150 q 481 33 438 76 z "},"ҩ":{"ha":646,"x_min":47,"x_max":597,"o":"m 188 115 q 226 28 188 61 q 328 -4 264 -4 q 365 -1 347 -4 q 399 8 383 3 q 303 76 336 35 q 269 169 269 117 l 269 388 q 432 583 269 583 q 597 383 597 583 l 597 169 q 560 75 597 117 q 461 10 524 33 q 597 -18 513 -18 l 597 -25 q 425 -1 500 -25 q 328 -12 376 -12 q 214 2 265 -12 q 126 44 163 17 q 68 108 89 71 q 47 190 47 146 l 47 497 q 65 576 47 539 q 114 640 83 613 q 185 684 144 668 q 272 700 226 700 q 372 675 329 700 l 368 668 q 279 692 329 692 q 209 665 231 692 q 188 572 188 638 l 188 115 m 432 29 q 468 104 468 58 l 468 476 q 460 552 468 529 q 433 575 453 575 q 406 552 414 575 q 399 475 399 529 l 399 104 q 432 29 399 60 z "},"Ҫ":{"ha":535,"x_min":60,"x_max":532,"o":"m 60 715 q 77 826 60 776 q 127 910 94 875 q 206 965 160 946 q 307 983 251 983 q 500 901 425 983 l 493 896 q 419 951 461 932 q 332 971 376 971 q 204 811 204 971 l 204 167 q 233 39 204 78 q 325 0 261 0 q 390 10 358 0 q 449 36 422 19 q 494 77 475 53 q 524 131 514 101 l 532 128 q 446 24 504 61 q 308 -12 388 -12 q 126 63 193 -12 q 60 265 60 138 l 60 715 m 247 -110 q 276 -151 260 -137 q 310 -164 293 -164 q 350 -142 333 -164 q 367 -90 367 -119 q 353 -43 367 -67 q 307 0 339 -19 l 319 0 q 397 -59 369 -28 q 425 -122 425 -90 q 401 -174 425 -153 q 343 -196 378 -196 q 284 -174 311 -196 q 240 -114 257 -153 l 247 -110 z "},"ҫ":{"ha":449,"x_min":47,"x_max":464,"o":"m 47 488 q 63 572 47 533 q 108 640 79 611 q 175 684 136 668 q 260 700 214 700 q 353 681 308 700 q 431 629 399 663 l 425 624 q 359 670 400 651 q 282 689 318 689 q 213 661 238 689 q 188 586 188 633 l 188 107 q 217 28 188 58 q 293 -1 246 -1 q 388 29 342 -1 q 457 104 435 60 l 464 101 q 385 18 438 49 q 268 -12 333 -12 q 180 3 221 -12 q 110 48 139 19 q 64 116 81 76 q 47 201 47 156 l 47 488 m 206 -108 q 235 -149 218 -136 q 268 -162 251 -162 q 308 -140 292 -162 q 325 -89 325 -118 q 311 -42 325 -65 q 265 1 297 -18 l 278 1 q 356 -58 328 -26 q 383 -121 383 -89 q 360 -173 383 -151 q 301 -194 336 -194 q 242 -173 269 -194 q 199 -112 215 -151 l 206 -108 z "},"Ҭ":{"ha":476,"x_min":-7,"x_max":485,"o":"m 485 963 l 311 963 l 311 0 l 167 0 l 167 963 l -7 963 l -7 971 l 485 971 l 485 963 m 218 15 l 338 15 l 338 -144 l 251 -144 l 251 7 l 218 7 l 218 15 z "},"ҭ":{"ha":446,"x_min":19,"x_max":429,"o":"m 429 679 l 292 679 l 292 0 l 156 0 l 156 679 l 19 679 l 19 688 l 429 688 l 429 679 m 271 8 l 390 8 l 390 -151 l 304 -151 l 304 0 l 271 0 l 271 8 z "}}}
